<?xml version="1.0" standalone="no"?> <!DOCTYPE svg PUBLIC "-//W3C//DTD SVG 1.0//EN" "http://www.w3.org/TR/2001/REC-SVG-20010904/DTD/svg10.dtd" > <svg xmlns="http://www.w3.org/2000/svg" width="100%" height="100%">
<defs >
<font id="angillatattoopersonaluseonly" horiz-adv-x="485" ><font-face
    font-family="Angilla Tattoo Personal Use "
    units-per-em="1000"
    panose-1="0 0 0 0 0 0 0 0 0 0"
    ascent="750"
    descent="-250"
    alphabetic="0" />
<missing-glyph horiz-adv-x="500" />
<glyph unicode=" " glyph-name="space" horiz-adv-x="324" />
<glyph unicode="!" glyph-name="exclam" horiz-adv-x="231" d="M266 636Q298 657 327 668T381 685Q408 691 434 692Q410 657 377 606T308 498T238 386T179 284T139 208T129 175Q104 175 99 193T102 241T130 309T171 389T215 470T252 545T273 603T266 636ZM49 105Q79
105 89 95T97 67T82 29T56 -16Q27 -22 10 -16T-10 6T1 48T49 105Z" />
<glyph unicode="&quot;" glyph-name="quotedbl" horiz-adv-x="206" d="M183 705Q197 705 212 701T238 688T251 664T242 628T201 579T120 513Q106 510 98 519Q103 529 110 541T123 564Q130 576 137 589Q128 597 130 613Q132 627 142 649T183 705ZM303 705Q317 705
332 701T358 688T371 664T362 628T321 579T240 513Q226 510 218 519Q223 529 230 541T243 564Q250 576 257 589Q248 597 250 613Q252 627 262 649T303 705Z" />
<glyph unicode="#" glyph-name="numbersign" horiz-adv-x="1158" d="M167 77H211V38Q189 22 167 22Q142 22 128 37T114 75Q114 101 128 115T167 130Q186 130 195 122T209 99L197 95Q191 118 167 118Q147 118 138 106T128 76Q128 55 139 45T167 34Q176 34 184 37T197
45V64H167V77ZM295 58H238Q241 33 261 33Q276 33 281 48L295 46Q287 22 261 22Q244 22 235 32T225 61Q225 80 234 90T261 101Q275 101 285 91T295 61V58ZM281 69Q280 80 275 85T261 91Q252 91 246 85T239 69H281ZM314 31Q313 33 313 46V89H304V99H313V118L326 126V99H338V89H326V45Q326
37 327 36T333 35H338L341 24Q337 23 331 23Q323 23 320 25T314 31ZM407 99H422V89H407V24H395V89H383V99H395V107Q395 118 399 124T416 130Q418 130 421 130T427 129L426 117Q423 118 418 118Q407 118 407 106V99ZM480 99H493V24H481V35Q474 22 457 22Q444 22
438 28T432 52V99H445V57Q445 43 448 38T460 33Q480 33 480 59V99ZM513 128H526V24H513V128ZM545 128H558V24H545V128ZM637 116Q634 113 634 106V99H649V89H634V24H622V89H610V99H622V107Q622 118 626 124T642 130Q645 130 648 130T654 129L653 117Q650 118 645
118Q639 118 637 116ZM689 101Q705 101 715 91T725 63Q725 43 716 33T689 22Q673 22 664 32T654 61Q654 81 664 91T689 101ZM705 40Q712 47 712 62Q712 90 689 90Q667 90 667 61Q667 47 673 40T689 33Q699 33 705 40ZM789 24V70Q789 90 773 90Q765 90 759 85T753
65V24H740V99H751V89Q760 101 775 101Q778 101 782 101T791 99T798 90T801 70V24H789ZM824 89H814V99H824V118L836 126V99H849V89H836V45Q836 37 838 36T843 35H849L851 24Q847 23 841 23Q830 23 827 26T824 46V89ZM963 55Q963 38 963 34T968 24H954Q952 26 952
28T951 33Q939 22 924 22Q898 22 898 44Q898 54 903 58T916 65T933 68T950 72Q950 83 946 86T932 90Q922 90 919 87T913 76L900 78Q902 91 911 96T934 101Q950 101 956 96T963 73V55ZM950 61Q944 59 938 58T925 56T915 52T911 44Q911 32 927 32Q937 32 943 37T950
57V61ZM987 31Q986 33 986 46V89H976V99H986V118L998 126V99H1011V89H998V45Q998 37 1000 36T1005 35H1011L1013 24Q1009 23 1003 23Q990 23 987 31ZM1027 38H1042V24H1027V38ZM1042 99V85H1027V99H1042ZM197 -23H211L194 -93H179L165 -41L151 -93H136L119 -23H134L144
-71L157 -23H173L186 -72L197 -23ZM288 -23H302L286 -93H271L257 -41L243 -93H228L211 -23H225L236 -71L249 -23H265L277 -72L288 -23ZM380 -23H394L377 -93H362L348 -41L335 -93H319L303 -23H317L328 -71L341 -23H357L369 -72L380 -23ZM396 -79H409V-93H396V-79ZM469
-23H490V-93H477V-38L463 -93H449L436 -38V-93H423V-23H444L456 -71L469 -23ZM539 -23L567 -93H551L545 -77H518L512 -93H497L524 -23H539ZM541 -65L531 -39L522 -65H541ZM639 -23H653L636 -93H622L607 -41L594 -93H579L562 -23H576L587 -71L600 -23H616L628 -72L639
-23ZM703 -23H716V-93H702L674 -48V-93H661V-23H674L703 -70V-23ZM773 -55Q784 -60 784 -73Q784 -82 777 -88T756 -94Q730 -94 727 -70L741 -69Q742 -82 756 -82Q764 -82 766 -79T769 -73Q769 -71 769 -69T763 -65Q743 -60 736 -56T729 -42Q729 -31 737 -27T755
-22Q769 -22 775 -28T781 -43L768 -44Q765 -34 755 -34Q743 -34 743 -41Q743 -46 754 -48T773 -55ZM795 -79H809V-93H795V-79ZM861 -79Q866 -74 867 -67L881 -72Q873 -94 851 -94Q837 -94 829 -85T820 -59Q820 -42 829 -32T852 -22Q874 -22 880 -43L867 -46Q864
-34 852 -34Q834 -34 834 -58Q834 -72 839 -77T851 -82Q856 -82 861 -79ZM923 -22Q939 -22 948 -31T957 -58Q957 -76 948 -85T924 -94Q890 -94 890 -58Q890 -37 901 -30T923 -22ZM937 -76Q943 -70 943 -58Q943 -34 924 -34Q904 -34 904 -58Q904 -82 924 -82Q932
-82 937 -76ZM1014 -23H1035V-93H1022V-38L1008 -93H995L981 -38V-93H968V-23H989L1001 -71L1014 -23ZM528 448Q528 450 528 451T527 455Q527 460 528 464T534 469Q535 469 535 469T537 468Q537 463 528 448ZM926 547Q924 545 923 544T920 540Q919 544 919 551Q920
562 924 570T936 579Q942 579 942 574Q942 568 937 561T926 547ZM478 411Q473 416 473 427Q473 430 478 442T495 455Q505 452 505 440Q505 424 497 417T484 409Q482 410 481 410T478 411ZM429 426Q428 428 427 430T426 434Q426 443 434 443Q436 443 436 441Q436
437 429 426ZM312 386Q308 379 300 373Q300 375 300 376T299 379Q299 396 305 403T318 411Q322 411 322 406Q322 397 312 386ZM711 540Q706 530 701 520T688 498Q690 526 700 548T718 570Q720 570 720 566Q720 556 711 540ZM850 502Q861 519 864 531Q866 527 868
525T871 517Q871 512 870 511Q870 509 868 503T857 496Q855 496 854 499T851 502H850ZM873 549Q871 555 871 557Q871 566 878 566Q881 566 881 564Q881 560 873 549ZM500 302Q514 302 514 286Q514 274 508 266T493 258Q487 258 483 262T478 274Q478 285 484 293T500
302ZM361 287L128 224L163 515L318 558L317 560L333 569L329 586L346 592L344 610L360 615V633L378 636L379 653L397 655L400 672H417L422 689L440 687L446 703L464 700L472 715L489 710L498 725L515 718L525 731L541 723L553 736L568 725L581 737L595 725L609
736L622 723L637 731L648 718L664 725L674 710L691 715L699 700L716 703L723 687L740 689L745 672H754L1035 748L1000 457L860 418L853 411L862 395L848 384L855 368L840 358L845 342L830 334L833 316L817 310L819 292L802 288V270L785 266L783 249L766 248L763
230H745L740 213L723 215L716 199L699 203L691 187L674 193L664 178L648 185L637 171L622 179L609 167L595 177L581 165L568 177L553 167L541 179L525 171L515 185L498 178L489 193L472 187L464 203L446 199L440 215L422 213L417 230H400L397 248L379 249L378 266L360
270L361 287ZM901 544Q901 542 901 541T900 538Q900 533 903 527T914 520Q920 520 925 522T938 530Q951 539 957 547Q960 551 961 553Q961 554 959 554Q947 542 941 537T928 531Q923 531 921 537Q934 554 938 560T945 574Q945 583 938 583Q924 583 915 569T901
544ZM802 612Q804 612 804 608Q804 601 799 584T788 548T776 508T771 475Q771 459 781 459Q790 459 797 466T811 485V482Q811 470 817 470Q825 470 833 480T849 501Q849 494 859 492Q873 492 880 504T888 522Q888 530 886 533T876 547Q878 552 881 557T884 566Q884
569 881 569Q867 569 862 561T857 547Q857 542 858 540T862 533L863 532Q860 527 856 519T846 502T836 487T826 479Q824 479 824 483Q824 491 830 513T844 559Q853 586 864 619Q862 619 860 620Q854 622 849 622Q842 622 838 621Q841 621 841 616Q841 611 839 601T833
579T826 553T819 526L812 524Q815 524 815 517Q815 511 812 503T805 486T795 471T785 465Q781 465 781 471Q781 479 787 496T800 533T814 571T821 602Q821 614 812 614Q810 614 808 614T801 612H802ZM491 248Q506 248 516 258T527 286Q527 299 520 306T501 313Q485
313 476 302T466 273Q466 263 472 256T491 248ZM594 312H582L573 269L556 312H544L530 249H543L552 291L569 249H581L594 312ZM642 259H610L621 312H608L594 249H640L642 259ZM707 312H692L674 285L662 312H648L665 273L660 249H673L678 272L707 312ZM513 433Q513
428 514 419T523 410Q528 410 531 415Q544 427 546 439T554 452Q554 452 554 447T554 436T557 425T564 420Q571 420 579 428T592 443Q592 430 601 430Q608 430 618 440T629 456Q629 452 632 446T641 440Q646 440 656 449T670 465Q672 450 680 450Q686 450 691 454T701
463T709 472T714 478V480H711Q704 469 700 467T693 464Q688 464 686 477Q686 480 686 483T687 491Q702 515 713 537T725 570Q725 575 721 575Q717 575 709 569T692 549T677 518T670 474V469V468L665 463Q663 460 660 457T653 453Q648 453 646 460Q645 466 644 471Q643
476 642 479T640 483Q638 483 637 480Q628 462 626 456T615 446Q607 446 607 454Q607 463 611 470T620 483T630 490T638 493Q642 493 642 493T644 492Q644 493 645 493Q645 493 646 494Q646 496 640 496Q626 496 612 481T592 448L588 443Q586 441 583 438T576 434Q573
434 573 437T571 445Q571 448 571 454T571 465T569 475T566 480Q564 480 561 475Q560 473 557 467T550 453T543 438T537 429Q535 429 533 433T529 445Q532 451 535 457T539 468Q539 471 535 471Q527 471 521 463T513 443V433ZM457 421Q456 419 456 414Q456 409
459 403T470 397Q483 397 495 410T508 441Q508 450 504 454T494 458Q484 458 472 448T457 421ZM237 378Q269 386 285 408T302 450Q302 462 295 470T273 478Q270 478 267 478T260 477Q223 469 207 449T190 414Q190 397 205 397Q208 397 216 399Q210 399 210 414Q210
429 220 448T259 473H264Q273 473 277 467T281 450Q281 431 270 410T239 382Q245 400 251 416T261 444L257 448Q255 450 253 451T245 453Q240 453 238 452Q240 452 240 447Q240 439 236 423T225 388T215 353T210 324Q210 312 217 312H220Q219 312 219 315Q219 322
224 339T237 378ZM359 416Q360 416 362 416T366 417Q368 417 369 417T371 411Q370 408 370 402Q370 391 371 383T381 374Q391 374 401 386T415 402L420 408Q426 402 426 395V388Q426 384 424 380Q420 373 413 373Q410 373 409 376T407 379Q405 379 405 378Q405
375 408 372T416 369Q422 369 427 372T436 381T442 391T444 399Q444 403 443 408T431 424Q435 429 437 435T440 443Q440 446 437 446Q423 446 418 438T413 424Q413 419 414 417T418 410L413 403H412L408 397Q406 394 402 390T393 386Q390 386 389 391T387 403V412Q387
420 387 423T384 426Q382 426 374 425T362 424Q363 425 363 428Q363 432 360 432Q350 432 350 421Q350 417 352 417T357 417Q357 416 357 416T356 413Q339 381 327 373T309 364Q304 364 301 370Q309 380 317 389T326 408Q326 410 325 412T318 415Q310 415 303 410T291
398T284 383T281 371Q281 363 284 358T295 352Q307 352 318 362T336 379Q338 379 341 384T348 395T355 408T359 416Z" />
<glyph unicode="$" glyph-name="dollar" horiz-adv-x="1158" d="M167 77H211V38Q189 22 167 22Q142 22 128 37T114 75Q114 101 128 115T167 130Q186 130 195 122T209 99L197 95Q191 118 167 118Q147 118 138 106T128 76Q128 55 139 45T167 34Q176 34 184 37T197
45V64H167V77ZM295 58H238Q241 33 261 33Q276 33 281 48L295 46Q287 22 261 22Q244 22 235 32T225 61Q225 80 234 90T261 101Q275 101 285 91T295 61V58ZM281 69Q280 80 275 85T261 91Q252 91 246 85T239 69H281ZM314 31Q313 33 313 46V89H304V99H313V118L326 126V99H338V89H326V45Q326
37 327 36T333 35H338L341 24Q337 23 331 23Q323 23 320 25T314 31ZM407 99H422V89H407V24H395V89H383V99H395V107Q395 118 399 124T416 130Q418 130 421 130T427 129L426 117Q423 118 418 118Q407 118 407 106V99ZM480 99H493V24H481V35Q474 22 457 22Q444 22
438 28T432 52V99H445V57Q445 43 448 38T460 33Q480 33 480 59V99ZM513 128H526V24H513V128ZM545 128H558V24H545V128ZM637 116Q634 113 634 106V99H649V89H634V24H622V89H610V99H622V107Q622 118 626 124T642 130Q645 130 648 130T654 129L653 117Q650 118 645
118Q639 118 637 116ZM689 101Q705 101 715 91T725 63Q725 43 716 33T689 22Q673 22 664 32T654 61Q654 81 664 91T689 101ZM705 40Q712 47 712 62Q712 90 689 90Q667 90 667 61Q667 47 673 40T689 33Q699 33 705 40ZM789 24V70Q789 90 773 90Q765 90 759 85T753
65V24H740V99H751V89Q760 101 775 101Q778 101 782 101T791 99T798 90T801 70V24H789ZM824 89H814V99H824V118L836 126V99H849V89H836V45Q836 37 838 36T843 35H849L851 24Q847 23 841 23Q830 23 827 26T824 46V89ZM963 55Q963 38 963 34T968 24H954Q952 26 952
28T951 33Q939 22 924 22Q898 22 898 44Q898 54 903 58T916 65T933 68T950 72Q950 83 946 86T932 90Q922 90 919 87T913 76L900 78Q902 91 911 96T934 101Q950 101 956 96T963 73V55ZM950 61Q944 59 938 58T925 56T915 52T911 44Q911 32 927 32Q937 32 943 37T950
57V61ZM987 31Q986 33 986 46V89H976V99H986V118L998 126V99H1011V89H998V45Q998 37 1000 36T1005 35H1011L1013 24Q1009 23 1003 23Q990 23 987 31ZM1027 38H1042V24H1027V38ZM1042 99V85H1027V99H1042ZM197 -23H211L194 -93H179L165 -41L151 -93H136L119 -23H134L144
-71L157 -23H173L186 -72L197 -23ZM288 -23H302L286 -93H271L257 -41L243 -93H228L211 -23H225L236 -71L249 -23H265L277 -72L288 -23ZM380 -23H394L377 -93H362L348 -41L335 -93H319L303 -23H317L328 -71L341 -23H357L369 -72L380 -23ZM396 -79H409V-93H396V-79ZM469
-23H490V-93H477V-38L463 -93H449L436 -38V-93H423V-23H444L456 -71L469 -23ZM539 -23L567 -93H551L545 -77H518L512 -93H497L524 -23H539ZM541 -65L531 -39L522 -65H541ZM639 -23H653L636 -93H622L607 -41L594 -93H579L562 -23H576L587 -71L600 -23H616L628 -72L639
-23ZM703 -23H716V-93H702L674 -48V-93H661V-23H674L703 -70V-23ZM773 -55Q784 -60 784 -73Q784 -82 777 -88T756 -94Q730 -94 727 -70L741 -69Q742 -82 756 -82Q764 -82 766 -79T769 -73Q769 -71 769 -69T763 -65Q743 -60 736 -56T729 -42Q729 -31 737 -27T755
-22Q769 -22 775 -28T781 -43L768 -44Q765 -34 755 -34Q743 -34 743 -41Q743 -46 754 -48T773 -55ZM795 -79H809V-93H795V-79ZM861 -79Q866 -74 867 -67L881 -72Q873 -94 851 -94Q837 -94 829 -85T820 -59Q820 -42 829 -32T852 -22Q874 -22 880 -43L867 -46Q864
-34 852 -34Q834 -34 834 -58Q834 -72 839 -77T851 -82Q856 -82 861 -79ZM923 -22Q939 -22 948 -31T957 -58Q957 -76 948 -85T924 -94Q890 -94 890 -58Q890 -37 901 -30T923 -22ZM937 -76Q943 -70 943 -58Q943 -34 924 -34Q904 -34 904 -58Q904 -82 924 -82Q932
-82 937 -76ZM1014 -23H1035V-93H1022V-38L1008 -93H995L981 -38V-93H968V-23H989L1001 -71L1014 -23ZM528 448Q528 450 528 451T527 455Q527 460 528 464T534 469Q535 469 535 469T537 468Q537 463 528 448ZM926 547Q924 545 923 544T920 540Q919 544 919 551Q920
562 924 570T936 579Q942 579 942 574Q942 568 937 561T926 547ZM478 411Q473 416 473 427Q473 430 478 442T495 455Q505 452 505 440Q505 424 497 417T484 409Q482 410 481 410T478 411ZM429 426Q428 428 427 430T426 434Q426 443 434 443Q436 443 436 441Q436
437 429 426ZM312 386Q308 379 300 373Q300 375 300 376T299 379Q299 396 305 403T318 411Q322 411 322 406Q322 397 312 386ZM711 540Q706 530 701 520T688 498Q690 526 700 548T718 570Q720 570 720 566Q720 556 711 540ZM850 502Q861 519 864 531Q866 527 868
525T871 517Q871 512 870 511Q870 509 868 503T857 496Q855 496 854 499T851 502H850ZM873 549Q871 555 871 557Q871 566 878 566Q881 566 881 564Q881 560 873 549ZM500 302Q514 302 514 286Q514 274 508 266T493 258Q487 258 483 262T478 274Q478 285 484 293T500
302ZM361 287L128 224L163 515L318 558L317 560L333 569L329 586L346 592L344 610L360 615V633L378 636L379 653L397 655L400 672H417L422 689L440 687L446 703L464 700L472 715L489 710L498 725L515 718L525 731L541 723L553 736L568 725L581 737L595 725L609
736L622 723L637 731L648 718L664 725L674 710L691 715L699 700L716 703L723 687L740 689L745 672H754L1035 748L1000 457L860 418L853 411L862 395L848 384L855 368L840 358L845 342L830 334L833 316L817 310L819 292L802 288V270L785 266L783 249L766 248L763
230H745L740 213L723 215L716 199L699 203L691 187L674 193L664 178L648 185L637 171L622 179L609 167L595 177L581 165L568 177L553 167L541 179L525 171L515 185L498 178L489 193L472 187L464 203L446 199L440 215L422 213L417 230H400L397 248L379 249L378 266L360
270L361 287ZM901 544Q901 542 901 541T900 538Q900 533 903 527T914 520Q920 520 925 522T938 530Q951 539 957 547Q960 551 961 553Q961 554 959 554Q947 542 941 537T928 531Q923 531 921 537Q934 554 938 560T945 574Q945 583 938 583Q924 583 915 569T901
544ZM802 612Q804 612 804 608Q804 601 799 584T788 548T776 508T771 475Q771 459 781 459Q790 459 797 466T811 485V482Q811 470 817 470Q825 470 833 480T849 501Q849 494 859 492Q873 492 880 504T888 522Q888 530 886 533T876 547Q878 552 881 557T884 566Q884
569 881 569Q867 569 862 561T857 547Q857 542 858 540T862 533L863 532Q860 527 856 519T846 502T836 487T826 479Q824 479 824 483Q824 491 830 513T844 559Q853 586 864 619Q862 619 860 620Q854 622 849 622Q842 622 838 621Q841 621 841 616Q841 611 839 601T833
579T826 553T819 526L812 524Q815 524 815 517Q815 511 812 503T805 486T795 471T785 465Q781 465 781 471Q781 479 787 496T800 533T814 571T821 602Q821 614 812 614Q810 614 808 614T801 612H802ZM491 248Q506 248 516 258T527 286Q527 299 520 306T501 313Q485
313 476 302T466 273Q466 263 472 256T491 248ZM594 312H582L573 269L556 312H544L530 249H543L552 291L569 249H581L594 312ZM642 259H610L621 312H608L594 249H640L642 259ZM707 312H692L674 285L662 312H648L665 273L660 249H673L678 272L707 312ZM513 433Q513
428 514 419T523 410Q528 410 531 415Q544 427 546 439T554 452Q554 452 554 447T554 436T557 425T564 420Q571 420 579 428T592 443Q592 430 601 430Q608 430 618 440T629 456Q629 452 632 446T641 440Q646 440 656 449T670 465Q672 450 680 450Q686 450 691 454T701
463T709 472T714 478V480H711Q704 469 700 467T693 464Q688 464 686 477Q686 480 686 483T687 491Q702 515 713 537T725 570Q725 575 721 575Q717 575 709 569T692 549T677 518T670 474V469V468L665 463Q663 460 660 457T653 453Q648 453 646 460Q645 466 644 471Q643
476 642 479T640 483Q638 483 637 480Q628 462 626 456T615 446Q607 446 607 454Q607 463 611 470T620 483T630 490T638 493Q642 493 642 493T644 492Q644 493 645 493Q645 493 646 494Q646 496 640 496Q626 496 612 481T592 448L588 443Q586 441 583 438T576 434Q573
434 573 437T571 445Q571 448 571 454T571 465T569 475T566 480Q564 480 561 475Q560 473 557 467T550 453T543 438T537 429Q535 429 533 433T529 445Q532 451 535 457T539 468Q539 471 535 471Q527 471 521 463T513 443V433ZM457 421Q456 419 456 414Q456 409
459 403T470 397Q483 397 495 410T508 441Q508 450 504 454T494 458Q484 458 472 448T457 421ZM237 378Q269 386 285 408T302 450Q302 462 295 470T273 478Q270 478 267 478T260 477Q223 469 207 449T190 414Q190 397 205 397Q208 397 216 399Q210 399 210 414Q210
429 220 448T259 473H264Q273 473 277 467T281 450Q281 431 270 410T239 382Q245 400 251 416T261 444L257 448Q255 450 253 451T245 453Q240 453 238 452Q240 452 240 447Q240 439 236 423T225 388T215 353T210 324Q210 312 217 312H220Q219 312 219 315Q219 322
224 339T237 378ZM359 416Q360 416 362 416T366 417Q368 417 369 417T371 411Q370 408 370 402Q370 391 371 383T381 374Q391 374 401 386T415 402L420 408Q426 402 426 395V388Q426 384 424 380Q420 373 413 373Q410 373 409 376T407 379Q405 379 405 378Q405
375 408 372T416 369Q422 369 427 372T436 381T442 391T444 399Q444 403 443 408T431 424Q435 429 437 435T440 443Q440 446 437 446Q423 446 418 438T413 424Q413 419 414 417T418 410L413 403H412L408 397Q406 394 402 390T393 386Q390 386 389 391T387 403V412Q387
420 387 423T384 426Q382 426 374 425T362 424Q363 425 363 428Q363 432 360 432Q350 432 350 421Q350 417 352 417T357 417Q357 416 357 416T356 413Q339 381 327 373T309 364Q304 364 301 370Q309 380 317 389T326 408Q326 410 325 412T318 415Q310 415 303 410T291
398T284 383T281 371Q281 363 284 358T295 352Q307 352 318 362T336 379Q338 379 341 384T348 395T355 408T359 416Z" />
<glyph unicode="%" glyph-name="percent" horiz-adv-x="1158" d="M167 77H211V38Q189 22 167 22Q142 22 128 37T114 75Q114 101 128 115T167 130Q186 130 195 122T209 99L197 95Q191 118 167 118Q147 118 138 106T128 76Q128 55 139 45T167 34Q176 34 184 37T197
45V64H167V77ZM295 58H238Q241 33 261 33Q276 33 281 48L295 46Q287 22 261 22Q244 22 235 32T225 61Q225 80 234 90T261 101Q275 101 285 91T295 61V58ZM281 69Q280 80 275 85T261 91Q252 91 246 85T239 69H281ZM314 31Q313 33 313 46V89H304V99H313V118L326 126V99H338V89H326V45Q326
37 327 36T333 35H338L341 24Q337 23 331 23Q323 23 320 25T314 31ZM407 99H422V89H407V24H395V89H383V99H395V107Q395 118 399 124T416 130Q418 130 421 130T427 129L426 117Q423 118 418 118Q407 118 407 106V99ZM480 99H493V24H481V35Q474 22 457 22Q444 22
438 28T432 52V99H445V57Q445 43 448 38T460 33Q480 33 480 59V99ZM513 128H526V24H513V128ZM545 128H558V24H545V128ZM637 116Q634 113 634 106V99H649V89H634V24H622V89H610V99H622V107Q622 118 626 124T642 130Q645 130 648 130T654 129L653 117Q650 118 645
118Q639 118 637 116ZM689 101Q705 101 715 91T725 63Q725 43 716 33T689 22Q673 22 664 32T654 61Q654 81 664 91T689 101ZM705 40Q712 47 712 62Q712 90 689 90Q667 90 667 61Q667 47 673 40T689 33Q699 33 705 40ZM789 24V70Q789 90 773 90Q765 90 759 85T753
65V24H740V99H751V89Q760 101 775 101Q778 101 782 101T791 99T798 90T801 70V24H789ZM824 89H814V99H824V118L836 126V99H849V89H836V45Q836 37 838 36T843 35H849L851 24Q847 23 841 23Q830 23 827 26T824 46V89ZM963 55Q963 38 963 34T968 24H954Q952 26 952
28T951 33Q939 22 924 22Q898 22 898 44Q898 54 903 58T916 65T933 68T950 72Q950 83 946 86T932 90Q922 90 919 87T913 76L900 78Q902 91 911 96T934 101Q950 101 956 96T963 73V55ZM950 61Q944 59 938 58T925 56T915 52T911 44Q911 32 927 32Q937 32 943 37T950
57V61ZM987 31Q986 33 986 46V89H976V99H986V118L998 126V99H1011V89H998V45Q998 37 1000 36T1005 35H1011L1013 24Q1009 23 1003 23Q990 23 987 31ZM1027 38H1042V24H1027V38ZM1042 99V85H1027V99H1042ZM197 -23H211L194 -93H179L165 -41L151 -93H136L119 -23H134L144
-71L157 -23H173L186 -72L197 -23ZM288 -23H302L286 -93H271L257 -41L243 -93H228L211 -23H225L236 -71L249 -23H265L277 -72L288 -23ZM380 -23H394L377 -93H362L348 -41L335 -93H319L303 -23H317L328 -71L341 -23H357L369 -72L380 -23ZM396 -79H409V-93H396V-79ZM469
-23H490V-93H477V-38L463 -93H449L436 -38V-93H423V-23H444L456 -71L469 -23ZM539 -23L567 -93H551L545 -77H518L512 -93H497L524 -23H539ZM541 -65L531 -39L522 -65H541ZM639 -23H653L636 -93H622L607 -41L594 -93H579L562 -23H576L587 -71L600 -23H616L628 -72L639
-23ZM703 -23H716V-93H702L674 -48V-93H661V-23H674L703 -70V-23ZM773 -55Q784 -60 784 -73Q784 -82 777 -88T756 -94Q730 -94 727 -70L741 -69Q742 -82 756 -82Q764 -82 766 -79T769 -73Q769 -71 769 -69T763 -65Q743 -60 736 -56T729 -42Q729 -31 737 -27T755
-22Q769 -22 775 -28T781 -43L768 -44Q765 -34 755 -34Q743 -34 743 -41Q743 -46 754 -48T773 -55ZM795 -79H809V-93H795V-79ZM861 -79Q866 -74 867 -67L881 -72Q873 -94 851 -94Q837 -94 829 -85T820 -59Q820 -42 829 -32T852 -22Q874 -22 880 -43L867 -46Q864
-34 852 -34Q834 -34 834 -58Q834 -72 839 -77T851 -82Q856 -82 861 -79ZM923 -22Q939 -22 948 -31T957 -58Q957 -76 948 -85T924 -94Q890 -94 890 -58Q890 -37 901 -30T923 -22ZM937 -76Q943 -70 943 -58Q943 -34 924 -34Q904 -34 904 -58Q904 -82 924 -82Q932
-82 937 -76ZM1014 -23H1035V-93H1022V-38L1008 -93H995L981 -38V-93H968V-23H989L1001 -71L1014 -23ZM528 448Q528 450 528 451T527 455Q527 460 528 464T534 469Q535 469 535 469T537 468Q537 463 528 448ZM926 547Q924 545 923 544T920 540Q919 544 919 551Q920
562 924 570T936 579Q942 579 942 574Q942 568 937 561T926 547ZM478 411Q473 416 473 427Q473 430 478 442T495 455Q505 452 505 440Q505 424 497 417T484 409Q482 410 481 410T478 411ZM429 426Q428 428 427 430T426 434Q426 443 434 443Q436 443 436 441Q436
437 429 426ZM312 386Q308 379 300 373Q300 375 300 376T299 379Q299 396 305 403T318 411Q322 411 322 406Q322 397 312 386ZM711 540Q706 530 701 520T688 498Q690 526 700 548T718 570Q720 570 720 566Q720 556 711 540ZM850 502Q861 519 864 531Q866 527 868
525T871 517Q871 512 870 511Q870 509 868 503T857 496Q855 496 854 499T851 502H850ZM873 549Q871 555 871 557Q871 566 878 566Q881 566 881 564Q881 560 873 549ZM500 302Q514 302 514 286Q514 274 508 266T493 258Q487 258 483 262T478 274Q478 285 484 293T500
302ZM361 287L128 224L163 515L318 558L317 560L333 569L329 586L346 592L344 610L360 615V633L378 636L379 653L397 655L400 672H417L422 689L440 687L446 703L464 700L472 715L489 710L498 725L515 718L525 731L541 723L553 736L568 725L581 737L595 725L609
736L622 723L637 731L648 718L664 725L674 710L691 715L699 700L716 703L723 687L740 689L745 672H754L1035 748L1000 457L860 418L853 411L862 395L848 384L855 368L840 358L845 342L830 334L833 316L817 310L819 292L802 288V270L785 266L783 249L766 248L763
230H745L740 213L723 215L716 199L699 203L691 187L674 193L664 178L648 185L637 171L622 179L609 167L595 177L581 165L568 177L553 167L541 179L525 171L515 185L498 178L489 193L472 187L464 203L446 199L440 215L422 213L417 230H400L397 248L379 249L378 266L360
270L361 287ZM901 544Q901 542 901 541T900 538Q900 533 903 527T914 520Q920 520 925 522T938 530Q951 539 957 547Q960 551 961 553Q961 554 959 554Q947 542 941 537T928 531Q923 531 921 537Q934 554 938 560T945 574Q945 583 938 583Q924 583 915 569T901
544ZM802 612Q804 612 804 608Q804 601 799 584T788 548T776 508T771 475Q771 459 781 459Q790 459 797 466T811 485V482Q811 470 817 470Q825 470 833 480T849 501Q849 494 859 492Q873 492 880 504T888 522Q888 530 886 533T876 547Q878 552 881 557T884 566Q884
569 881 569Q867 569 862 561T857 547Q857 542 858 540T862 533L863 532Q860 527 856 519T846 502T836 487T826 479Q824 479 824 483Q824 491 830 513T844 559Q853 586 864 619Q862 619 860 620Q854 622 849 622Q842 622 838 621Q841 621 841 616Q841 611 839 601T833
579T826 553T819 526L812 524Q815 524 815 517Q815 511 812 503T805 486T795 471T785 465Q781 465 781 471Q781 479 787 496T800 533T814 571T821 602Q821 614 812 614Q810 614 808 614T801 612H802ZM491 248Q506 248 516 258T527 286Q527 299 520 306T501 313Q485
313 476 302T466 273Q466 263 472 256T491 248ZM594 312H582L573 269L556 312H544L530 249H543L552 291L569 249H581L594 312ZM642 259H610L621 312H608L594 249H640L642 259ZM707 312H692L674 285L662 312H648L665 273L660 249H673L678 272L707 312ZM513 433Q513
428 514 419T523 410Q528 410 531 415Q544 427 546 439T554 452Q554 452 554 447T554 436T557 425T564 420Q571 420 579 428T592 443Q592 430 601 430Q608 430 618 440T629 456Q629 452 632 446T641 440Q646 440 656 449T670 465Q672 450 680 450Q686 450 691 454T701
463T709 472T714 478V480H711Q704 469 700 467T693 464Q688 464 686 477Q686 480 686 483T687 491Q702 515 713 537T725 570Q725 575 721 575Q717 575 709 569T692 549T677 518T670 474V469V468L665 463Q663 460 660 457T653 453Q648 453 646 460Q645 466 644 471Q643
476 642 479T640 483Q638 483 637 480Q628 462 626 456T615 446Q607 446 607 454Q607 463 611 470T620 483T630 490T638 493Q642 493 642 493T644 492Q644 493 645 493Q645 493 646 494Q646 496 640 496Q626 496 612 481T592 448L588 443Q586 441 583 438T576 434Q573
434 573 437T571 445Q571 448 571 454T571 465T569 475T566 480Q564 480 561 475Q560 473 557 467T550 453T543 438T537 429Q535 429 533 433T529 445Q532 451 535 457T539 468Q539 471 535 471Q527 471 521 463T513 443V433ZM457 421Q456 419 456 414Q456 409
459 403T470 397Q483 397 495 410T508 441Q508 450 504 454T494 458Q484 458 472 448T457 421ZM237 378Q269 386 285 408T302 450Q302 462 295 470T273 478Q270 478 267 478T260 477Q223 469 207 449T190 414Q190 397 205 397Q208 397 216 399Q210 399 210 414Q210
429 220 448T259 473H264Q273 473 277 467T281 450Q281 431 270 410T239 382Q245 400 251 416T261 444L257 448Q255 450 253 451T245 453Q240 453 238 452Q240 452 240 447Q240 439 236 423T225 388T215 353T210 324Q210 312 217 312H220Q219 312 219 315Q219 322
224 339T237 378ZM359 416Q360 416 362 416T366 417Q368 417 369 417T371 411Q370 408 370 402Q370 391 371 383T381 374Q391 374 401 386T415 402L420 408Q426 402 426 395V388Q426 384 424 380Q420 373 413 373Q410 373 409 376T407 379Q405 379 405 378Q405
375 408 372T416 369Q422 369 427 372T436 381T442 391T444 399Q444 403 443 408T431 424Q435 429 437 435T440 443Q440 446 437 446Q423 446 418 438T413 424Q413 419 414 417T418 410L413 403H412L408 397Q406 394 402 390T393 386Q390 386 389 391T387 403V412Q387
420 387 423T384 426Q382 426 374 425T362 424Q363 425 363 428Q363 432 360 432Q350 432 350 421Q350 417 352 417T357 417Q357 416 357 416T356 413Q339 381 327 373T309 364Q304 364 301 370Q309 380 317 389T326 408Q326 410 325 412T318 415Q310 415 303 410T291
398T284 383T281 371Q281 363 284 358T295 352Q307 352 318 362T336 379Q338 379 341 384T348 395T355 408T359 416Z" />
<glyph unicode="&amp;" glyph-name="ampersand" horiz-adv-x="500" d="M607 379Q590 350 571 333T530 306T485 293T437 291Q391 216 367 170T331 100Q316 71 312 52T319 33Q337 33 359 49T404 91T444 147T474 204T485 250T470 274H559Q519 197 474 136Q455 110
433 86T386 42T336 11T284 -1Q260 -1 254 12T252 49Q228 26 200 13T138 0Q104 0 73 15T23 60T1 130T21 222Q46 277 82 307T152 351Q191 368 232 370Q227 374 214 390T190 434T179 498T200 580Q224 632 263 665T345 711T429 718T500 681Q523 707 550 717T612 710Q601
710 588 687T556 630T515 556T465 485T404 433T331 419Q351 420 369 447T405 511T444 591T488 665Q470 674 445 670T395 647T345 599T304 528Q284 480 283 444T288 384Q296 356 313 337Q282 335 250 320Q223 307 193 280T137 204Q95 121 101 73T155 25Q190 25 220
54T273 123Q278 137 284 152T299 186Q310 222 308 249T287 282H351L360 297Q323 301 291 299T232 277Q248 298 280 310T350 331T430 343T507 351T570 362T607 379Z" />
<glyph unicode="&apos;" glyph-name="quotesingle" horiz-adv-x="20" d="M183 705Q197 705 212 701T238 688T251 664T242 628T201 579T120 513Q106 510 98 519Q103 529 110 541T123 564Q130 576 137 589Q128 597 130 613Q132 627 142 649T183 705Z" />
<glyph unicode="(" glyph-name="parenleft" horiz-adv-x="1158" d="M167 77H211V38Q189 22 167 22Q142 22 128 37T114 75Q114 101 128 115T167 130Q186 130 195 122T209 99L197 95Q191 118 167 118Q147 118 138 106T128 76Q128 55 139 45T167 34Q176 34 184 37T197
45V64H167V77ZM295 58H238Q241 33 261 33Q276 33 281 48L295 46Q287 22 261 22Q244 22 235 32T225 61Q225 80 234 90T261 101Q275 101 285 91T295 61V58ZM281 69Q280 80 275 85T261 91Q252 91 246 85T239 69H281ZM314 31Q313 33 313 46V89H304V99H313V118L326 126V99H338V89H326V45Q326
37 327 36T333 35H338L341 24Q337 23 331 23Q323 23 320 25T314 31ZM407 99H422V89H407V24H395V89H383V99H395V107Q395 118 399 124T416 130Q418 130 421 130T427 129L426 117Q423 118 418 118Q407 118 407 106V99ZM480 99H493V24H481V35Q474 22 457 22Q444 22
438 28T432 52V99H445V57Q445 43 448 38T460 33Q480 33 480 59V99ZM513 128H526V24H513V128ZM545 128H558V24H545V128ZM637 116Q634 113 634 106V99H649V89H634V24H622V89H610V99H622V107Q622 118 626 124T642 130Q645 130 648 130T654 129L653 117Q650 118 645
118Q639 118 637 116ZM689 101Q705 101 715 91T725 63Q725 43 716 33T689 22Q673 22 664 32T654 61Q654 81 664 91T689 101ZM705 40Q712 47 712 62Q712 90 689 90Q667 90 667 61Q667 47 673 40T689 33Q699 33 705 40ZM789 24V70Q789 90 773 90Q765 90 759 85T753
65V24H740V99H751V89Q760 101 775 101Q778 101 782 101T791 99T798 90T801 70V24H789ZM824 89H814V99H824V118L836 126V99H849V89H836V45Q836 37 838 36T843 35H849L851 24Q847 23 841 23Q830 23 827 26T824 46V89ZM963 55Q963 38 963 34T968 24H954Q952 26 952
28T951 33Q939 22 924 22Q898 22 898 44Q898 54 903 58T916 65T933 68T950 72Q950 83 946 86T932 90Q922 90 919 87T913 76L900 78Q902 91 911 96T934 101Q950 101 956 96T963 73V55ZM950 61Q944 59 938 58T925 56T915 52T911 44Q911 32 927 32Q937 32 943 37T950
57V61ZM987 31Q986 33 986 46V89H976V99H986V118L998 126V99H1011V89H998V45Q998 37 1000 36T1005 35H1011L1013 24Q1009 23 1003 23Q990 23 987 31ZM1027 38H1042V24H1027V38ZM1042 99V85H1027V99H1042ZM197 -23H211L194 -93H179L165 -41L151 -93H136L119 -23H134L144
-71L157 -23H173L186 -72L197 -23ZM288 -23H302L286 -93H271L257 -41L243 -93H228L211 -23H225L236 -71L249 -23H265L277 -72L288 -23ZM380 -23H394L377 -93H362L348 -41L335 -93H319L303 -23H317L328 -71L341 -23H357L369 -72L380 -23ZM396 -79H409V-93H396V-79ZM469
-23H490V-93H477V-38L463 -93H449L436 -38V-93H423V-23H444L456 -71L469 -23ZM539 -23L567 -93H551L545 -77H518L512 -93H497L524 -23H539ZM541 -65L531 -39L522 -65H541ZM639 -23H653L636 -93H622L607 -41L594 -93H579L562 -23H576L587 -71L600 -23H616L628 -72L639
-23ZM703 -23H716V-93H702L674 -48V-93H661V-23H674L703 -70V-23ZM773 -55Q784 -60 784 -73Q784 -82 777 -88T756 -94Q730 -94 727 -70L741 -69Q742 -82 756 -82Q764 -82 766 -79T769 -73Q769 -71 769 -69T763 -65Q743 -60 736 -56T729 -42Q729 -31 737 -27T755
-22Q769 -22 775 -28T781 -43L768 -44Q765 -34 755 -34Q743 -34 743 -41Q743 -46 754 -48T773 -55ZM795 -79H809V-93H795V-79ZM861 -79Q866 -74 867 -67L881 -72Q873 -94 851 -94Q837 -94 829 -85T820 -59Q820 -42 829 -32T852 -22Q874 -22 880 -43L867 -46Q864
-34 852 -34Q834 -34 834 -58Q834 -72 839 -77T851 -82Q856 -82 861 -79ZM923 -22Q939 -22 948 -31T957 -58Q957 -76 948 -85T924 -94Q890 -94 890 -58Q890 -37 901 -30T923 -22ZM937 -76Q943 -70 943 -58Q943 -34 924 -34Q904 -34 904 -58Q904 -82 924 -82Q932
-82 937 -76ZM1014 -23H1035V-93H1022V-38L1008 -93H995L981 -38V-93H968V-23H989L1001 -71L1014 -23ZM528 448Q528 450 528 451T527 455Q527 460 528 464T534 469Q535 469 535 469T537 468Q537 463 528 448ZM926 547Q924 545 923 544T920 540Q919 544 919 551Q920
562 924 570T936 579Q942 579 942 574Q942 568 937 561T926 547ZM478 411Q473 416 473 427Q473 430 478 442T495 455Q505 452 505 440Q505 424 497 417T484 409Q482 410 481 410T478 411ZM429 426Q428 428 427 430T426 434Q426 443 434 443Q436 443 436 441Q436
437 429 426ZM312 386Q308 379 300 373Q300 375 300 376T299 379Q299 396 305 403T318 411Q322 411 322 406Q322 397 312 386ZM711 540Q706 530 701 520T688 498Q690 526 700 548T718 570Q720 570 720 566Q720 556 711 540ZM850 502Q861 519 864 531Q866 527 868
525T871 517Q871 512 870 511Q870 509 868 503T857 496Q855 496 854 499T851 502H850ZM873 549Q871 555 871 557Q871 566 878 566Q881 566 881 564Q881 560 873 549ZM500 302Q514 302 514 286Q514 274 508 266T493 258Q487 258 483 262T478 274Q478 285 484 293T500
302ZM361 287L128 224L163 515L318 558L317 560L333 569L329 586L346 592L344 610L360 615V633L378 636L379 653L397 655L400 672H417L422 689L440 687L446 703L464 700L472 715L489 710L498 725L515 718L525 731L541 723L553 736L568 725L581 737L595 725L609
736L622 723L637 731L648 718L664 725L674 710L691 715L699 700L716 703L723 687L740 689L745 672H754L1035 748L1000 457L860 418L853 411L862 395L848 384L855 368L840 358L845 342L830 334L833 316L817 310L819 292L802 288V270L785 266L783 249L766 248L763
230H745L740 213L723 215L716 199L699 203L691 187L674 193L664 178L648 185L637 171L622 179L609 167L595 177L581 165L568 177L553 167L541 179L525 171L515 185L498 178L489 193L472 187L464 203L446 199L440 215L422 213L417 230H400L397 248L379 249L378 266L360
270L361 287ZM901 544Q901 542 901 541T900 538Q900 533 903 527T914 520Q920 520 925 522T938 530Q951 539 957 547Q960 551 961 553Q961 554 959 554Q947 542 941 537T928 531Q923 531 921 537Q934 554 938 560T945 574Q945 583 938 583Q924 583 915 569T901
544ZM802 612Q804 612 804 608Q804 601 799 584T788 548T776 508T771 475Q771 459 781 459Q790 459 797 466T811 485V482Q811 470 817 470Q825 470 833 480T849 501Q849 494 859 492Q873 492 880 504T888 522Q888 530 886 533T876 547Q878 552 881 557T884 566Q884
569 881 569Q867 569 862 561T857 547Q857 542 858 540T862 533L863 532Q860 527 856 519T846 502T836 487T826 479Q824 479 824 483Q824 491 830 513T844 559Q853 586 864 619Q862 619 860 620Q854 622 849 622Q842 622 838 621Q841 621 841 616Q841 611 839 601T833
579T826 553T819 526L812 524Q815 524 815 517Q815 511 812 503T805 486T795 471T785 465Q781 465 781 471Q781 479 787 496T800 533T814 571T821 602Q821 614 812 614Q810 614 808 614T801 612H802ZM491 248Q506 248 516 258T527 286Q527 299 520 306T501 313Q485
313 476 302T466 273Q466 263 472 256T491 248ZM594 312H582L573 269L556 312H544L530 249H543L552 291L569 249H581L594 312ZM642 259H610L621 312H608L594 249H640L642 259ZM707 312H692L674 285L662 312H648L665 273L660 249H673L678 272L707 312ZM513 433Q513
428 514 419T523 410Q528 410 531 415Q544 427 546 439T554 452Q554 452 554 447T554 436T557 425T564 420Q571 420 579 428T592 443Q592 430 601 430Q608 430 618 440T629 456Q629 452 632 446T641 440Q646 440 656 449T670 465Q672 450 680 450Q686 450 691 454T701
463T709 472T714 478V480H711Q704 469 700 467T693 464Q688 464 686 477Q686 480 686 483T687 491Q702 515 713 537T725 570Q725 575 721 575Q717 575 709 569T692 549T677 518T670 474V469V468L665 463Q663 460 660 457T653 453Q648 453 646 460Q645 466 644 471Q643
476 642 479T640 483Q638 483 637 480Q628 462 626 456T615 446Q607 446 607 454Q607 463 611 470T620 483T630 490T638 493Q642 493 642 493T644 492Q644 493 645 493Q645 493 646 494Q646 496 640 496Q626 496 612 481T592 448L588 443Q586 441 583 438T576 434Q573
434 573 437T571 445Q571 448 571 454T571 465T569 475T566 480Q564 480 561 475Q560 473 557 467T550 453T543 438T537 429Q535 429 533 433T529 445Q532 451 535 457T539 468Q539 471 535 471Q527 471 521 463T513 443V433ZM457 421Q456 419 456 414Q456 409
459 403T470 397Q483 397 495 410T508 441Q508 450 504 454T494 458Q484 458 472 448T457 421ZM237 378Q269 386 285 408T302 450Q302 462 295 470T273 478Q270 478 267 478T260 477Q223 469 207 449T190 414Q190 397 205 397Q208 397 216 399Q210 399 210 414Q210
429 220 448T259 473H264Q273 473 277 467T281 450Q281 431 270 410T239 382Q245 400 251 416T261 444L257 448Q255 450 253 451T245 453Q240 453 238 452Q240 452 240 447Q240 439 236 423T225 388T215 353T210 324Q210 312 217 312H220Q219 312 219 315Q219 322
224 339T237 378ZM359 416Q360 416 362 416T366 417Q368 417 369 417T371 411Q370 408 370 402Q370 391 371 383T381 374Q391 374 401 386T415 402L420 408Q426 402 426 395V388Q426 384 424 380Q420 373 413 373Q410 373 409 376T407 379Q405 379 405 378Q405
375 408 372T416 369Q422 369 427 372T436 381T442 391T444 399Q444 403 443 408T431 424Q435 429 437 435T440 443Q440 446 437 446Q423 446 418 438T413 424Q413 419 414 417T418 410L413 403H412L408 397Q406 394 402 390T393 386Q390 386 389 391T387 403V412Q387
420 387 423T384 426Q382 426 374 425T362 424Q363 425 363 428Q363 432 360 432Q350 432 350 421Q350 417 352 417T357 417Q357 416 357 416T356 413Q339 381 327 373T309 364Q304 364 301 370Q309 380 317 389T326 408Q326 410 325 412T318 415Q310 415 303 410T291
398T284 383T281 371Q281 363 284 358T295 352Q307 352 318 362T336 379Q338 379 341 384T348 395T355 408T359 416Z" />
<glyph unicode=")" glyph-name="parenright" horiz-adv-x="1158" d="M167 77H211V38Q189 22 167 22Q142 22 128 37T114 75Q114 101 128 115T167 130Q186 130 195 122T209 99L197 95Q191 118 167 118Q147 118 138 106T128 76Q128 55 139 45T167 34Q176 34 184 37T197
45V64H167V77ZM295 58H238Q241 33 261 33Q276 33 281 48L295 46Q287 22 261 22Q244 22 235 32T225 61Q225 80 234 90T261 101Q275 101 285 91T295 61V58ZM281 69Q280 80 275 85T261 91Q252 91 246 85T239 69H281ZM314 31Q313 33 313 46V89H304V99H313V118L326 126V99H338V89H326V45Q326
37 327 36T333 35H338L341 24Q337 23 331 23Q323 23 320 25T314 31ZM407 99H422V89H407V24H395V89H383V99H395V107Q395 118 399 124T416 130Q418 130 421 130T427 129L426 117Q423 118 418 118Q407 118 407 106V99ZM480 99H493V24H481V35Q474 22 457 22Q444 22
438 28T432 52V99H445V57Q445 43 448 38T460 33Q480 33 480 59V99ZM513 128H526V24H513V128ZM545 128H558V24H545V128ZM637 116Q634 113 634 106V99H649V89H634V24H622V89H610V99H622V107Q622 118 626 124T642 130Q645 130 648 130T654 129L653 117Q650 118 645
118Q639 118 637 116ZM689 101Q705 101 715 91T725 63Q725 43 716 33T689 22Q673 22 664 32T654 61Q654 81 664 91T689 101ZM705 40Q712 47 712 62Q712 90 689 90Q667 90 667 61Q667 47 673 40T689 33Q699 33 705 40ZM789 24V70Q789 90 773 90Q765 90 759 85T753
65V24H740V99H751V89Q760 101 775 101Q778 101 782 101T791 99T798 90T801 70V24H789ZM824 89H814V99H824V118L836 126V99H849V89H836V45Q836 37 838 36T843 35H849L851 24Q847 23 841 23Q830 23 827 26T824 46V89ZM963 55Q963 38 963 34T968 24H954Q952 26 952
28T951 33Q939 22 924 22Q898 22 898 44Q898 54 903 58T916 65T933 68T950 72Q950 83 946 86T932 90Q922 90 919 87T913 76L900 78Q902 91 911 96T934 101Q950 101 956 96T963 73V55ZM950 61Q944 59 938 58T925 56T915 52T911 44Q911 32 927 32Q937 32 943 37T950
57V61ZM987 31Q986 33 986 46V89H976V99H986V118L998 126V99H1011V89H998V45Q998 37 1000 36T1005 35H1011L1013 24Q1009 23 1003 23Q990 23 987 31ZM1027 38H1042V24H1027V38ZM1042 99V85H1027V99H1042ZM197 -23H211L194 -93H179L165 -41L151 -93H136L119 -23H134L144
-71L157 -23H173L186 -72L197 -23ZM288 -23H302L286 -93H271L257 -41L243 -93H228L211 -23H225L236 -71L249 -23H265L277 -72L288 -23ZM380 -23H394L377 -93H362L348 -41L335 -93H319L303 -23H317L328 -71L341 -23H357L369 -72L380 -23ZM396 -79H409V-93H396V-79ZM469
-23H490V-93H477V-38L463 -93H449L436 -38V-93H423V-23H444L456 -71L469 -23ZM539 -23L567 -93H551L545 -77H518L512 -93H497L524 -23H539ZM541 -65L531 -39L522 -65H541ZM639 -23H653L636 -93H622L607 -41L594 -93H579L562 -23H576L587 -71L600 -23H616L628 -72L639
-23ZM703 -23H716V-93H702L674 -48V-93H661V-23H674L703 -70V-23ZM773 -55Q784 -60 784 -73Q784 -82 777 -88T756 -94Q730 -94 727 -70L741 -69Q742 -82 756 -82Q764 -82 766 -79T769 -73Q769 -71 769 -69T763 -65Q743 -60 736 -56T729 -42Q729 -31 737 -27T755
-22Q769 -22 775 -28T781 -43L768 -44Q765 -34 755 -34Q743 -34 743 -41Q743 -46 754 -48T773 -55ZM795 -79H809V-93H795V-79ZM861 -79Q866 -74 867 -67L881 -72Q873 -94 851 -94Q837 -94 829 -85T820 -59Q820 -42 829 -32T852 -22Q874 -22 880 -43L867 -46Q864
-34 852 -34Q834 -34 834 -58Q834 -72 839 -77T851 -82Q856 -82 861 -79ZM923 -22Q939 -22 948 -31T957 -58Q957 -76 948 -85T924 -94Q890 -94 890 -58Q890 -37 901 -30T923 -22ZM937 -76Q943 -70 943 -58Q943 -34 924 -34Q904 -34 904 -58Q904 -82 924 -82Q932
-82 937 -76ZM1014 -23H1035V-93H1022V-38L1008 -93H995L981 -38V-93H968V-23H989L1001 -71L1014 -23ZM528 448Q528 450 528 451T527 455Q527 460 528 464T534 469Q535 469 535 469T537 468Q537 463 528 448ZM926 547Q924 545 923 544T920 540Q919 544 919 551Q920
562 924 570T936 579Q942 579 942 574Q942 568 937 561T926 547ZM478 411Q473 416 473 427Q473 430 478 442T495 455Q505 452 505 440Q505 424 497 417T484 409Q482 410 481 410T478 411ZM429 426Q428 428 427 430T426 434Q426 443 434 443Q436 443 436 441Q436
437 429 426ZM312 386Q308 379 300 373Q300 375 300 376T299 379Q299 396 305 403T318 411Q322 411 322 406Q322 397 312 386ZM711 540Q706 530 701 520T688 498Q690 526 700 548T718 570Q720 570 720 566Q720 556 711 540ZM850 502Q861 519 864 531Q866 527 868
525T871 517Q871 512 870 511Q870 509 868 503T857 496Q855 496 854 499T851 502H850ZM873 549Q871 555 871 557Q871 566 878 566Q881 566 881 564Q881 560 873 549ZM500 302Q514 302 514 286Q514 274 508 266T493 258Q487 258 483 262T478 274Q478 285 484 293T500
302ZM361 287L128 224L163 515L318 558L317 560L333 569L329 586L346 592L344 610L360 615V633L378 636L379 653L397 655L400 672H417L422 689L440 687L446 703L464 700L472 715L489 710L498 725L515 718L525 731L541 723L553 736L568 725L581 737L595 725L609
736L622 723L637 731L648 718L664 725L674 710L691 715L699 700L716 703L723 687L740 689L745 672H754L1035 748L1000 457L860 418L853 411L862 395L848 384L855 368L840 358L845 342L830 334L833 316L817 310L819 292L802 288V270L785 266L783 249L766 248L763
230H745L740 213L723 215L716 199L699 203L691 187L674 193L664 178L648 185L637 171L622 179L609 167L595 177L581 165L568 177L553 167L541 179L525 171L515 185L498 178L489 193L472 187L464 203L446 199L440 215L422 213L417 230H400L397 248L379 249L378 266L360
270L361 287ZM901 544Q901 542 901 541T900 538Q900 533 903 527T914 520Q920 520 925 522T938 530Q951 539 957 547Q960 551 961 553Q961 554 959 554Q947 542 941 537T928 531Q923 531 921 537Q934 554 938 560T945 574Q945 583 938 583Q924 583 915 569T901
544ZM802 612Q804 612 804 608Q804 601 799 584T788 548T776 508T771 475Q771 459 781 459Q790 459 797 466T811 485V482Q811 470 817 470Q825 470 833 480T849 501Q849 494 859 492Q873 492 880 504T888 522Q888 530 886 533T876 547Q878 552 881 557T884 566Q884
569 881 569Q867 569 862 561T857 547Q857 542 858 540T862 533L863 532Q860 527 856 519T846 502T836 487T826 479Q824 479 824 483Q824 491 830 513T844 559Q853 586 864 619Q862 619 860 620Q854 622 849 622Q842 622 838 621Q841 621 841 616Q841 611 839 601T833
579T826 553T819 526L812 524Q815 524 815 517Q815 511 812 503T805 486T795 471T785 465Q781 465 781 471Q781 479 787 496T800 533T814 571T821 602Q821 614 812 614Q810 614 808 614T801 612H802ZM491 248Q506 248 516 258T527 286Q527 299 520 306T501 313Q485
313 476 302T466 273Q466 263 472 256T491 248ZM594 312H582L573 269L556 312H544L530 249H543L552 291L569 249H581L594 312ZM642 259H610L621 312H608L594 249H640L642 259ZM707 312H692L674 285L662 312H648L665 273L660 249H673L678 272L707 312ZM513 433Q513
428 514 419T523 410Q528 410 531 415Q544 427 546 439T554 452Q554 452 554 447T554 436T557 425T564 420Q571 420 579 428T592 443Q592 430 601 430Q608 430 618 440T629 456Q629 452 632 446T641 440Q646 440 656 449T670 465Q672 450 680 450Q686 450 691 454T701
463T709 472T714 478V480H711Q704 469 700 467T693 464Q688 464 686 477Q686 480 686 483T687 491Q702 515 713 537T725 570Q725 575 721 575Q717 575 709 569T692 549T677 518T670 474V469V468L665 463Q663 460 660 457T653 453Q648 453 646 460Q645 466 644 471Q643
476 642 479T640 483Q638 483 637 480Q628 462 626 456T615 446Q607 446 607 454Q607 463 611 470T620 483T630 490T638 493Q642 493 642 493T644 492Q644 493 645 493Q645 493 646 494Q646 496 640 496Q626 496 612 481T592 448L588 443Q586 441 583 438T576 434Q573
434 573 437T571 445Q571 448 571 454T571 465T569 475T566 480Q564 480 561 475Q560 473 557 467T550 453T543 438T537 429Q535 429 533 433T529 445Q532 451 535 457T539 468Q539 471 535 471Q527 471 521 463T513 443V433ZM457 421Q456 419 456 414Q456 409
459 403T470 397Q483 397 495 410T508 441Q508 450 504 454T494 458Q484 458 472 448T457 421ZM237 378Q269 386 285 408T302 450Q302 462 295 470T273 478Q270 478 267 478T260 477Q223 469 207 449T190 414Q190 397 205 397Q208 397 216 399Q210 399 210 414Q210
429 220 448T259 473H264Q273 473 277 467T281 450Q281 431 270 410T239 382Q245 400 251 416T261 444L257 448Q255 450 253 451T245 453Q240 453 238 452Q240 452 240 447Q240 439 236 423T225 388T215 353T210 324Q210 312 217 312H220Q219 312 219 315Q219 322
224 339T237 378ZM359 416Q360 416 362 416T366 417Q368 417 369 417T371 411Q370 408 370 402Q370 391 371 383T381 374Q391 374 401 386T415 402L420 408Q426 402 426 395V388Q426 384 424 380Q420 373 413 373Q410 373 409 376T407 379Q405 379 405 378Q405
375 408 372T416 369Q422 369 427 372T436 381T442 391T444 399Q444 403 443 408T431 424Q435 429 437 435T440 443Q440 446 437 446Q423 446 418 438T413 424Q413 419 414 417T418 410L413 403H412L408 397Q406 394 402 390T393 386Q390 386 389 391T387 403V412Q387
420 387 423T384 426Q382 426 374 425T362 424Q363 425 363 428Q363 432 360 432Q350 432 350 421Q350 417 352 417T357 417Q357 416 357 416T356 413Q339 381 327 373T309 364Q304 364 301 370Q309 380 317 389T326 408Q326 410 325 412T318 415Q310 415 303 410T291
398T284 383T281 371Q281 363 284 358T295 352Q307 352 318 362T336 379Q338 379 341 384T348 395T355 408T359 416Z" />
<glyph unicode="*" glyph-name="asterisk" horiz-adv-x="1158" d="M167 77H211V38Q189 22 167 22Q142 22 128 37T114 75Q114 101 128 115T167 130Q186 130 195 122T209 99L197 95Q191 118 167 118Q147 118 138 106T128 76Q128 55 139 45T167 34Q176 34 184 37T197
45V64H167V77ZM295 58H238Q241 33 261 33Q276 33 281 48L295 46Q287 22 261 22Q244 22 235 32T225 61Q225 80 234 90T261 101Q275 101 285 91T295 61V58ZM281 69Q280 80 275 85T261 91Q252 91 246 85T239 69H281ZM314 31Q313 33 313 46V89H304V99H313V118L326 126V99H338V89H326V45Q326
37 327 36T333 35H338L341 24Q337 23 331 23Q323 23 320 25T314 31ZM407 99H422V89H407V24H395V89H383V99H395V107Q395 118 399 124T416 130Q418 130 421 130T427 129L426 117Q423 118 418 118Q407 118 407 106V99ZM480 99H493V24H481V35Q474 22 457 22Q444 22
438 28T432 52V99H445V57Q445 43 448 38T460 33Q480 33 480 59V99ZM513 128H526V24H513V128ZM545 128H558V24H545V128ZM637 116Q634 113 634 106V99H649V89H634V24H622V89H610V99H622V107Q622 118 626 124T642 130Q645 130 648 130T654 129L653 117Q650 118 645
118Q639 118 637 116ZM689 101Q705 101 715 91T725 63Q725 43 716 33T689 22Q673 22 664 32T654 61Q654 81 664 91T689 101ZM705 40Q712 47 712 62Q712 90 689 90Q667 90 667 61Q667 47 673 40T689 33Q699 33 705 40ZM789 24V70Q789 90 773 90Q765 90 759 85T753
65V24H740V99H751V89Q760 101 775 101Q778 101 782 101T791 99T798 90T801 70V24H789ZM824 89H814V99H824V118L836 126V99H849V89H836V45Q836 37 838 36T843 35H849L851 24Q847 23 841 23Q830 23 827 26T824 46V89ZM963 55Q963 38 963 34T968 24H954Q952 26 952
28T951 33Q939 22 924 22Q898 22 898 44Q898 54 903 58T916 65T933 68T950 72Q950 83 946 86T932 90Q922 90 919 87T913 76L900 78Q902 91 911 96T934 101Q950 101 956 96T963 73V55ZM950 61Q944 59 938 58T925 56T915 52T911 44Q911 32 927 32Q937 32 943 37T950
57V61ZM987 31Q986 33 986 46V89H976V99H986V118L998 126V99H1011V89H998V45Q998 37 1000 36T1005 35H1011L1013 24Q1009 23 1003 23Q990 23 987 31ZM1027 38H1042V24H1027V38ZM1042 99V85H1027V99H1042ZM197 -23H211L194 -93H179L165 -41L151 -93H136L119 -23H134L144
-71L157 -23H173L186 -72L197 -23ZM288 -23H302L286 -93H271L257 -41L243 -93H228L211 -23H225L236 -71L249 -23H265L277 -72L288 -23ZM380 -23H394L377 -93H362L348 -41L335 -93H319L303 -23H317L328 -71L341 -23H357L369 -72L380 -23ZM396 -79H409V-93H396V-79ZM469
-23H490V-93H477V-38L463 -93H449L436 -38V-93H423V-23H444L456 -71L469 -23ZM539 -23L567 -93H551L545 -77H518L512 -93H497L524 -23H539ZM541 -65L531 -39L522 -65H541ZM639 -23H653L636 -93H622L607 -41L594 -93H579L562 -23H576L587 -71L600 -23H616L628 -72L639
-23ZM703 -23H716V-93H702L674 -48V-93H661V-23H674L703 -70V-23ZM773 -55Q784 -60 784 -73Q784 -82 777 -88T756 -94Q730 -94 727 -70L741 -69Q742 -82 756 -82Q764 -82 766 -79T769 -73Q769 -71 769 -69T763 -65Q743 -60 736 -56T729 -42Q729 -31 737 -27T755
-22Q769 -22 775 -28T781 -43L768 -44Q765 -34 755 -34Q743 -34 743 -41Q743 -46 754 -48T773 -55ZM795 -79H809V-93H795V-79ZM861 -79Q866 -74 867 -67L881 -72Q873 -94 851 -94Q837 -94 829 -85T820 -59Q820 -42 829 -32T852 -22Q874 -22 880 -43L867 -46Q864
-34 852 -34Q834 -34 834 -58Q834 -72 839 -77T851 -82Q856 -82 861 -79ZM923 -22Q939 -22 948 -31T957 -58Q957 -76 948 -85T924 -94Q890 -94 890 -58Q890 -37 901 -30T923 -22ZM937 -76Q943 -70 943 -58Q943 -34 924 -34Q904 -34 904 -58Q904 -82 924 -82Q932
-82 937 -76ZM1014 -23H1035V-93H1022V-38L1008 -93H995L981 -38V-93H968V-23H989L1001 -71L1014 -23ZM528 448Q528 450 528 451T527 455Q527 460 528 464T534 469Q535 469 535 469T537 468Q537 463 528 448ZM926 547Q924 545 923 544T920 540Q919 544 919 551Q920
562 924 570T936 579Q942 579 942 574Q942 568 937 561T926 547ZM478 411Q473 416 473 427Q473 430 478 442T495 455Q505 452 505 440Q505 424 497 417T484 409Q482 410 481 410T478 411ZM429 426Q428 428 427 430T426 434Q426 443 434 443Q436 443 436 441Q436
437 429 426ZM312 386Q308 379 300 373Q300 375 300 376T299 379Q299 396 305 403T318 411Q322 411 322 406Q322 397 312 386ZM711 540Q706 530 701 520T688 498Q690 526 700 548T718 570Q720 570 720 566Q720 556 711 540ZM850 502Q861 519 864 531Q866 527 868
525T871 517Q871 512 870 511Q870 509 868 503T857 496Q855 496 854 499T851 502H850ZM873 549Q871 555 871 557Q871 566 878 566Q881 566 881 564Q881 560 873 549ZM500 302Q514 302 514 286Q514 274 508 266T493 258Q487 258 483 262T478 274Q478 285 484 293T500
302ZM361 287L128 224L163 515L318 558L317 560L333 569L329 586L346 592L344 610L360 615V633L378 636L379 653L397 655L400 672H417L422 689L440 687L446 703L464 700L472 715L489 710L498 725L515 718L525 731L541 723L553 736L568 725L581 737L595 725L609
736L622 723L637 731L648 718L664 725L674 710L691 715L699 700L716 703L723 687L740 689L745 672H754L1035 748L1000 457L860 418L853 411L862 395L848 384L855 368L840 358L845 342L830 334L833 316L817 310L819 292L802 288V270L785 266L783 249L766 248L763
230H745L740 213L723 215L716 199L699 203L691 187L674 193L664 178L648 185L637 171L622 179L609 167L595 177L581 165L568 177L553 167L541 179L525 171L515 185L498 178L489 193L472 187L464 203L446 199L440 215L422 213L417 230H400L397 248L379 249L378 266L360
270L361 287ZM901 544Q901 542 901 541T900 538Q900 533 903 527T914 520Q920 520 925 522T938 530Q951 539 957 547Q960 551 961 553Q961 554 959 554Q947 542 941 537T928 531Q923 531 921 537Q934 554 938 560T945 574Q945 583 938 583Q924 583 915 569T901
544ZM802 612Q804 612 804 608Q804 601 799 584T788 548T776 508T771 475Q771 459 781 459Q790 459 797 466T811 485V482Q811 470 817 470Q825 470 833 480T849 501Q849 494 859 492Q873 492 880 504T888 522Q888 530 886 533T876 547Q878 552 881 557T884 566Q884
569 881 569Q867 569 862 561T857 547Q857 542 858 540T862 533L863 532Q860 527 856 519T846 502T836 487T826 479Q824 479 824 483Q824 491 830 513T844 559Q853 586 864 619Q862 619 860 620Q854 622 849 622Q842 622 838 621Q841 621 841 616Q841 611 839 601T833
579T826 553T819 526L812 524Q815 524 815 517Q815 511 812 503T805 486T795 471T785 465Q781 465 781 471Q781 479 787 496T800 533T814 571T821 602Q821 614 812 614Q810 614 808 614T801 612H802ZM491 248Q506 248 516 258T527 286Q527 299 520 306T501 313Q485
313 476 302T466 273Q466 263 472 256T491 248ZM594 312H582L573 269L556 312H544L530 249H543L552 291L569 249H581L594 312ZM642 259H610L621 312H608L594 249H640L642 259ZM707 312H692L674 285L662 312H648L665 273L660 249H673L678 272L707 312ZM513 433Q513
428 514 419T523 410Q528 410 531 415Q544 427 546 439T554 452Q554 452 554 447T554 436T557 425T564 420Q571 420 579 428T592 443Q592 430 601 430Q608 430 618 440T629 456Q629 452 632 446T641 440Q646 440 656 449T670 465Q672 450 680 450Q686 450 691 454T701
463T709 472T714 478V480H711Q704 469 700 467T693 464Q688 464 686 477Q686 480 686 483T687 491Q702 515 713 537T725 570Q725 575 721 575Q717 575 709 569T692 549T677 518T670 474V469V468L665 463Q663 460 660 457T653 453Q648 453 646 460Q645 466 644 471Q643
476 642 479T640 483Q638 483 637 480Q628 462 626 456T615 446Q607 446 607 454Q607 463 611 470T620 483T630 490T638 493Q642 493 642 493T644 492Q644 493 645 493Q645 493 646 494Q646 496 640 496Q626 496 612 481T592 448L588 443Q586 441 583 438T576 434Q573
434 573 437T571 445Q571 448 571 454T571 465T569 475T566 480Q564 480 561 475Q560 473 557 467T550 453T543 438T537 429Q535 429 533 433T529 445Q532 451 535 457T539 468Q539 471 535 471Q527 471 521 463T513 443V433ZM457 421Q456 419 456 414Q456 409
459 403T470 397Q483 397 495 410T508 441Q508 450 504 454T494 458Q484 458 472 448T457 421ZM237 378Q269 386 285 408T302 450Q302 462 295 470T273 478Q270 478 267 478T260 477Q223 469 207 449T190 414Q190 397 205 397Q208 397 216 399Q210 399 210 414Q210
429 220 448T259 473H264Q273 473 277 467T281 450Q281 431 270 410T239 382Q245 400 251 416T261 444L257 448Q255 450 253 451T245 453Q240 453 238 452Q240 452 240 447Q240 439 236 423T225 388T215 353T210 324Q210 312 217 312H220Q219 312 219 315Q219 322
224 339T237 378ZM359 416Q360 416 362 416T366 417Q368 417 369 417T371 411Q370 408 370 402Q370 391 371 383T381 374Q391 374 401 386T415 402L420 408Q426 402 426 395V388Q426 384 424 380Q420 373 413 373Q410 373 409 376T407 379Q405 379 405 378Q405
375 408 372T416 369Q422 369 427 372T436 381T442 391T444 399Q444 403 443 408T431 424Q435 429 437 435T440 443Q440 446 437 446Q423 446 418 438T413 424Q413 419 414 417T418 410L413 403H412L408 397Q406 394 402 390T393 386Q390 386 389 391T387 403V412Q387
420 387 423T384 426Q382 426 374 425T362 424Q363 425 363 428Q363 432 360 432Q350 432 350 421Q350 417 352 417T357 417Q357 416 357 416T356 413Q339 381 327 373T309 364Q304 364 301 370Q309 380 317 389T326 408Q326 410 325 412T318 415Q310 415 303 410T291
398T284 383T281 371Q281 363 284 358T295 352Q307 352 318 362T336 379Q338 379 341 384T348 395T355 408T359 416Z" />
<glyph unicode="+" glyph-name="plus" horiz-adv-x="1158" d="M167 77H211V38Q189 22 167 22Q142 22 128 37T114 75Q114 101 128 115T167 130Q186 130 195 122T209 99L197 95Q191 118 167 118Q147 118 138 106T128 76Q128 55 139 45T167 34Q176 34 184 37T197
45V64H167V77ZM295 58H238Q241 33 261 33Q276 33 281 48L295 46Q287 22 261 22Q244 22 235 32T225 61Q225 80 234 90T261 101Q275 101 285 91T295 61V58ZM281 69Q280 80 275 85T261 91Q252 91 246 85T239 69H281ZM314 31Q313 33 313 46V89H304V99H313V118L326 126V99H338V89H326V45Q326
37 327 36T333 35H338L341 24Q337 23 331 23Q323 23 320 25T314 31ZM407 99H422V89H407V24H395V89H383V99H395V107Q395 118 399 124T416 130Q418 130 421 130T427 129L426 117Q423 118 418 118Q407 118 407 106V99ZM480 99H493V24H481V35Q474 22 457 22Q444 22
438 28T432 52V99H445V57Q445 43 448 38T460 33Q480 33 480 59V99ZM513 128H526V24H513V128ZM545 128H558V24H545V128ZM637 116Q634 113 634 106V99H649V89H634V24H622V89H610V99H622V107Q622 118 626 124T642 130Q645 130 648 130T654 129L653 117Q650 118 645
118Q639 118 637 116ZM689 101Q705 101 715 91T725 63Q725 43 716 33T689 22Q673 22 664 32T654 61Q654 81 664 91T689 101ZM705 40Q712 47 712 62Q712 90 689 90Q667 90 667 61Q667 47 673 40T689 33Q699 33 705 40ZM789 24V70Q789 90 773 90Q765 90 759 85T753
65V24H740V99H751V89Q760 101 775 101Q778 101 782 101T791 99T798 90T801 70V24H789ZM824 89H814V99H824V118L836 126V99H849V89H836V45Q836 37 838 36T843 35H849L851 24Q847 23 841 23Q830 23 827 26T824 46V89ZM963 55Q963 38 963 34T968 24H954Q952 26 952
28T951 33Q939 22 924 22Q898 22 898 44Q898 54 903 58T916 65T933 68T950 72Q950 83 946 86T932 90Q922 90 919 87T913 76L900 78Q902 91 911 96T934 101Q950 101 956 96T963 73V55ZM950 61Q944 59 938 58T925 56T915 52T911 44Q911 32 927 32Q937 32 943 37T950
57V61ZM987 31Q986 33 986 46V89H976V99H986V118L998 126V99H1011V89H998V45Q998 37 1000 36T1005 35H1011L1013 24Q1009 23 1003 23Q990 23 987 31ZM1027 38H1042V24H1027V38ZM1042 99V85H1027V99H1042ZM197 -23H211L194 -93H179L165 -41L151 -93H136L119 -23H134L144
-71L157 -23H173L186 -72L197 -23ZM288 -23H302L286 -93H271L257 -41L243 -93H228L211 -23H225L236 -71L249 -23H265L277 -72L288 -23ZM380 -23H394L377 -93H362L348 -41L335 -93H319L303 -23H317L328 -71L341 -23H357L369 -72L380 -23ZM396 -79H409V-93H396V-79ZM469
-23H490V-93H477V-38L463 -93H449L436 -38V-93H423V-23H444L456 -71L469 -23ZM539 -23L567 -93H551L545 -77H518L512 -93H497L524 -23H539ZM541 -65L531 -39L522 -65H541ZM639 -23H653L636 -93H622L607 -41L594 -93H579L562 -23H576L587 -71L600 -23H616L628 -72L639
-23ZM703 -23H716V-93H702L674 -48V-93H661V-23H674L703 -70V-23ZM773 -55Q784 -60 784 -73Q784 -82 777 -88T756 -94Q730 -94 727 -70L741 -69Q742 -82 756 -82Q764 -82 766 -79T769 -73Q769 -71 769 -69T763 -65Q743 -60 736 -56T729 -42Q729 -31 737 -27T755
-22Q769 -22 775 -28T781 -43L768 -44Q765 -34 755 -34Q743 -34 743 -41Q743 -46 754 -48T773 -55ZM795 -79H809V-93H795V-79ZM861 -79Q866 -74 867 -67L881 -72Q873 -94 851 -94Q837 -94 829 -85T820 -59Q820 -42 829 -32T852 -22Q874 -22 880 -43L867 -46Q864
-34 852 -34Q834 -34 834 -58Q834 -72 839 -77T851 -82Q856 -82 861 -79ZM923 -22Q939 -22 948 -31T957 -58Q957 -76 948 -85T924 -94Q890 -94 890 -58Q890 -37 901 -30T923 -22ZM937 -76Q943 -70 943 -58Q943 -34 924 -34Q904 -34 904 -58Q904 -82 924 -82Q932
-82 937 -76ZM1014 -23H1035V-93H1022V-38L1008 -93H995L981 -38V-93H968V-23H989L1001 -71L1014 -23ZM528 448Q528 450 528 451T527 455Q527 460 528 464T534 469Q535 469 535 469T537 468Q537 463 528 448ZM926 547Q924 545 923 544T920 540Q919 544 919 551Q920
562 924 570T936 579Q942 579 942 574Q942 568 937 561T926 547ZM478 411Q473 416 473 427Q473 430 478 442T495 455Q505 452 505 440Q505 424 497 417T484 409Q482 410 481 410T478 411ZM429 426Q428 428 427 430T426 434Q426 443 434 443Q436 443 436 441Q436
437 429 426ZM312 386Q308 379 300 373Q300 375 300 376T299 379Q299 396 305 403T318 411Q322 411 322 406Q322 397 312 386ZM711 540Q706 530 701 520T688 498Q690 526 700 548T718 570Q720 570 720 566Q720 556 711 540ZM850 502Q861 519 864 531Q866 527 868
525T871 517Q871 512 870 511Q870 509 868 503T857 496Q855 496 854 499T851 502H850ZM873 549Q871 555 871 557Q871 566 878 566Q881 566 881 564Q881 560 873 549ZM500 302Q514 302 514 286Q514 274 508 266T493 258Q487 258 483 262T478 274Q478 285 484 293T500
302ZM361 287L128 224L163 515L318 558L317 560L333 569L329 586L346 592L344 610L360 615V633L378 636L379 653L397 655L400 672H417L422 689L440 687L446 703L464 700L472 715L489 710L498 725L515 718L525 731L541 723L553 736L568 725L581 737L595 725L609
736L622 723L637 731L648 718L664 725L674 710L691 715L699 700L716 703L723 687L740 689L745 672H754L1035 748L1000 457L860 418L853 411L862 395L848 384L855 368L840 358L845 342L830 334L833 316L817 310L819 292L802 288V270L785 266L783 249L766 248L763
230H745L740 213L723 215L716 199L699 203L691 187L674 193L664 178L648 185L637 171L622 179L609 167L595 177L581 165L568 177L553 167L541 179L525 171L515 185L498 178L489 193L472 187L464 203L446 199L440 215L422 213L417 230H400L397 248L379 249L378 266L360
270L361 287ZM901 544Q901 542 901 541T900 538Q900 533 903 527T914 520Q920 520 925 522T938 530Q951 539 957 547Q960 551 961 553Q961 554 959 554Q947 542 941 537T928 531Q923 531 921 537Q934 554 938 560T945 574Q945 583 938 583Q924 583 915 569T901
544ZM802 612Q804 612 804 608Q804 601 799 584T788 548T776 508T771 475Q771 459 781 459Q790 459 797 466T811 485V482Q811 470 817 470Q825 470 833 480T849 501Q849 494 859 492Q873 492 880 504T888 522Q888 530 886 533T876 547Q878 552 881 557T884 566Q884
569 881 569Q867 569 862 561T857 547Q857 542 858 540T862 533L863 532Q860 527 856 519T846 502T836 487T826 479Q824 479 824 483Q824 491 830 513T844 559Q853 586 864 619Q862 619 860 620Q854 622 849 622Q842 622 838 621Q841 621 841 616Q841 611 839 601T833
579T826 553T819 526L812 524Q815 524 815 517Q815 511 812 503T805 486T795 471T785 465Q781 465 781 471Q781 479 787 496T800 533T814 571T821 602Q821 614 812 614Q810 614 808 614T801 612H802ZM491 248Q506 248 516 258T527 286Q527 299 520 306T501 313Q485
313 476 302T466 273Q466 263 472 256T491 248ZM594 312H582L573 269L556 312H544L530 249H543L552 291L569 249H581L594 312ZM642 259H610L621 312H608L594 249H640L642 259ZM707 312H692L674 285L662 312H648L665 273L660 249H673L678 272L707 312ZM513 433Q513
428 514 419T523 410Q528 410 531 415Q544 427 546 439T554 452Q554 452 554 447T554 436T557 425T564 420Q571 420 579 428T592 443Q592 430 601 430Q608 430 618 440T629 456Q629 452 632 446T641 440Q646 440 656 449T670 465Q672 450 680 450Q686 450 691 454T701
463T709 472T714 478V480H711Q704 469 700 467T693 464Q688 464 686 477Q686 480 686 483T687 491Q702 515 713 537T725 570Q725 575 721 575Q717 575 709 569T692 549T677 518T670 474V469V468L665 463Q663 460 660 457T653 453Q648 453 646 460Q645 466 644 471Q643
476 642 479T640 483Q638 483 637 480Q628 462 626 456T615 446Q607 446 607 454Q607 463 611 470T620 483T630 490T638 493Q642 493 642 493T644 492Q644 493 645 493Q645 493 646 494Q646 496 640 496Q626 496 612 481T592 448L588 443Q586 441 583 438T576 434Q573
434 573 437T571 445Q571 448 571 454T571 465T569 475T566 480Q564 480 561 475Q560 473 557 467T550 453T543 438T537 429Q535 429 533 433T529 445Q532 451 535 457T539 468Q539 471 535 471Q527 471 521 463T513 443V433ZM457 421Q456 419 456 414Q456 409
459 403T470 397Q483 397 495 410T508 441Q508 450 504 454T494 458Q484 458 472 448T457 421ZM237 378Q269 386 285 408T302 450Q302 462 295 470T273 478Q270 478 267 478T260 477Q223 469 207 449T190 414Q190 397 205 397Q208 397 216 399Q210 399 210 414Q210
429 220 448T259 473H264Q273 473 277 467T281 450Q281 431 270 410T239 382Q245 400 251 416T261 444L257 448Q255 450 253 451T245 453Q240 453 238 452Q240 452 240 447Q240 439 236 423T225 388T215 353T210 324Q210 312 217 312H220Q219 312 219 315Q219 322
224 339T237 378ZM359 416Q360 416 362 416T366 417Q368 417 369 417T371 411Q370 408 370 402Q370 391 371 383T381 374Q391 374 401 386T415 402L420 408Q426 402 426 395V388Q426 384 424 380Q420 373 413 373Q410 373 409 376T407 379Q405 379 405 378Q405
375 408 372T416 369Q422 369 427 372T436 381T442 391T444 399Q444 403 443 408T431 424Q435 429 437 435T440 443Q440 446 437 446Q423 446 418 438T413 424Q413 419 414 417T418 410L413 403H412L408 397Q406 394 402 390T393 386Q390 386 389 391T387 403V412Q387
420 387 423T384 426Q382 426 374 425T362 424Q363 425 363 428Q363 432 360 432Q350 432 350 421Q350 417 352 417T357 417Q357 416 357 416T356 413Q339 381 327 373T309 364Q304 364 301 370Q309 380 317 389T326 408Q326 410 325 412T318 415Q310 415 303 410T291
398T284 383T281 371Q281 363 284 358T295 352Q307 352 318 362T336 379Q338 379 341 384T348 395T355 408T359 416Z" />
<glyph unicode="," glyph-name="comma" horiz-adv-x="170" d="M24 121Q38 121 53 117T79 104T92 80T83 44T42 -5T-39 -71Q-53 -74 -61 -65Q-56 -55 -49 -43T-36 -20Q-29 -8 -22 5Q-31 13 -29 29Q-27 43 -17 65T24 121Z" />
<glyph unicode="-" glyph-name="hyphen" horiz-adv-x="311" d="M281 308Q286 284 281 266T268 234Q258 219 245 208Q225 212 197 220T144 233T102 237T87 223Q80 255 91 269T124 287T172 289T223 286T263 288T281 308Z" />
<glyph unicode="." glyph-name="period" horiz-adv-x="160" d="M18 121Q36 121 54 115T81 95T82 57T39 -2Q15 -8 -1 -6T-23 9T-19 50T18 121Z" />
<glyph unicode="/" glyph-name="slash" horiz-adv-x="538" d="M579 706Q607 711 626 708T657 699Q671 692 679 682Q658 651 615 602T516 494T396 368T268 237T147 112T46 4T-21 -76T-41 -115Q-58 -100 -38 -59T27 39T134 166T261 306T390 444T499 567T569 659T579 706Z" />
<glyph unicode="0" glyph-name="zero" horiz-adv-x="555" d="M43 214Q36 242 52 269T99 322T171 372T254 420T336 464T403 504T443 539T443 569Q509 532 526 504T527 453T467 412T369 376T256 343T149 307T70 266T43 214ZM43 215Q39 244 63 255T127 269T217 270T314
268T399 278T454 313Q464 256 453 225T416 182T354 171T277 183T196 205T124 225T69 233T43 215ZM43 215Q22 245 29 284T58 365T109 450T164 530T202 595T204 638Q246 611 260 585T270 532T244 478T196 425T140 372T87 319T50 267T43 215Z" />
<glyph unicode="1" glyph-name="one" horiz-adv-x="3" d="M-745 -202Q-757 -142 -726 -113T-634 -73T-491 -68T-321 -83T-145 -102T14 -111T133 -94T190 -36Q186 -73 159 -97T87 -136T-14 -157T-134 -165T-265 -165T-398 -161T-522 -158T-627 -160T-705 -173T-745 -202Z" />
<glyph unicode="2" glyph-name="two" horiz-adv-x="3" d="M-1410 -196Q-1420 -148 -1383 -120T-1274 -79T-1103 -63T-889 -66T-653 -80T-413 -97T-189 -109T-1 -108T132 -86T190 -36Q186 -73 140 -97T18 -136T-157 -156T-368 -164T-598 -163T-829 -157T-1043 -153T-1223
-155T-1351 -167T-1410 -196Z" />
<glyph unicode="3" glyph-name="three" horiz-adv-x="3" d="M-1737 -187Q-1760 -136 -1721 -107T-1599 -63T-1397 -48T-1138 -52T-849 -68T-553 -88T-276 -103T-43 -105T120 -85T190 -36Q186 -69 131 -91T-15 -126T-227 -146T-484 -155T-763 -156T-1042 -154T-1301
-152T-1518 -153T-1670 -164T-1737 -187Z" />
<glyph unicode="4" glyph-name="four" horiz-adv-x="104" d="M-74 115Q-47 81 -42 34T-60 -57T-137 -131T-284 -162Q-410 -162 -525 -160T-742 -157T-928 -155T-1075 -158T-1177 -168T-1226 -189Q-1237 -139 -1217 -111T-1154 -69T-1049 -56T-913 -64T-756 -84T-592
-109T-431 -129T-284 -138Q-219 -138 -184 -121T-134 -77T-123 -15T-139 52L-74 115Z" />
<glyph unicode="5" glyph-name="five" horiz-adv-x="104" d="M-74 115Q-47 81 -42 34T-60 -57T-137 -131T-284 -162Q-378 -162 -497 -161T-748 -159T-1017 -156T-1284 -155T-1529 -156T-1733 -161T-1876 -172T-1939 -189Q-1948 -149 -1917 -123T-1824 -82T-1676
-61T-1486 -56T-1269 -64T-1040 -80T-812 -99T-601 -118T-420 -132T-284 -138Q-219 -138 -184 -121T-134 -77T-123 -15T-139 52L-74 115Z" />
<glyph unicode="6" glyph-name="six" horiz-adv-x="104" d="M-74 115Q-47 81 -42 34T-60 -57T-137 -131T-284 -162Q-359 -162 -473 -162T-727 -160T-1025 -158T-1349 -156T-1678 -155T-1994 -156T-2276 -159T-2505 -165T-2662 -175T-2727 -189Q-2764 -153 -2729
-129T-2603 -90T-2378 -71T-2079 -66T-1735 -72T-1372 -86T-1019 -103T-701 -120T-447 -133T-284 -138Q-219 -138 -184 -121T-134 -77T-123 -15T-139 52L-74 115Z" />
<glyph unicode="7" glyph-name="seven" horiz-adv-x="216" d="M23 308Q54 330 82 320T127 280T150 203T142 104T93 0T-4 -93T-160 -161T-382 -187Q-526 -187 -628 -183T-803 -177T-927 -176T-1021 -191Q-1043 -127 -1032 -100T-982 -70T-881 -81T-739 -114T-565
-149T-369 -165Q-275 -165 -205 -145T-84 -93T-3 -19T45 67T66 153T66 229T50 284T23 308Z" />
<glyph unicode="8" glyph-name="eight" horiz-adv-x="216" d="M23 308Q54 330 82 320T127 280T150 203T142 104T93 0T-4 -93T-160 -161T-382 -187Q-503 -187 -637 -184T-910 -177T-1184 -169T-1444 -163T-1674 -161T-1858 -167T-1980 -184T-2024 -214Q-2046 -166
-2025 -135T-1948 -87T-1808 -63T-1622 -59T-1405 -70T-1170 -90T-934 -115T-712 -139T-518 -158T-369 -165Q-275 -165 -205 -145T-84 -93T-3 -19T45 67T66 153T66 229T50 284T23 308Z" />
<glyph unicode="9" glyph-name="nine" horiz-adv-x="216" d="M23 308Q54 330 82 320T127 280T150 203T142 104T93 0T-4 -93T-160 -161T-382 -187Q-479 -187 -605 -185T-877 -180T-1180 -174T-1499 -168T-1814 -163T-2111 -161T-2371 -164T-2578 -173T-2714 -189T-2764
-214Q-2786 -166 -2744 -135T-2611 -87T-2389 -63T-2102 -59T-1774 -70T-1430 -90T-1094 -115T-789 -139T-539 -158T-369 -165Q-275 -165 -205 -145T-84 -93T-3 -19T45 67T66 153T66 229T50 284T23 308Z" />
<glyph unicode=":" glyph-name="colon" horiz-adv-x="1158" d="M167 77H211V38Q189 22 167 22Q142 22 128 37T114 75Q114 101 128 115T167 130Q186 130 195 122T209 99L197 95Q191 118 167 118Q147 118 138 106T128 76Q128 55 139 45T167 34Q176 34 184 37T197
45V64H167V77ZM295 58H238Q241 33 261 33Q276 33 281 48L295 46Q287 22 261 22Q244 22 235 32T225 61Q225 80 234 90T261 101Q275 101 285 91T295 61V58ZM281 69Q280 80 275 85T261 91Q252 91 246 85T239 69H281ZM314 31Q313 33 313 46V89H304V99H313V118L326 126V99H338V89H326V45Q326
37 327 36T333 35H338L341 24Q337 23 331 23Q323 23 320 25T314 31ZM407 99H422V89H407V24H395V89H383V99H395V107Q395 118 399 124T416 130Q418 130 421 130T427 129L426 117Q423 118 418 118Q407 118 407 106V99ZM480 99H493V24H481V35Q474 22 457 22Q444 22
438 28T432 52V99H445V57Q445 43 448 38T460 33Q480 33 480 59V99ZM513 128H526V24H513V128ZM545 128H558V24H545V128ZM637 116Q634 113 634 106V99H649V89H634V24H622V89H610V99H622V107Q622 118 626 124T642 130Q645 130 648 130T654 129L653 117Q650 118 645
118Q639 118 637 116ZM689 101Q705 101 715 91T725 63Q725 43 716 33T689 22Q673 22 664 32T654 61Q654 81 664 91T689 101ZM705 40Q712 47 712 62Q712 90 689 90Q667 90 667 61Q667 47 673 40T689 33Q699 33 705 40ZM789 24V70Q789 90 773 90Q765 90 759 85T753
65V24H740V99H751V89Q760 101 775 101Q778 101 782 101T791 99T798 90T801 70V24H789ZM824 89H814V99H824V118L836 126V99H849V89H836V45Q836 37 838 36T843 35H849L851 24Q847 23 841 23Q830 23 827 26T824 46V89ZM963 55Q963 38 963 34T968 24H954Q952 26 952
28T951 33Q939 22 924 22Q898 22 898 44Q898 54 903 58T916 65T933 68T950 72Q950 83 946 86T932 90Q922 90 919 87T913 76L900 78Q902 91 911 96T934 101Q950 101 956 96T963 73V55ZM950 61Q944 59 938 58T925 56T915 52T911 44Q911 32 927 32Q937 32 943 37T950
57V61ZM987 31Q986 33 986 46V89H976V99H986V118L998 126V99H1011V89H998V45Q998 37 1000 36T1005 35H1011L1013 24Q1009 23 1003 23Q990 23 987 31ZM1027 38H1042V24H1027V38ZM1042 99V85H1027V99H1042ZM197 -23H211L194 -93H179L165 -41L151 -93H136L119 -23H134L144
-71L157 -23H173L186 -72L197 -23ZM288 -23H302L286 -93H271L257 -41L243 -93H228L211 -23H225L236 -71L249 -23H265L277 -72L288 -23ZM380 -23H394L377 -93H362L348 -41L335 -93H319L303 -23H317L328 -71L341 -23H357L369 -72L380 -23ZM396 -79H409V-93H396V-79ZM469
-23H490V-93H477V-38L463 -93H449L436 -38V-93H423V-23H444L456 -71L469 -23ZM539 -23L567 -93H551L545 -77H518L512 -93H497L524 -23H539ZM541 -65L531 -39L522 -65H541ZM639 -23H653L636 -93H622L607 -41L594 -93H579L562 -23H576L587 -71L600 -23H616L628 -72L639
-23ZM703 -23H716V-93H702L674 -48V-93H661V-23H674L703 -70V-23ZM773 -55Q784 -60 784 -73Q784 -82 777 -88T756 -94Q730 -94 727 -70L741 -69Q742 -82 756 -82Q764 -82 766 -79T769 -73Q769 -71 769 -69T763 -65Q743 -60 736 -56T729 -42Q729 -31 737 -27T755
-22Q769 -22 775 -28T781 -43L768 -44Q765 -34 755 -34Q743 -34 743 -41Q743 -46 754 -48T773 -55ZM795 -79H809V-93H795V-79ZM861 -79Q866 -74 867 -67L881 -72Q873 -94 851 -94Q837 -94 829 -85T820 -59Q820 -42 829 -32T852 -22Q874 -22 880 -43L867 -46Q864
-34 852 -34Q834 -34 834 -58Q834 -72 839 -77T851 -82Q856 -82 861 -79ZM923 -22Q939 -22 948 -31T957 -58Q957 -76 948 -85T924 -94Q890 -94 890 -58Q890 -37 901 -30T923 -22ZM937 -76Q943 -70 943 -58Q943 -34 924 -34Q904 -34 904 -58Q904 -82 924 -82Q932
-82 937 -76ZM1014 -23H1035V-93H1022V-38L1008 -93H995L981 -38V-93H968V-23H989L1001 -71L1014 -23ZM528 448Q528 450 528 451T527 455Q527 460 528 464T534 469Q535 469 535 469T537 468Q537 463 528 448ZM926 547Q924 545 923 544T920 540Q919 544 919 551Q920
562 924 570T936 579Q942 579 942 574Q942 568 937 561T926 547ZM478 411Q473 416 473 427Q473 430 478 442T495 455Q505 452 505 440Q505 424 497 417T484 409Q482 410 481 410T478 411ZM429 426Q428 428 427 430T426 434Q426 443 434 443Q436 443 436 441Q436
437 429 426ZM312 386Q308 379 300 373Q300 375 300 376T299 379Q299 396 305 403T318 411Q322 411 322 406Q322 397 312 386ZM711 540Q706 530 701 520T688 498Q690 526 700 548T718 570Q720 570 720 566Q720 556 711 540ZM850 502Q861 519 864 531Q866 527 868
525T871 517Q871 512 870 511Q870 509 868 503T857 496Q855 496 854 499T851 502H850ZM873 549Q871 555 871 557Q871 566 878 566Q881 566 881 564Q881 560 873 549ZM500 302Q514 302 514 286Q514 274 508 266T493 258Q487 258 483 262T478 274Q478 285 484 293T500
302ZM361 287L128 224L163 515L318 558L317 560L333 569L329 586L346 592L344 610L360 615V633L378 636L379 653L397 655L400 672H417L422 689L440 687L446 703L464 700L472 715L489 710L498 725L515 718L525 731L541 723L553 736L568 725L581 737L595 725L609
736L622 723L637 731L648 718L664 725L674 710L691 715L699 700L716 703L723 687L740 689L745 672H754L1035 748L1000 457L860 418L853 411L862 395L848 384L855 368L840 358L845 342L830 334L833 316L817 310L819 292L802 288V270L785 266L783 249L766 248L763
230H745L740 213L723 215L716 199L699 203L691 187L674 193L664 178L648 185L637 171L622 179L609 167L595 177L581 165L568 177L553 167L541 179L525 171L515 185L498 178L489 193L472 187L464 203L446 199L440 215L422 213L417 230H400L397 248L379 249L378 266L360
270L361 287ZM901 544Q901 542 901 541T900 538Q900 533 903 527T914 520Q920 520 925 522T938 530Q951 539 957 547Q960 551 961 553Q961 554 959 554Q947 542 941 537T928 531Q923 531 921 537Q934 554 938 560T945 574Q945 583 938 583Q924 583 915 569T901
544ZM802 612Q804 612 804 608Q804 601 799 584T788 548T776 508T771 475Q771 459 781 459Q790 459 797 466T811 485V482Q811 470 817 470Q825 470 833 480T849 501Q849 494 859 492Q873 492 880 504T888 522Q888 530 886 533T876 547Q878 552 881 557T884 566Q884
569 881 569Q867 569 862 561T857 547Q857 542 858 540T862 533L863 532Q860 527 856 519T846 502T836 487T826 479Q824 479 824 483Q824 491 830 513T844 559Q853 586 864 619Q862 619 860 620Q854 622 849 622Q842 622 838 621Q841 621 841 616Q841 611 839 601T833
579T826 553T819 526L812 524Q815 524 815 517Q815 511 812 503T805 486T795 471T785 465Q781 465 781 471Q781 479 787 496T800 533T814 571T821 602Q821 614 812 614Q810 614 808 614T801 612H802ZM491 248Q506 248 516 258T527 286Q527 299 520 306T501 313Q485
313 476 302T466 273Q466 263 472 256T491 248ZM594 312H582L573 269L556 312H544L530 249H543L552 291L569 249H581L594 312ZM642 259H610L621 312H608L594 249H640L642 259ZM707 312H692L674 285L662 312H648L665 273L660 249H673L678 272L707 312ZM513 433Q513
428 514 419T523 410Q528 410 531 415Q544 427 546 439T554 452Q554 452 554 447T554 436T557 425T564 420Q571 420 579 428T592 443Q592 430 601 430Q608 430 618 440T629 456Q629 452 632 446T641 440Q646 440 656 449T670 465Q672 450 680 450Q686 450 691 454T701
463T709 472T714 478V480H711Q704 469 700 467T693 464Q688 464 686 477Q686 480 686 483T687 491Q702 515 713 537T725 570Q725 575 721 575Q717 575 709 569T692 549T677 518T670 474V469V468L665 463Q663 460 660 457T653 453Q648 453 646 460Q645 466 644 471Q643
476 642 479T640 483Q638 483 637 480Q628 462 626 456T615 446Q607 446 607 454Q607 463 611 470T620 483T630 490T638 493Q642 493 642 493T644 492Q644 493 645 493Q645 493 646 494Q646 496 640 496Q626 496 612 481T592 448L588 443Q586 441 583 438T576 434Q573
434 573 437T571 445Q571 448 571 454T571 465T569 475T566 480Q564 480 561 475Q560 473 557 467T550 453T543 438T537 429Q535 429 533 433T529 445Q532 451 535 457T539 468Q539 471 535 471Q527 471 521 463T513 443V433ZM457 421Q456 419 456 414Q456 409
459 403T470 397Q483 397 495 410T508 441Q508 450 504 454T494 458Q484 458 472 448T457 421ZM237 378Q269 386 285 408T302 450Q302 462 295 470T273 478Q270 478 267 478T260 477Q223 469 207 449T190 414Q190 397 205 397Q208 397 216 399Q210 399 210 414Q210
429 220 448T259 473H264Q273 473 277 467T281 450Q281 431 270 410T239 382Q245 400 251 416T261 444L257 448Q255 450 253 451T245 453Q240 453 238 452Q240 452 240 447Q240 439 236 423T225 388T215 353T210 324Q210 312 217 312H220Q219 312 219 315Q219 322
224 339T237 378ZM359 416Q360 416 362 416T366 417Q368 417 369 417T371 411Q370 408 370 402Q370 391 371 383T381 374Q391 374 401 386T415 402L420 408Q426 402 426 395V388Q426 384 424 380Q420 373 413 373Q410 373 409 376T407 379Q405 379 405 378Q405
375 408 372T416 369Q422 369 427 372T436 381T442 391T444 399Q444 403 443 408T431 424Q435 429 437 435T440 443Q440 446 437 446Q423 446 418 438T413 424Q413 419 414 417T418 410L413 403H412L408 397Q406 394 402 390T393 386Q390 386 389 391T387 403V412Q387
420 387 423T384 426Q382 426 374 425T362 424Q363 425 363 428Q363 432 360 432Q350 432 350 421Q350 417 352 417T357 417Q357 416 357 416T356 413Q339 381 327 373T309 364Q304 364 301 370Q309 380 317 389T326 408Q326 410 325 412T318 415Q310 415 303 410T291
398T284 383T281 371Q281 363 284 358T295 352Q307 352 318 362T336 379Q338 379 341 384T348 395T355 408T359 416Z" />
<glyph unicode=";" glyph-name="semicolon" horiz-adv-x="1158" d="M167 77H211V38Q189 22 167 22Q142 22 128 37T114 75Q114 101 128 115T167 130Q186 130 195 122T209 99L197 95Q191 118 167 118Q147 118 138 106T128 76Q128 55 139 45T167 34Q176 34 184 37T197
45V64H167V77ZM295 58H238Q241 33 261 33Q276 33 281 48L295 46Q287 22 261 22Q244 22 235 32T225 61Q225 80 234 90T261 101Q275 101 285 91T295 61V58ZM281 69Q280 80 275 85T261 91Q252 91 246 85T239 69H281ZM314 31Q313 33 313 46V89H304V99H313V118L326 126V99H338V89H326V45Q326
37 327 36T333 35H338L341 24Q337 23 331 23Q323 23 320 25T314 31ZM407 99H422V89H407V24H395V89H383V99H395V107Q395 118 399 124T416 130Q418 130 421 130T427 129L426 117Q423 118 418 118Q407 118 407 106V99ZM480 99H493V24H481V35Q474 22 457 22Q444 22
438 28T432 52V99H445V57Q445 43 448 38T460 33Q480 33 480 59V99ZM513 128H526V24H513V128ZM545 128H558V24H545V128ZM637 116Q634 113 634 106V99H649V89H634V24H622V89H610V99H622V107Q622 118 626 124T642 130Q645 130 648 130T654 129L653 117Q650 118 645
118Q639 118 637 116ZM689 101Q705 101 715 91T725 63Q725 43 716 33T689 22Q673 22 664 32T654 61Q654 81 664 91T689 101ZM705 40Q712 47 712 62Q712 90 689 90Q667 90 667 61Q667 47 673 40T689 33Q699 33 705 40ZM789 24V70Q789 90 773 90Q765 90 759 85T753
65V24H740V99H751V89Q760 101 775 101Q778 101 782 101T791 99T798 90T801 70V24H789ZM824 89H814V99H824V118L836 126V99H849V89H836V45Q836 37 838 36T843 35H849L851 24Q847 23 841 23Q830 23 827 26T824 46V89ZM963 55Q963 38 963 34T968 24H954Q952 26 952
28T951 33Q939 22 924 22Q898 22 898 44Q898 54 903 58T916 65T933 68T950 72Q950 83 946 86T932 90Q922 90 919 87T913 76L900 78Q902 91 911 96T934 101Q950 101 956 96T963 73V55ZM950 61Q944 59 938 58T925 56T915 52T911 44Q911 32 927 32Q937 32 943 37T950
57V61ZM987 31Q986 33 986 46V89H976V99H986V118L998 126V99H1011V89H998V45Q998 37 1000 36T1005 35H1011L1013 24Q1009 23 1003 23Q990 23 987 31ZM1027 38H1042V24H1027V38ZM1042 99V85H1027V99H1042ZM197 -23H211L194 -93H179L165 -41L151 -93H136L119 -23H134L144
-71L157 -23H173L186 -72L197 -23ZM288 -23H302L286 -93H271L257 -41L243 -93H228L211 -23H225L236 -71L249 -23H265L277 -72L288 -23ZM380 -23H394L377 -93H362L348 -41L335 -93H319L303 -23H317L328 -71L341 -23H357L369 -72L380 -23ZM396 -79H409V-93H396V-79ZM469
-23H490V-93H477V-38L463 -93H449L436 -38V-93H423V-23H444L456 -71L469 -23ZM539 -23L567 -93H551L545 -77H518L512 -93H497L524 -23H539ZM541 -65L531 -39L522 -65H541ZM639 -23H653L636 -93H622L607 -41L594 -93H579L562 -23H576L587 -71L600 -23H616L628 -72L639
-23ZM703 -23H716V-93H702L674 -48V-93H661V-23H674L703 -70V-23ZM773 -55Q784 -60 784 -73Q784 -82 777 -88T756 -94Q730 -94 727 -70L741 -69Q742 -82 756 -82Q764 -82 766 -79T769 -73Q769 -71 769 -69T763 -65Q743 -60 736 -56T729 -42Q729 -31 737 -27T755
-22Q769 -22 775 -28T781 -43L768 -44Q765 -34 755 -34Q743 -34 743 -41Q743 -46 754 -48T773 -55ZM795 -79H809V-93H795V-79ZM861 -79Q866 -74 867 -67L881 -72Q873 -94 851 -94Q837 -94 829 -85T820 -59Q820 -42 829 -32T852 -22Q874 -22 880 -43L867 -46Q864
-34 852 -34Q834 -34 834 -58Q834 -72 839 -77T851 -82Q856 -82 861 -79ZM923 -22Q939 -22 948 -31T957 -58Q957 -76 948 -85T924 -94Q890 -94 890 -58Q890 -37 901 -30T923 -22ZM937 -76Q943 -70 943 -58Q943 -34 924 -34Q904 -34 904 -58Q904 -82 924 -82Q932
-82 937 -76ZM1014 -23H1035V-93H1022V-38L1008 -93H995L981 -38V-93H968V-23H989L1001 -71L1014 -23ZM528 448Q528 450 528 451T527 455Q527 460 528 464T534 469Q535 469 535 469T537 468Q537 463 528 448ZM926 547Q924 545 923 544T920 540Q919 544 919 551Q920
562 924 570T936 579Q942 579 942 574Q942 568 937 561T926 547ZM478 411Q473 416 473 427Q473 430 478 442T495 455Q505 452 505 440Q505 424 497 417T484 409Q482 410 481 410T478 411ZM429 426Q428 428 427 430T426 434Q426 443 434 443Q436 443 436 441Q436
437 429 426ZM312 386Q308 379 300 373Q300 375 300 376T299 379Q299 396 305 403T318 411Q322 411 322 406Q322 397 312 386ZM711 540Q706 530 701 520T688 498Q690 526 700 548T718 570Q720 570 720 566Q720 556 711 540ZM850 502Q861 519 864 531Q866 527 868
525T871 517Q871 512 870 511Q870 509 868 503T857 496Q855 496 854 499T851 502H850ZM873 549Q871 555 871 557Q871 566 878 566Q881 566 881 564Q881 560 873 549ZM500 302Q514 302 514 286Q514 274 508 266T493 258Q487 258 483 262T478 274Q478 285 484 293T500
302ZM361 287L128 224L163 515L318 558L317 560L333 569L329 586L346 592L344 610L360 615V633L378 636L379 653L397 655L400 672H417L422 689L440 687L446 703L464 700L472 715L489 710L498 725L515 718L525 731L541 723L553 736L568 725L581 737L595 725L609
736L622 723L637 731L648 718L664 725L674 710L691 715L699 700L716 703L723 687L740 689L745 672H754L1035 748L1000 457L860 418L853 411L862 395L848 384L855 368L840 358L845 342L830 334L833 316L817 310L819 292L802 288V270L785 266L783 249L766 248L763
230H745L740 213L723 215L716 199L699 203L691 187L674 193L664 178L648 185L637 171L622 179L609 167L595 177L581 165L568 177L553 167L541 179L525 171L515 185L498 178L489 193L472 187L464 203L446 199L440 215L422 213L417 230H400L397 248L379 249L378 266L360
270L361 287ZM901 544Q901 542 901 541T900 538Q900 533 903 527T914 520Q920 520 925 522T938 530Q951 539 957 547Q960 551 961 553Q961 554 959 554Q947 542 941 537T928 531Q923 531 921 537Q934 554 938 560T945 574Q945 583 938 583Q924 583 915 569T901
544ZM802 612Q804 612 804 608Q804 601 799 584T788 548T776 508T771 475Q771 459 781 459Q790 459 797 466T811 485V482Q811 470 817 470Q825 470 833 480T849 501Q849 494 859 492Q873 492 880 504T888 522Q888 530 886 533T876 547Q878 552 881 557T884 566Q884
569 881 569Q867 569 862 561T857 547Q857 542 858 540T862 533L863 532Q860 527 856 519T846 502T836 487T826 479Q824 479 824 483Q824 491 830 513T844 559Q853 586 864 619Q862 619 860 620Q854 622 849 622Q842 622 838 621Q841 621 841 616Q841 611 839 601T833
579T826 553T819 526L812 524Q815 524 815 517Q815 511 812 503T805 486T795 471T785 465Q781 465 781 471Q781 479 787 496T800 533T814 571T821 602Q821 614 812 614Q810 614 808 614T801 612H802ZM491 248Q506 248 516 258T527 286Q527 299 520 306T501 313Q485
313 476 302T466 273Q466 263 472 256T491 248ZM594 312H582L573 269L556 312H544L530 249H543L552 291L569 249H581L594 312ZM642 259H610L621 312H608L594 249H640L642 259ZM707 312H692L674 285L662 312H648L665 273L660 249H673L678 272L707 312ZM513 433Q513
428 514 419T523 410Q528 410 531 415Q544 427 546 439T554 452Q554 452 554 447T554 436T557 425T564 420Q571 420 579 428T592 443Q592 430 601 430Q608 430 618 440T629 456Q629 452 632 446T641 440Q646 440 656 449T670 465Q672 450 680 450Q686 450 691 454T701
463T709 472T714 478V480H711Q704 469 700 467T693 464Q688 464 686 477Q686 480 686 483T687 491Q702 515 713 537T725 570Q725 575 721 575Q717 575 709 569T692 549T677 518T670 474V469V468L665 463Q663 460 660 457T653 453Q648 453 646 460Q645 466 644 471Q643
476 642 479T640 483Q638 483 637 480Q628 462 626 456T615 446Q607 446 607 454Q607 463 611 470T620 483T630 490T638 493Q642 493 642 493T644 492Q644 493 645 493Q645 493 646 494Q646 496 640 496Q626 496 612 481T592 448L588 443Q586 441 583 438T576 434Q573
434 573 437T571 445Q571 448 571 454T571 465T569 475T566 480Q564 480 561 475Q560 473 557 467T550 453T543 438T537 429Q535 429 533 433T529 445Q532 451 535 457T539 468Q539 471 535 471Q527 471 521 463T513 443V433ZM457 421Q456 419 456 414Q456 409
459 403T470 397Q483 397 495 410T508 441Q508 450 504 454T494 458Q484 458 472 448T457 421ZM237 378Q269 386 285 408T302 450Q302 462 295 470T273 478Q270 478 267 478T260 477Q223 469 207 449T190 414Q190 397 205 397Q208 397 216 399Q210 399 210 414Q210
429 220 448T259 473H264Q273 473 277 467T281 450Q281 431 270 410T239 382Q245 400 251 416T261 444L257 448Q255 450 253 451T245 453Q240 453 238 452Q240 452 240 447Q240 439 236 423T225 388T215 353T210 324Q210 312 217 312H220Q219 312 219 315Q219 322
224 339T237 378ZM359 416Q360 416 362 416T366 417Q368 417 369 417T371 411Q370 408 370 402Q370 391 371 383T381 374Q391 374 401 386T415 402L420 408Q426 402 426 395V388Q426 384 424 380Q420 373 413 373Q410 373 409 376T407 379Q405 379 405 378Q405
375 408 372T416 369Q422 369 427 372T436 381T442 391T444 399Q444 403 443 408T431 424Q435 429 437 435T440 443Q440 446 437 446Q423 446 418 438T413 424Q413 419 414 417T418 410L413 403H412L408 397Q406 394 402 390T393 386Q390 386 389 391T387 403V412Q387
420 387 423T384 426Q382 426 374 425T362 424Q363 425 363 428Q363 432 360 432Q350 432 350 421Q350 417 352 417T357 417Q357 416 357 416T356 413Q339 381 327 373T309 364Q304 364 301 370Q309 380 317 389T326 408Q326 410 325 412T318 415Q310 415 303 410T291
398T284 383T281 371Q281 363 284 358T295 352Q307 352 318 362T336 379Q338 379 341 384T348 395T355 408T359 416Z" />
<glyph unicode="&lt;" glyph-name="less" horiz-adv-x="1158" d="M167 77H211V38Q189 22 167 22Q142 22 128 37T114 75Q114 101 128 115T167 130Q186 130 195 122T209 99L197 95Q191 118 167 118Q147 118 138 106T128 76Q128 55 139 45T167 34Q176 34 184 37T197
45V64H167V77ZM295 58H238Q241 33 261 33Q276 33 281 48L295 46Q287 22 261 22Q244 22 235 32T225 61Q225 80 234 90T261 101Q275 101 285 91T295 61V58ZM281 69Q280 80 275 85T261 91Q252 91 246 85T239 69H281ZM314 31Q313 33 313 46V89H304V99H313V118L326 126V99H338V89H326V45Q326
37 327 36T333 35H338L341 24Q337 23 331 23Q323 23 320 25T314 31ZM407 99H422V89H407V24H395V89H383V99H395V107Q395 118 399 124T416 130Q418 130 421 130T427 129L426 117Q423 118 418 118Q407 118 407 106V99ZM480 99H493V24H481V35Q474 22 457 22Q444 22
438 28T432 52V99H445V57Q445 43 448 38T460 33Q480 33 480 59V99ZM513 128H526V24H513V128ZM545 128H558V24H545V128ZM637 116Q634 113 634 106V99H649V89H634V24H622V89H610V99H622V107Q622 118 626 124T642 130Q645 130 648 130T654 129L653 117Q650 118 645
118Q639 118 637 116ZM689 101Q705 101 715 91T725 63Q725 43 716 33T689 22Q673 22 664 32T654 61Q654 81 664 91T689 101ZM705 40Q712 47 712 62Q712 90 689 90Q667 90 667 61Q667 47 673 40T689 33Q699 33 705 40ZM789 24V70Q789 90 773 90Q765 90 759 85T753
65V24H740V99H751V89Q760 101 775 101Q778 101 782 101T791 99T798 90T801 70V24H789ZM824 89H814V99H824V118L836 126V99H849V89H836V45Q836 37 838 36T843 35H849L851 24Q847 23 841 23Q830 23 827 26T824 46V89ZM963 55Q963 38 963 34T968 24H954Q952 26 952
28T951 33Q939 22 924 22Q898 22 898 44Q898 54 903 58T916 65T933 68T950 72Q950 83 946 86T932 90Q922 90 919 87T913 76L900 78Q902 91 911 96T934 101Q950 101 956 96T963 73V55ZM950 61Q944 59 938 58T925 56T915 52T911 44Q911 32 927 32Q937 32 943 37T950
57V61ZM987 31Q986 33 986 46V89H976V99H986V118L998 126V99H1011V89H998V45Q998 37 1000 36T1005 35H1011L1013 24Q1009 23 1003 23Q990 23 987 31ZM1027 38H1042V24H1027V38ZM1042 99V85H1027V99H1042ZM197 -23H211L194 -93H179L165 -41L151 -93H136L119 -23H134L144
-71L157 -23H173L186 -72L197 -23ZM288 -23H302L286 -93H271L257 -41L243 -93H228L211 -23H225L236 -71L249 -23H265L277 -72L288 -23ZM380 -23H394L377 -93H362L348 -41L335 -93H319L303 -23H317L328 -71L341 -23H357L369 -72L380 -23ZM396 -79H409V-93H396V-79ZM469
-23H490V-93H477V-38L463 -93H449L436 -38V-93H423V-23H444L456 -71L469 -23ZM539 -23L567 -93H551L545 -77H518L512 -93H497L524 -23H539ZM541 -65L531 -39L522 -65H541ZM639 -23H653L636 -93H622L607 -41L594 -93H579L562 -23H576L587 -71L600 -23H616L628 -72L639
-23ZM703 -23H716V-93H702L674 -48V-93H661V-23H674L703 -70V-23ZM773 -55Q784 -60 784 -73Q784 -82 777 -88T756 -94Q730 -94 727 -70L741 -69Q742 -82 756 -82Q764 -82 766 -79T769 -73Q769 -71 769 -69T763 -65Q743 -60 736 -56T729 -42Q729 -31 737 -27T755
-22Q769 -22 775 -28T781 -43L768 -44Q765 -34 755 -34Q743 -34 743 -41Q743 -46 754 -48T773 -55ZM795 -79H809V-93H795V-79ZM861 -79Q866 -74 867 -67L881 -72Q873 -94 851 -94Q837 -94 829 -85T820 -59Q820 -42 829 -32T852 -22Q874 -22 880 -43L867 -46Q864
-34 852 -34Q834 -34 834 -58Q834 -72 839 -77T851 -82Q856 -82 861 -79ZM923 -22Q939 -22 948 -31T957 -58Q957 -76 948 -85T924 -94Q890 -94 890 -58Q890 -37 901 -30T923 -22ZM937 -76Q943 -70 943 -58Q943 -34 924 -34Q904 -34 904 -58Q904 -82 924 -82Q932
-82 937 -76ZM1014 -23H1035V-93H1022V-38L1008 -93H995L981 -38V-93H968V-23H989L1001 -71L1014 -23ZM528 448Q528 450 528 451T527 455Q527 460 528 464T534 469Q535 469 535 469T537 468Q537 463 528 448ZM926 547Q924 545 923 544T920 540Q919 544 919 551Q920
562 924 570T936 579Q942 579 942 574Q942 568 937 561T926 547ZM478 411Q473 416 473 427Q473 430 478 442T495 455Q505 452 505 440Q505 424 497 417T484 409Q482 410 481 410T478 411ZM429 426Q428 428 427 430T426 434Q426 443 434 443Q436 443 436 441Q436
437 429 426ZM312 386Q308 379 300 373Q300 375 300 376T299 379Q299 396 305 403T318 411Q322 411 322 406Q322 397 312 386ZM711 540Q706 530 701 520T688 498Q690 526 700 548T718 570Q720 570 720 566Q720 556 711 540ZM850 502Q861 519 864 531Q866 527 868
525T871 517Q871 512 870 511Q870 509 868 503T857 496Q855 496 854 499T851 502H850ZM873 549Q871 555 871 557Q871 566 878 566Q881 566 881 564Q881 560 873 549ZM500 302Q514 302 514 286Q514 274 508 266T493 258Q487 258 483 262T478 274Q478 285 484 293T500
302ZM361 287L128 224L163 515L318 558L317 560L333 569L329 586L346 592L344 610L360 615V633L378 636L379 653L397 655L400 672H417L422 689L440 687L446 703L464 700L472 715L489 710L498 725L515 718L525 731L541 723L553 736L568 725L581 737L595 725L609
736L622 723L637 731L648 718L664 725L674 710L691 715L699 700L716 703L723 687L740 689L745 672H754L1035 748L1000 457L860 418L853 411L862 395L848 384L855 368L840 358L845 342L830 334L833 316L817 310L819 292L802 288V270L785 266L783 249L766 248L763
230H745L740 213L723 215L716 199L699 203L691 187L674 193L664 178L648 185L637 171L622 179L609 167L595 177L581 165L568 177L553 167L541 179L525 171L515 185L498 178L489 193L472 187L464 203L446 199L440 215L422 213L417 230H400L397 248L379 249L378 266L360
270L361 287ZM901 544Q901 542 901 541T900 538Q900 533 903 527T914 520Q920 520 925 522T938 530Q951 539 957 547Q960 551 961 553Q961 554 959 554Q947 542 941 537T928 531Q923 531 921 537Q934 554 938 560T945 574Q945 583 938 583Q924 583 915 569T901
544ZM802 612Q804 612 804 608Q804 601 799 584T788 548T776 508T771 475Q771 459 781 459Q790 459 797 466T811 485V482Q811 470 817 470Q825 470 833 480T849 501Q849 494 859 492Q873 492 880 504T888 522Q888 530 886 533T876 547Q878 552 881 557T884 566Q884
569 881 569Q867 569 862 561T857 547Q857 542 858 540T862 533L863 532Q860 527 856 519T846 502T836 487T826 479Q824 479 824 483Q824 491 830 513T844 559Q853 586 864 619Q862 619 860 620Q854 622 849 622Q842 622 838 621Q841 621 841 616Q841 611 839 601T833
579T826 553T819 526L812 524Q815 524 815 517Q815 511 812 503T805 486T795 471T785 465Q781 465 781 471Q781 479 787 496T800 533T814 571T821 602Q821 614 812 614Q810 614 808 614T801 612H802ZM491 248Q506 248 516 258T527 286Q527 299 520 306T501 313Q485
313 476 302T466 273Q466 263 472 256T491 248ZM594 312H582L573 269L556 312H544L530 249H543L552 291L569 249H581L594 312ZM642 259H610L621 312H608L594 249H640L642 259ZM707 312H692L674 285L662 312H648L665 273L660 249H673L678 272L707 312ZM513 433Q513
428 514 419T523 410Q528 410 531 415Q544 427 546 439T554 452Q554 452 554 447T554 436T557 425T564 420Q571 420 579 428T592 443Q592 430 601 430Q608 430 618 440T629 456Q629 452 632 446T641 440Q646 440 656 449T670 465Q672 450 680 450Q686 450 691 454T701
463T709 472T714 478V480H711Q704 469 700 467T693 464Q688 464 686 477Q686 480 686 483T687 491Q702 515 713 537T725 570Q725 575 721 575Q717 575 709 569T692 549T677 518T670 474V469V468L665 463Q663 460 660 457T653 453Q648 453 646 460Q645 466 644 471Q643
476 642 479T640 483Q638 483 637 480Q628 462 626 456T615 446Q607 446 607 454Q607 463 611 470T620 483T630 490T638 493Q642 493 642 493T644 492Q644 493 645 493Q645 493 646 494Q646 496 640 496Q626 496 612 481T592 448L588 443Q586 441 583 438T576 434Q573
434 573 437T571 445Q571 448 571 454T571 465T569 475T566 480Q564 480 561 475Q560 473 557 467T550 453T543 438T537 429Q535 429 533 433T529 445Q532 451 535 457T539 468Q539 471 535 471Q527 471 521 463T513 443V433ZM457 421Q456 419 456 414Q456 409
459 403T470 397Q483 397 495 410T508 441Q508 450 504 454T494 458Q484 458 472 448T457 421ZM237 378Q269 386 285 408T302 450Q302 462 295 470T273 478Q270 478 267 478T260 477Q223 469 207 449T190 414Q190 397 205 397Q208 397 216 399Q210 399 210 414Q210
429 220 448T259 473H264Q273 473 277 467T281 450Q281 431 270 410T239 382Q245 400 251 416T261 444L257 448Q255 450 253 451T245 453Q240 453 238 452Q240 452 240 447Q240 439 236 423T225 388T215 353T210 324Q210 312 217 312H220Q219 312 219 315Q219 322
224 339T237 378ZM359 416Q360 416 362 416T366 417Q368 417 369 417T371 411Q370 408 370 402Q370 391 371 383T381 374Q391 374 401 386T415 402L420 408Q426 402 426 395V388Q426 384 424 380Q420 373 413 373Q410 373 409 376T407 379Q405 379 405 378Q405
375 408 372T416 369Q422 369 427 372T436 381T442 391T444 399Q444 403 443 408T431 424Q435 429 437 435T440 443Q440 446 437 446Q423 446 418 438T413 424Q413 419 414 417T418 410L413 403H412L408 397Q406 394 402 390T393 386Q390 386 389 391T387 403V412Q387
420 387 423T384 426Q382 426 374 425T362 424Q363 425 363 428Q363 432 360 432Q350 432 350 421Q350 417 352 417T357 417Q357 416 357 416T356 413Q339 381 327 373T309 364Q304 364 301 370Q309 380 317 389T326 408Q326 410 325 412T318 415Q310 415 303 410T291
398T284 383T281 371Q281 363 284 358T295 352Q307 352 318 362T336 379Q338 379 341 384T348 395T355 408T359 416Z" />
<glyph unicode="=" glyph-name="equal" horiz-adv-x="1158" d="M167 77H211V38Q189 22 167 22Q142 22 128 37T114 75Q114 101 128 115T167 130Q186 130 195 122T209 99L197 95Q191 118 167 118Q147 118 138 106T128 76Q128 55 139 45T167 34Q176 34 184 37T197
45V64H167V77ZM295 58H238Q241 33 261 33Q276 33 281 48L295 46Q287 22 261 22Q244 22 235 32T225 61Q225 80 234 90T261 101Q275 101 285 91T295 61V58ZM281 69Q280 80 275 85T261 91Q252 91 246 85T239 69H281ZM314 31Q313 33 313 46V89H304V99H313V118L326 126V99H338V89H326V45Q326
37 327 36T333 35H338L341 24Q337 23 331 23Q323 23 320 25T314 31ZM407 99H422V89H407V24H395V89H383V99H395V107Q395 118 399 124T416 130Q418 130 421 130T427 129L426 117Q423 118 418 118Q407 118 407 106V99ZM480 99H493V24H481V35Q474 22 457 22Q444 22
438 28T432 52V99H445V57Q445 43 448 38T460 33Q480 33 480 59V99ZM513 128H526V24H513V128ZM545 128H558V24H545V128ZM637 116Q634 113 634 106V99H649V89H634V24H622V89H610V99H622V107Q622 118 626 124T642 130Q645 130 648 130T654 129L653 117Q650 118 645
118Q639 118 637 116ZM689 101Q705 101 715 91T725 63Q725 43 716 33T689 22Q673 22 664 32T654 61Q654 81 664 91T689 101ZM705 40Q712 47 712 62Q712 90 689 90Q667 90 667 61Q667 47 673 40T689 33Q699 33 705 40ZM789 24V70Q789 90 773 90Q765 90 759 85T753
65V24H740V99H751V89Q760 101 775 101Q778 101 782 101T791 99T798 90T801 70V24H789ZM824 89H814V99H824V118L836 126V99H849V89H836V45Q836 37 838 36T843 35H849L851 24Q847 23 841 23Q830 23 827 26T824 46V89ZM963 55Q963 38 963 34T968 24H954Q952 26 952
28T951 33Q939 22 924 22Q898 22 898 44Q898 54 903 58T916 65T933 68T950 72Q950 83 946 86T932 90Q922 90 919 87T913 76L900 78Q902 91 911 96T934 101Q950 101 956 96T963 73V55ZM950 61Q944 59 938 58T925 56T915 52T911 44Q911 32 927 32Q937 32 943 37T950
57V61ZM987 31Q986 33 986 46V89H976V99H986V118L998 126V99H1011V89H998V45Q998 37 1000 36T1005 35H1011L1013 24Q1009 23 1003 23Q990 23 987 31ZM1027 38H1042V24H1027V38ZM1042 99V85H1027V99H1042ZM197 -23H211L194 -93H179L165 -41L151 -93H136L119 -23H134L144
-71L157 -23H173L186 -72L197 -23ZM288 -23H302L286 -93H271L257 -41L243 -93H228L211 -23H225L236 -71L249 -23H265L277 -72L288 -23ZM380 -23H394L377 -93H362L348 -41L335 -93H319L303 -23H317L328 -71L341 -23H357L369 -72L380 -23ZM396 -79H409V-93H396V-79ZM469
-23H490V-93H477V-38L463 -93H449L436 -38V-93H423V-23H444L456 -71L469 -23ZM539 -23L567 -93H551L545 -77H518L512 -93H497L524 -23H539ZM541 -65L531 -39L522 -65H541ZM639 -23H653L636 -93H622L607 -41L594 -93H579L562 -23H576L587 -71L600 -23H616L628 -72L639
-23ZM703 -23H716V-93H702L674 -48V-93H661V-23H674L703 -70V-23ZM773 -55Q784 -60 784 -73Q784 -82 777 -88T756 -94Q730 -94 727 -70L741 -69Q742 -82 756 -82Q764 -82 766 -79T769 -73Q769 -71 769 -69T763 -65Q743 -60 736 -56T729 -42Q729 -31 737 -27T755
-22Q769 -22 775 -28T781 -43L768 -44Q765 -34 755 -34Q743 -34 743 -41Q743 -46 754 -48T773 -55ZM795 -79H809V-93H795V-79ZM861 -79Q866 -74 867 -67L881 -72Q873 -94 851 -94Q837 -94 829 -85T820 -59Q820 -42 829 -32T852 -22Q874 -22 880 -43L867 -46Q864
-34 852 -34Q834 -34 834 -58Q834 -72 839 -77T851 -82Q856 -82 861 -79ZM923 -22Q939 -22 948 -31T957 -58Q957 -76 948 -85T924 -94Q890 -94 890 -58Q890 -37 901 -30T923 -22ZM937 -76Q943 -70 943 -58Q943 -34 924 -34Q904 -34 904 -58Q904 -82 924 -82Q932
-82 937 -76ZM1014 -23H1035V-93H1022V-38L1008 -93H995L981 -38V-93H968V-23H989L1001 -71L1014 -23ZM528 448Q528 450 528 451T527 455Q527 460 528 464T534 469Q535 469 535 469T537 468Q537 463 528 448ZM926 547Q924 545 923 544T920 540Q919 544 919 551Q920
562 924 570T936 579Q942 579 942 574Q942 568 937 561T926 547ZM478 411Q473 416 473 427Q473 430 478 442T495 455Q505 452 505 440Q505 424 497 417T484 409Q482 410 481 410T478 411ZM429 426Q428 428 427 430T426 434Q426 443 434 443Q436 443 436 441Q436
437 429 426ZM312 386Q308 379 300 373Q300 375 300 376T299 379Q299 396 305 403T318 411Q322 411 322 406Q322 397 312 386ZM711 540Q706 530 701 520T688 498Q690 526 700 548T718 570Q720 570 720 566Q720 556 711 540ZM850 502Q861 519 864 531Q866 527 868
525T871 517Q871 512 870 511Q870 509 868 503T857 496Q855 496 854 499T851 502H850ZM873 549Q871 555 871 557Q871 566 878 566Q881 566 881 564Q881 560 873 549ZM500 302Q514 302 514 286Q514 274 508 266T493 258Q487 258 483 262T478 274Q478 285 484 293T500
302ZM361 287L128 224L163 515L318 558L317 560L333 569L329 586L346 592L344 610L360 615V633L378 636L379 653L397 655L400 672H417L422 689L440 687L446 703L464 700L472 715L489 710L498 725L515 718L525 731L541 723L553 736L568 725L581 737L595 725L609
736L622 723L637 731L648 718L664 725L674 710L691 715L699 700L716 703L723 687L740 689L745 672H754L1035 748L1000 457L860 418L853 411L862 395L848 384L855 368L840 358L845 342L830 334L833 316L817 310L819 292L802 288V270L785 266L783 249L766 248L763
230H745L740 213L723 215L716 199L699 203L691 187L674 193L664 178L648 185L637 171L622 179L609 167L595 177L581 165L568 177L553 167L541 179L525 171L515 185L498 178L489 193L472 187L464 203L446 199L440 215L422 213L417 230H400L397 248L379 249L378 266L360
270L361 287ZM901 544Q901 542 901 541T900 538Q900 533 903 527T914 520Q920 520 925 522T938 530Q951 539 957 547Q960 551 961 553Q961 554 959 554Q947 542 941 537T928 531Q923 531 921 537Q934 554 938 560T945 574Q945 583 938 583Q924 583 915 569T901
544ZM802 612Q804 612 804 608Q804 601 799 584T788 548T776 508T771 475Q771 459 781 459Q790 459 797 466T811 485V482Q811 470 817 470Q825 470 833 480T849 501Q849 494 859 492Q873 492 880 504T888 522Q888 530 886 533T876 547Q878 552 881 557T884 566Q884
569 881 569Q867 569 862 561T857 547Q857 542 858 540T862 533L863 532Q860 527 856 519T846 502T836 487T826 479Q824 479 824 483Q824 491 830 513T844 559Q853 586 864 619Q862 619 860 620Q854 622 849 622Q842 622 838 621Q841 621 841 616Q841 611 839 601T833
579T826 553T819 526L812 524Q815 524 815 517Q815 511 812 503T805 486T795 471T785 465Q781 465 781 471Q781 479 787 496T800 533T814 571T821 602Q821 614 812 614Q810 614 808 614T801 612H802ZM491 248Q506 248 516 258T527 286Q527 299 520 306T501 313Q485
313 476 302T466 273Q466 263 472 256T491 248ZM594 312H582L573 269L556 312H544L530 249H543L552 291L569 249H581L594 312ZM642 259H610L621 312H608L594 249H640L642 259ZM707 312H692L674 285L662 312H648L665 273L660 249H673L678 272L707 312ZM513 433Q513
428 514 419T523 410Q528 410 531 415Q544 427 546 439T554 452Q554 452 554 447T554 436T557 425T564 420Q571 420 579 428T592 443Q592 430 601 430Q608 430 618 440T629 456Q629 452 632 446T641 440Q646 440 656 449T670 465Q672 450 680 450Q686 450 691 454T701
463T709 472T714 478V480H711Q704 469 700 467T693 464Q688 464 686 477Q686 480 686 483T687 491Q702 515 713 537T725 570Q725 575 721 575Q717 575 709 569T692 549T677 518T670 474V469V468L665 463Q663 460 660 457T653 453Q648 453 646 460Q645 466 644 471Q643
476 642 479T640 483Q638 483 637 480Q628 462 626 456T615 446Q607 446 607 454Q607 463 611 470T620 483T630 490T638 493Q642 493 642 493T644 492Q644 493 645 493Q645 493 646 494Q646 496 640 496Q626 496 612 481T592 448L588 443Q586 441 583 438T576 434Q573
434 573 437T571 445Q571 448 571 454T571 465T569 475T566 480Q564 480 561 475Q560 473 557 467T550 453T543 438T537 429Q535 429 533 433T529 445Q532 451 535 457T539 468Q539 471 535 471Q527 471 521 463T513 443V433ZM457 421Q456 419 456 414Q456 409
459 403T470 397Q483 397 495 410T508 441Q508 450 504 454T494 458Q484 458 472 448T457 421ZM237 378Q269 386 285 408T302 450Q302 462 295 470T273 478Q270 478 267 478T260 477Q223 469 207 449T190 414Q190 397 205 397Q208 397 216 399Q210 399 210 414Q210
429 220 448T259 473H264Q273 473 277 467T281 450Q281 431 270 410T239 382Q245 400 251 416T261 444L257 448Q255 450 253 451T245 453Q240 453 238 452Q240 452 240 447Q240 439 236 423T225 388T215 353T210 324Q210 312 217 312H220Q219 312 219 315Q219 322
224 339T237 378ZM359 416Q360 416 362 416T366 417Q368 417 369 417T371 411Q370 408 370 402Q370 391 371 383T381 374Q391 374 401 386T415 402L420 408Q426 402 426 395V388Q426 384 424 380Q420 373 413 373Q410 373 409 376T407 379Q405 379 405 378Q405
375 408 372T416 369Q422 369 427 372T436 381T442 391T444 399Q444 403 443 408T431 424Q435 429 437 435T440 443Q440 446 437 446Q423 446 418 438T413 424Q413 419 414 417T418 410L413 403H412L408 397Q406 394 402 390T393 386Q390 386 389 391T387 403V412Q387
420 387 423T384 426Q382 426 374 425T362 424Q363 425 363 428Q363 432 360 432Q350 432 350 421Q350 417 352 417T357 417Q357 416 357 416T356 413Q339 381 327 373T309 364Q304 364 301 370Q309 380 317 389T326 408Q326 410 325 412T318 415Q310 415 303 410T291
398T284 383T281 371Q281 363 284 358T295 352Q307 352 318 362T336 379Q338 379 341 384T348 395T355 408T359 416Z" />
<glyph unicode="&gt;" glyph-name="greater" horiz-adv-x="1158" d="M167 77H211V38Q189 22 167 22Q142 22 128 37T114 75Q114 101 128 115T167 130Q186 130 195 122T209 99L197 95Q191 118 167 118Q147 118 138 106T128 76Q128 55 139 45T167 34Q176 34 184 37T197
45V64H167V77ZM295 58H238Q241 33 261 33Q276 33 281 48L295 46Q287 22 261 22Q244 22 235 32T225 61Q225 80 234 90T261 101Q275 101 285 91T295 61V58ZM281 69Q280 80 275 85T261 91Q252 91 246 85T239 69H281ZM314 31Q313 33 313 46V89H304V99H313V118L326 126V99H338V89H326V45Q326
37 327 36T333 35H338L341 24Q337 23 331 23Q323 23 320 25T314 31ZM407 99H422V89H407V24H395V89H383V99H395V107Q395 118 399 124T416 130Q418 130 421 130T427 129L426 117Q423 118 418 118Q407 118 407 106V99ZM480 99H493V24H481V35Q474 22 457 22Q444 22
438 28T432 52V99H445V57Q445 43 448 38T460 33Q480 33 480 59V99ZM513 128H526V24H513V128ZM545 128H558V24H545V128ZM637 116Q634 113 634 106V99H649V89H634V24H622V89H610V99H622V107Q622 118 626 124T642 130Q645 130 648 130T654 129L653 117Q650 118 645
118Q639 118 637 116ZM689 101Q705 101 715 91T725 63Q725 43 716 33T689 22Q673 22 664 32T654 61Q654 81 664 91T689 101ZM705 40Q712 47 712 62Q712 90 689 90Q667 90 667 61Q667 47 673 40T689 33Q699 33 705 40ZM789 24V70Q789 90 773 90Q765 90 759 85T753
65V24H740V99H751V89Q760 101 775 101Q778 101 782 101T791 99T798 90T801 70V24H789ZM824 89H814V99H824V118L836 126V99H849V89H836V45Q836 37 838 36T843 35H849L851 24Q847 23 841 23Q830 23 827 26T824 46V89ZM963 55Q963 38 963 34T968 24H954Q952 26 952
28T951 33Q939 22 924 22Q898 22 898 44Q898 54 903 58T916 65T933 68T950 72Q950 83 946 86T932 90Q922 90 919 87T913 76L900 78Q902 91 911 96T934 101Q950 101 956 96T963 73V55ZM950 61Q944 59 938 58T925 56T915 52T911 44Q911 32 927 32Q937 32 943 37T950
57V61ZM987 31Q986 33 986 46V89H976V99H986V118L998 126V99H1011V89H998V45Q998 37 1000 36T1005 35H1011L1013 24Q1009 23 1003 23Q990 23 987 31ZM1027 38H1042V24H1027V38ZM1042 99V85H1027V99H1042ZM197 -23H211L194 -93H179L165 -41L151 -93H136L119 -23H134L144
-71L157 -23H173L186 -72L197 -23ZM288 -23H302L286 -93H271L257 -41L243 -93H228L211 -23H225L236 -71L249 -23H265L277 -72L288 -23ZM380 -23H394L377 -93H362L348 -41L335 -93H319L303 -23H317L328 -71L341 -23H357L369 -72L380 -23ZM396 -79H409V-93H396V-79ZM469
-23H490V-93H477V-38L463 -93H449L436 -38V-93H423V-23H444L456 -71L469 -23ZM539 -23L567 -93H551L545 -77H518L512 -93H497L524 -23H539ZM541 -65L531 -39L522 -65H541ZM639 -23H653L636 -93H622L607 -41L594 -93H579L562 -23H576L587 -71L600 -23H616L628 -72L639
-23ZM703 -23H716V-93H702L674 -48V-93H661V-23H674L703 -70V-23ZM773 -55Q784 -60 784 -73Q784 -82 777 -88T756 -94Q730 -94 727 -70L741 -69Q742 -82 756 -82Q764 -82 766 -79T769 -73Q769 -71 769 -69T763 -65Q743 -60 736 -56T729 -42Q729 -31 737 -27T755
-22Q769 -22 775 -28T781 -43L768 -44Q765 -34 755 -34Q743 -34 743 -41Q743 -46 754 -48T773 -55ZM795 -79H809V-93H795V-79ZM861 -79Q866 -74 867 -67L881 -72Q873 -94 851 -94Q837 -94 829 -85T820 -59Q820 -42 829 -32T852 -22Q874 -22 880 -43L867 -46Q864
-34 852 -34Q834 -34 834 -58Q834 -72 839 -77T851 -82Q856 -82 861 -79ZM923 -22Q939 -22 948 -31T957 -58Q957 -76 948 -85T924 -94Q890 -94 890 -58Q890 -37 901 -30T923 -22ZM937 -76Q943 -70 943 -58Q943 -34 924 -34Q904 -34 904 -58Q904 -82 924 -82Q932
-82 937 -76ZM1014 -23H1035V-93H1022V-38L1008 -93H995L981 -38V-93H968V-23H989L1001 -71L1014 -23ZM528 448Q528 450 528 451T527 455Q527 460 528 464T534 469Q535 469 535 469T537 468Q537 463 528 448ZM926 547Q924 545 923 544T920 540Q919 544 919 551Q920
562 924 570T936 579Q942 579 942 574Q942 568 937 561T926 547ZM478 411Q473 416 473 427Q473 430 478 442T495 455Q505 452 505 440Q505 424 497 417T484 409Q482 410 481 410T478 411ZM429 426Q428 428 427 430T426 434Q426 443 434 443Q436 443 436 441Q436
437 429 426ZM312 386Q308 379 300 373Q300 375 300 376T299 379Q299 396 305 403T318 411Q322 411 322 406Q322 397 312 386ZM711 540Q706 530 701 520T688 498Q690 526 700 548T718 570Q720 570 720 566Q720 556 711 540ZM850 502Q861 519 864 531Q866 527 868
525T871 517Q871 512 870 511Q870 509 868 503T857 496Q855 496 854 499T851 502H850ZM873 549Q871 555 871 557Q871 566 878 566Q881 566 881 564Q881 560 873 549ZM500 302Q514 302 514 286Q514 274 508 266T493 258Q487 258 483 262T478 274Q478 285 484 293T500
302ZM361 287L128 224L163 515L318 558L317 560L333 569L329 586L346 592L344 610L360 615V633L378 636L379 653L397 655L400 672H417L422 689L440 687L446 703L464 700L472 715L489 710L498 725L515 718L525 731L541 723L553 736L568 725L581 737L595 725L609
736L622 723L637 731L648 718L664 725L674 710L691 715L699 700L716 703L723 687L740 689L745 672H754L1035 748L1000 457L860 418L853 411L862 395L848 384L855 368L840 358L845 342L830 334L833 316L817 310L819 292L802 288V270L785 266L783 249L766 248L763
230H745L740 213L723 215L716 199L699 203L691 187L674 193L664 178L648 185L637 171L622 179L609 167L595 177L581 165L568 177L553 167L541 179L525 171L515 185L498 178L489 193L472 187L464 203L446 199L440 215L422 213L417 230H400L397 248L379 249L378 266L360
270L361 287ZM901 544Q901 542 901 541T900 538Q900 533 903 527T914 520Q920 520 925 522T938 530Q951 539 957 547Q960 551 961 553Q961 554 959 554Q947 542 941 537T928 531Q923 531 921 537Q934 554 938 560T945 574Q945 583 938 583Q924 583 915 569T901
544ZM802 612Q804 612 804 608Q804 601 799 584T788 548T776 508T771 475Q771 459 781 459Q790 459 797 466T811 485V482Q811 470 817 470Q825 470 833 480T849 501Q849 494 859 492Q873 492 880 504T888 522Q888 530 886 533T876 547Q878 552 881 557T884 566Q884
569 881 569Q867 569 862 561T857 547Q857 542 858 540T862 533L863 532Q860 527 856 519T846 502T836 487T826 479Q824 479 824 483Q824 491 830 513T844 559Q853 586 864 619Q862 619 860 620Q854 622 849 622Q842 622 838 621Q841 621 841 616Q841 611 839 601T833
579T826 553T819 526L812 524Q815 524 815 517Q815 511 812 503T805 486T795 471T785 465Q781 465 781 471Q781 479 787 496T800 533T814 571T821 602Q821 614 812 614Q810 614 808 614T801 612H802ZM491 248Q506 248 516 258T527 286Q527 299 520 306T501 313Q485
313 476 302T466 273Q466 263 472 256T491 248ZM594 312H582L573 269L556 312H544L530 249H543L552 291L569 249H581L594 312ZM642 259H610L621 312H608L594 249H640L642 259ZM707 312H692L674 285L662 312H648L665 273L660 249H673L678 272L707 312ZM513 433Q513
428 514 419T523 410Q528 410 531 415Q544 427 546 439T554 452Q554 452 554 447T554 436T557 425T564 420Q571 420 579 428T592 443Q592 430 601 430Q608 430 618 440T629 456Q629 452 632 446T641 440Q646 440 656 449T670 465Q672 450 680 450Q686 450 691 454T701
463T709 472T714 478V480H711Q704 469 700 467T693 464Q688 464 686 477Q686 480 686 483T687 491Q702 515 713 537T725 570Q725 575 721 575Q717 575 709 569T692 549T677 518T670 474V469V468L665 463Q663 460 660 457T653 453Q648 453 646 460Q645 466 644 471Q643
476 642 479T640 483Q638 483 637 480Q628 462 626 456T615 446Q607 446 607 454Q607 463 611 470T620 483T630 490T638 493Q642 493 642 493T644 492Q644 493 645 493Q645 493 646 494Q646 496 640 496Q626 496 612 481T592 448L588 443Q586 441 583 438T576 434Q573
434 573 437T571 445Q571 448 571 454T571 465T569 475T566 480Q564 480 561 475Q560 473 557 467T550 453T543 438T537 429Q535 429 533 433T529 445Q532 451 535 457T539 468Q539 471 535 471Q527 471 521 463T513 443V433ZM457 421Q456 419 456 414Q456 409
459 403T470 397Q483 397 495 410T508 441Q508 450 504 454T494 458Q484 458 472 448T457 421ZM237 378Q269 386 285 408T302 450Q302 462 295 470T273 478Q270 478 267 478T260 477Q223 469 207 449T190 414Q190 397 205 397Q208 397 216 399Q210 399 210 414Q210
429 220 448T259 473H264Q273 473 277 467T281 450Q281 431 270 410T239 382Q245 400 251 416T261 444L257 448Q255 450 253 451T245 453Q240 453 238 452Q240 452 240 447Q240 439 236 423T225 388T215 353T210 324Q210 312 217 312H220Q219 312 219 315Q219 322
224 339T237 378ZM359 416Q360 416 362 416T366 417Q368 417 369 417T371 411Q370 408 370 402Q370 391 371 383T381 374Q391 374 401 386T415 402L420 408Q426 402 426 395V388Q426 384 424 380Q420 373 413 373Q410 373 409 376T407 379Q405 379 405 378Q405
375 408 372T416 369Q422 369 427 372T436 381T442 391T444 399Q444 403 443 408T431 424Q435 429 437 435T440 443Q440 446 437 446Q423 446 418 438T413 424Q413 419 414 417T418 410L413 403H412L408 397Q406 394 402 390T393 386Q390 386 389 391T387 403V412Q387
420 387 423T384 426Q382 426 374 425T362 424Q363 425 363 428Q363 432 360 432Q350 432 350 421Q350 417 352 417T357 417Q357 416 357 416T356 413Q339 381 327 373T309 364Q304 364 301 370Q309 380 317 389T326 408Q326 410 325 412T318 415Q310 415 303 410T291
398T284 383T281 371Q281 363 284 358T295 352Q307 352 318 362T336 379Q338 379 341 384T348 395T355 408T359 416Z" />
<glyph unicode="?" glyph-name="question" horiz-adv-x="291" d="M94 163Q111 199 128 227T161 277T194 318T226 352Q187 354 166 384T141 458T151 551T197 642Q231 684 275 702T361 718T440 695T494 640T509 560T466 461Q421 399 366 362T259 297T162 239T94
163ZM287 598Q266 563 252 525T230 452T222 392T231 357Q249 374 267 390T305 425T345 466T387 519Q417 561 427 594T435 649T417 680T381 685T335 659T287 598ZM49 105Q79 105 89 95T97 67T82 29T56 -16Q27 -22 10 -16T-10 6T1 48T49 105Z" />
<glyph unicode="@" glyph-name="at" horiz-adv-x="768" d="M524 505Q562 505 587 498T627 481Q645 470 654 457Q572 340 515 248Q491 209 469 171T434 104T417 57T426 39Q446 39 472 58T526 111T583 187T635 279T678 376T706 469T713 550T692 610Q667 633 623
637T527 633T422 606T328 566Q256 518 200 449T107 304T56 154T55 23T112 -68T233 -95Q173 -149 126 -160T45 -153T-8 -87T-29 20T-16 154T33 297T121 433T252 547Q281 569 325 590T419 626T523 650T624 656T711 638T774 592Q810 555 808 497T779 372T704 240T601
120T489 33T385 -1Q350 -1 344 23T350 88Q315 49 278 24T204 -1Q171 -1 160 28T154 102T179 204T228 316T293 418T368 494T443 523T513 489Q526 473 529 446Q540 473 540 489T524 505ZM236 34Q257 34 285 59T341 123T394 207T434 293T451 362T435 396H498Q503 416
502 430T491 450Q467 462 433 436T364 364T297 260T244 153T220 68T236 34ZM535 641Q525 640 516 639T497 636Q506 638 515 639T535 641Z" />
<glyph unicode="A" glyph-name="A" horiz-adv-x="904" d="M978 821Q1016 821 1041 814T1081 797Q1099 786 1108 773Q1014 621 936 491Q902 435 869 379T806 272T754 182T720 119Q703 84 698 63T706 41Q727 41 753 60T805 109T852 174T887 240T900 294T882 322H985Q938
231 886 161Q863 131 838 102T784 51T726 14T666 0Q643 0 633 11T623 40T630 85T651 141Q661 165 679 199T720 276T769 365T821 460T873 556T921 645Q860 582 788 502T635 339Q664 324 677 305T691 266T683 226T658 192T622 168T582 160Q589 167 592 179T595 207T589
240T571 274Q514 218 457 169T343 82T232 22T129 0Q68 0 37 24T2 86T20 169T88 254T203 325T361 364Q449 373 510 369T609 351Q676 417 737 483T847 605T928 698T969 748Q983 782 986 801T978 821ZM180 59Q214 59 257 77T348 128T448 204T552 296Q525 321 478 335T358
339Q309 332 268 309T196 255T147 189T125 126T134 78T180 59Z" />
<glyph unicode="B" glyph-name="B" horiz-adv-x="748" d="M349 469Q289 460 260 484T230 550T261 642T349 734T492 802T689 821Q767 816 812 796T878 745T896 677T875 602T825 528T757 465T681 420T606 403Q654 403 674 370T689 289T651 185T561 85T420 15T231
0Q145 9 96 41T27 116T17 202T58 281T142 333T261 336Q248 337 226 315T184 258T149 182T137 106T163 48T242 24Q311 24 370 51T473 121T545 211T575 301T557 370T481 398H463Q422 341 386 287T325 192T289 126T291 101Q254 101 248 126T255 192T300 287T366 397T438
509T500 611T538 690T537 731Q575 731 600 724T640 707Q658 696 667 683Q634 635 584 565T479 420H490Q548 420 601 448T695 518T760 609T787 701T765 771T682 799Q602 799 543 775T443 714T378 634T343 555T335 494T349 469Z" />
<glyph unicode="C" glyph-name="C" horiz-adv-x="453" d="M286 322Q303 323 322 346T364 407T409 492T458 587T510 680T566 758Q537 779 495 759T405 692T308 577T218 436T148 290T109 159T115 65T180 29Q211 29 246 49T316 100T380 168T427 237T448 293T434 322H538Q483
231 421 161Q394 131 364 102T300 51T232 14T160 0Q102 0 72 29T33 108T36 222T72 357T135 497T217 628T310 736T407 805T499 823T580 773Q609 803 639 814T702 811Q690 811 668 773T614 679T544 557T464 438T377 350T286 322Z" />
<glyph unicode="D" glyph-name="D" horiz-adv-x="815" d="M546 757Q584 757 609 750T649 733Q667 722 676 709Q655 678 624 634T557 537T483 429T409 318T343 216T292 131T264 73T266 51Q228 51 224 79T235 154T285 261T358 385T436 511T504 625T546 712T546 757ZM345
469Q300 462 274 477T240 522T241 589T276 665T343 739T439 796T564 824T714 810Q793 791 831 744T875 634T857 497T787 350T678 210T540 94T386 18T227 0Q141 9 92 41T23 116T13 202T54 281T138 333T257 336Q244 337 222 315T180 258T145 182T133 106T159 48T238
24Q293 24 354 55T475 137T589 253T687 388T757 525T791 648T777 742T704 789Q625 803 565 785T460 731T388 650T347 565T333 497T345 469Z" />
<glyph unicode="E" glyph-name="E" horiz-adv-x="484" d="M414 479Q429 480 443 494T472 532T500 584T528 645T559 706T594 760Q572 773 541 771T477 751T414 700T364 620Q341 564 342 521T355 447Q368 412 393 385Q346 382 302 365Q264 351 224 320T155 233Q131
186 127 148T133 84T164 43T213 29Q243 29 279 49T349 100T412 168T460 237T481 293T467 322H570Q515 231 453 161Q427 131 397 102T333 51T265 14T193 0Q154 0 119 18T62 69T37 149T60 254Q88 317 129 351T209 401Q254 419 301 423Q296 428 280 446T253 496T240
569T264 663Q292 722 336 760T430 813T527 820T608 778Q634 807 665 818T735 811Q723 811 707 785T671 719T624 636T567 554T497 495T414 479Z" />
<glyph unicode="F" glyph-name="F" horiz-adv-x="526" d="M874 824Q865 776 842 746T784 700T708 680T618 678T520 688T421 705Q437 697 446 686T460 665Q465 654 468 641L321 427Q365 425 407 422T486 418T549 418T588 430Q548 371 510 348T433 323T357 337T281
369Q236 301 193 235T120 117T76 32T75 0Q47 0 38 16T32 60T53 127T93 210T146 303T205 399Q173 409 140 409T74 390Q98 410 136 418T222 428Q254 479 282 526T331 612T360 678T361 716Q312 724 269 728T191 727T134 706T104 658Q110 705 143 731T228 771T344 786T477
787T611 782T732 779T825 790T874 824Z" />
<glyph unicode="G" glyph-name="G" horiz-adv-x="534" d="M392 360Q438 360 465 350T506 328Q462 243 422 161T334 15T226 -90T81 -130Q97 -130 120 -113T171 -66T226 2T282 82Q250 47 216 24T146 0Q98 0 77 30T55 111T71 228T120 365T192 507T281 641T380 750T480
819T574 834T654 778Q683 807 713 817T778 811Q766 811 746 779T698 698T636 595T563 494T481 420T393 398Q410 399 427 418T464 469T503 539T545 618T590 695T639 762Q607 788 564 770T472 706T374 591T280 447T201 298T147 163T127 66T154 29Q175 29 196 41T238
72T278 116T316 167Q357 228 396 306L420 304Q403 266 381 227Q362 194 337 155T282 82Q312 128 337 174T379 259T399 325T392 360Z" />
<glyph unicode="H" glyph-name="H" horiz-adv-x="567" d="M445 379Q475 430 506 482T564 584T615 676T652 751T669 802T662 821Q700 821 724 814T764 797Q782 786 791 773Q693 621 609 491Q573 435 538 379T471 272T416 182T380 119Q361 84 355 63T363 41Q384
41 410 60T463 109T513 174T550 240T565 294T548 322H652Q602 231 547 161Q523 131 497 102T441 51T382 14T321 0Q298 0 289 11T279 40T288 85T311 141Q325 171 352 219T413 325Q396 305 376 295T335 282T290 282T244 292Q207 232 176 179T123 87T94 24T96 0Q63
0 57 25T64 94T105 195T170 316Q144 324 120 329T76 333T40 318T14 280Q24 313 43 333T88 363T143 375T205 377Q232 423 259 468T313 557T361 640T400 712Q367 670 322 627T235 542T164 464T132 398Q103 453 110 495T147 570T219 629T305 679T382 726T429 777L434
797V799Q436 816 429 821Q467 821 492 814T532 797Q550 786 559 773Q539 745 510 701T445 603T370 489T292 368Q319 365 344 363T391 362T427 371T451 392L445 379Z" />
<glyph unicode="I" glyph-name="I" horiz-adv-x="338" d="M428 821Q466 821 491 814T530 797Q547 786 556 773Q459 621 375 491Q339 435 304 379T237 272T181 182T145 119Q127 84 121 63T128 41Q149 41 176 60T229 109T279 174T316 240T331 294T314 322H418Q368
231 313 161Q289 131 263 102T207 51T148 14T87 0Q64 0 55 11T45 40T54 85T77 141Q89 167 112 208T164 298T225 402T288 511T348 615T397 707Q364 665 319 623T234 540T164 463T132 398Q104 452 110 492T144 565T213 624T296 673T373 719T425 768Q428 776 430 784T435
798V799Q440 821 428 821Z" />
<glyph unicode="J" glyph-name="J" horiz-adv-x="557" d="M617 821Q655 821 680 814T720 797Q737 786 746 773Q617 504 492 303Q439 217 381 139T266 4T156 -78T56 -82Q21 -66 13 -30T15 48T54 130T117 196T195 225T277 197Q259 197 232 181T177 138T121 81T78
20T57 -32T71 -65Q92 -77 122 -60T189 -4T264 91T344 212T422 347T494 485T555 614T599 721Q577 688 547 653T483 581T418 509T360 442T318 383T300 336Q272 390 280 435T318 520T394 592T483 656T565 715T616 772Q630 821 617 821Z" />
<glyph unicode="K" glyph-name="K" horiz-adv-x="548" d="M391 821Q429 821 454 814T494 797Q512 786 521 773Q501 745 472 701T407 603T332 489T254 368Q295 389 343 427T440 510T534 604T613 694T666 763T682 799Q738 796 754 774T756 719T704 645T612 560T496
476T372 403Q398 401 417 393T450 374Q465 363 476 348Q423 262 389 194Q374 165 362 138T344 89T338 54T352 41Q373 41 399 60T450 109T498 174T532 240T545 294T527 322H631Q585 231 532 161Q509 131 484 102T430 51T371 14T311 0Q281 0 269 14T257 53T267 108T290
174T318 242T342 305T354 357T345 390Q317 376 291 366T241 347Q198 279 160 216T96 105T59 29T58 0Q28 0 21 21T23 79T54 165T107 271T173 386T243 504T309 615T361 710Q328 668 283 625T197 541T126 464T94 398Q66 452 73 493T108 568T178 626T262 675T339 722T389
771Q403 812 391 821Z" />
<glyph unicode="L" glyph-name="L" horiz-adv-x="564" d="M560 66Q530 10 498 -16T432 -47T364 -44T294 -19T223 12T154 37T86 40T20 7Q44 39 70 57T125 85T182 94T241 91Q223 108 231 147T263 238T322 350T397 473T473 594T536 700T574 780T574 821Q612 821 638
814T680 797Q698 786 710 773Q683 734 641 673T549 540T451 394T362 256T297 146T273 85Q316 76 357 63T435 43T504 39T560 66Z" />
<glyph unicode="M" glyph-name="M" horiz-adv-x="660" d="M447 821Q472 825 492 820T528 807Q546 798 559 785Q477 607 416 468Q390 409 366 352T326 251T302 179T302 152Q441 332 546 475Q591 536 632 595T704 703T748 783T754 821Q792 821 817 814T857 797Q874
786 883 773Q786 621 702 491Q666 435 631 379T564 272T508 182T472 119Q454 84 448 63T455 41Q476 41 503 60T556 109T606 174T643 240T658 294T641 322H745Q695 231 640 161Q616 131 590 102T534 51T475 14T414 0Q391 0 382 11T372 40T380 85T403 141Q420 177
455 238T533 372T620 519T698 658Q664 602 619 535T524 399T425 264T332 143T258 50T214 0Q197 0 198 33T212 122T247 247T297 390T352 533T404 658Q372 606 333 535T256 388T181 237T121 103T85 8T84 -29Q42 -29 29 -7T22 54T53 145T112 255T188 376T270 499T347
615T410 713T447 784T447 821ZM754 821Q762 821 762 811Q761 818 754 821Z" />
<glyph unicode="N" glyph-name="N" horiz-adv-x="564" d="M385 821Q410 825 431 820T468 807Q486 798 500 785Q450 631 413 492Q397 433 383 371T358 252T344 145T344 61Q346 95 362 144T404 251T460 370T522 494T580 610T626 710T651 783T646 821Q684 821 711
814T757 797Q778 786 793 773Q774 742 742 693T672 583T592 457T512 325T442 201T392 98T371 27T389 0Q334 0 306 34T270 123T270 250T294 397T329 545T365 677Q338 628 305 557T239 407T177 250T127 110T98 10T101 -29Q51 -29 30 -7T10 54T30 145T79 255T146 376T221
499T293 615T352 713T386 784T385 821Z" />
<glyph unicode="O" glyph-name="O" horiz-adv-x="530" d="M393 126Q376 126 364 131T344 144Q285 78 229 37T127 -4Q78 -4 61 37T50 143T84 291T152 456T243 614T345 742T447 816T538 811Q534 817 525 821Q571 830 597 818T634 778T642 709T623 618T582 512T525
400T456 288T379 185Q378 170 383 161T406 152Q428 152 454 173T500 222T524 277T510 318H614Q581 264 545 222Q530 204 512 187T475 156T435 134T393 126ZM342 303Q358 358 388 399T457 455Q479 506 497 554T527 646T545 724T548 783Q519 779 482 745T405 657T324
536T248 398T184 262T142 144T128 61T152 29Q187 29 232 77T325 200Q324 218 326 236T333 270Q337 288 342 303Z" />
<glyph unicode="P" glyph-name="P" horiz-adv-x="555" d="M213 469Q152 460 123 484T94 548T125 638T213 729T356 798T554 821Q625 818 669 796T732 738T750 659T725 569T663 480T569 402T446 347T299 326Q257 263 220 205T157 101T120 28T121 0Q91 0 83 19T81
70T108 145T155 238T214 340T278 444T336 541T383 625T408 686T404 719Q442 719 464 707T497 680Q510 662 514 641Q497 617 475 584T426 513T371 432T313 347Q358 349 400 369T481 420T550 490T602 571T632 652T637 724T610 776T547 799Q467 804 408 782T308 723T242
642T208 560T199 495T213 469Z" />
<glyph unicode="Q" glyph-name="Q" horiz-adv-x="509" d="M148 93Q99 93 80 130T64 226T91 359T151 508T232 649T326 762T422 823T510 812Q504 818 496 821Q548 831 577 817T615 770T617 692T589 591T537 479T467 364T387 258T301 171Q296 145 293 122T291 80T297
52T313 41Q334 41 360 60T412 109T459 174T494 240T507 294T489 322H593Q547 231 494 161Q471 131 446 102T392 51T333 14T273 0Q229 0 216 30T205 106Q190 100 176 97T148 93ZM321 254Q349 295 375 343T425 441T468 542T501 638T519 721T521 784Q491 782 452 748T373
659T293 537T222 403Q254 405 277 397T317 378Q335 365 349 348Q344 336 340 321Q336 308 331 291T321 254ZM174 126Q190 126 208 135Q213 173 221 213T234 290T237 353T217 391Q193 338 176 290T151 206T149 148T174 126Z" />
<glyph unicode="R" glyph-name="R" horiz-adv-x="595" d="M190 469Q129 460 100 484T71 548T102 638T190 729T333 798T530 821Q613 818 660 790T724 721T726 630T673 536T570 454T425 402Q449 399 467 391T498 372Q512 361 522 348Q469 262 435 194Q420 165 408
138T390 89T384 54T398 41Q419 41 445 60T496 109T544 174T578 240T591 294T573 322H677Q630 231 578 161Q555 131 530 102T476 51T418 14T358 0Q326 0 315 16T304 58T316 117T342 187T371 258T394 322T400 371T380 396Q351 393 320 393H319Q272 322 226 252T147
126T99 35T97 0Q60 0 55 29T67 105T118 214T191 340T269 469T338 585T381 673T381 719Q419 719 440 707T473 680Q486 662 490 641Q463 601 422 542T334 414Q390 415 441 443T530 513T592 603T617 694T598 765T523 799Q443 804 384 782T284 723T219 642T184 560T176
495T190 469Z" />
<glyph unicode="S" glyph-name="S" horiz-adv-x="509" d="M485 794Q458 800 430 789T380 754T342 696T324 620T335 534T384 444Q423 393 434 338T435 230T397 131T330 53T246 5T155 0Q108 10 81 38T44 103T38 182T57 262T95 333T146 381T204 394T262 360Q247 364
226 343T184 287T147 210T124 130T126 64T164 29Q186 24 215 32T273 61T323 112T352 183T348 271T296 375Q250 438 237 497T233 609T271 703T335 774T412 815T488 821Q525 813 543 796T566 757Q595 797 630 815T710 811Q698 811 682 785T646 719T599 636T541 554T471
495T388 479Q409 480 427 504T464 563T501 640T542 719Q542 746 530 766T485 794Z" />
<glyph unicode="T" glyph-name="T" horiz-adv-x="409" d="M890 833Q882 785 860 755T805 707T730 685T642 680T546 688T447 703Q468 695 480 683T499 660Q506 647 509 632Q488 601 458 558T395 464T326 360T258 255T198 157T152 76T128 21T132 0Q95 0 90 28T100
104T148 211T218 336T294 463T360 577T400 664T399 710H400Q348 717 301 721T217 720T156 699T125 648Q129 695 162 722T246 764T362 783T495 787T629 785T749 785T841 798T890 833Z" />
<glyph unicode="U" glyph-name="U" horiz-adv-x="530" d="M612 821Q650 821 677 814T721 797Q741 786 755 773Q619 568 519 407Q476 338 437 273T371 156T332 73T332 41Q353 41 379 60T431 109T478 174T513 240T526 294T508 322H612Q566 231 513 161Q490 131 465
102T411 51T352 14T292 0Q262 0 260 29T274 107Q231 62 184 31T89 0Q50 0 38 23T31 85T60 177T114 289T183 410T257 532T325 643T378 735T405 798T396 821Q453 831 476 815T496 764T469 679T408 571T328 451T242 328T164 215T107 121T85 56T111 32Q134 32 164 52T224
102T282 169T326 238T346 293T331 322H375Q406 379 439 438T504 553T562 657T604 742T623 800T612 821Z" />
<glyph unicode="V" glyph-name="V" horiz-adv-x="534" d="M353 821Q391 821 418 814T462 797Q482 786 496 773Q370 562 280 398Q242 328 208 262T151 146T123 68T134 46Q169 57 211 96T298 190T388 312T474 449T547 583T600 700T627 784T620 821Q676 829 701 812T726
757T704 668T646 556T561 432T460 305T351 188T245 91T152 25T81 0Q53 0 46 23T47 85T77 177T125 289T185 410T247 532T304 643T346 735T365 798T353 821Z" />
<glyph unicode="W" glyph-name="W" horiz-adv-x="739" d="M595 807Q633 807 660 800T704 783Q724 772 738 759Q607 551 514 391Q474 323 439 258T380 144T349 68T359 46Q394 57 436 96T522 190T611 312T695 449T767 583T819 700T845 784T838 821Q894 829 919 812T944
757T924 668T866 556T783 432T682 305T574 188T469 91T377 25T306 0Q274 0 270 29T282 109Q238 64 190 32T94 0Q55 0 42 23T33 85T59 177T110 289T175 410T245 532T310 643T359 735T384 798T375 821Q432 831 455 815T478 764T453 679T396 571T320 451T238 328T163
215T108 121T88 56T115 32Q138 32 168 52T228 102T286 169T330 238T350 293T335 322H376Q405 378 436 436T497 548T550 649T589 731T606 786T595 807Z" />
<glyph unicode="X" glyph-name="X" horiz-adv-x="527" d="M395 821Q433 821 458 814T498 797Q516 786 525 773Q467 685 428 615Q411 585 397 557T375 507T367 472T380 458Q401 458 428 482T483 543T535 624T574 706T590 773T574 806Q646 820 669 801T683 742T636
653T553 554T455 469T367 418Q396 418 408 402T421 358T412 297T389 227T360 157T332 96T314 53T312 36Q333 36 360 56T415 106T468 171T507 239T524 294T508 322H612Q562 231 507 161Q483 131 456 102T400 51T341 15T280 1Q245 1 240 28T245 98T276 191T314 287T339
367T330 411Q307 400 278 367T220 291T166 200T126 111T109 42T123 9Q57 -4 33 14T15 69T52 156T124 256T214 350T304 421Q288 432 288 455T296 508T320 573T352 643T384 710T408 766T414 806T395 821Z" />
<glyph unicode="Y" glyph-name="Y" horiz-adv-x="557" d="M615 821Q653 821 677 814T717 797Q735 786 744 773Q625 519 508 331Q458 251 404 177T295 51T188 -25T89 -27Q54 -11 44 23T41 96T72 172T129 232T202 256T282 226Q264 226 239 211T189 174T140 123T103
69T88 21T103 -10Q130 -25 169 3T253 86T346 218T438 377Q408 352 375 337T307 322Q259 322 242 343T228 400T252 480T298 571T352 663T398 743T422 799T408 821Q465 831 493 824T529 797T525 749T493 684T443 612T388 537T337 467T303 409T296 369T329 354Q352
354 379 370T432 412T480 468T514 526T526 573T508 598H548Q569 646 585 686T611 757T621 804T615 821Z" />
<glyph unicode="Z" glyph-name="Z" horiz-adv-x="604" d="M414 617Q427 686 448 725T495 782T553 803T618 800T688 788T760 778T830 784T897 821Q844 705 774 615T625 454T465 326T312 223T182 133T91 47Q128 70 167 78T244 86T319 85T389 83T451 92T504 125Q474
69 444 39T383 -4T321 -16T259 -9T196 4T133 13T70 6T6 -32Q60 56 124 128T256 260T389 373T513 475T617 574T692 679Q718 686 744 700T794 731Q754 721 713 718T633 714T558 710T493 699T444 670T414 617Z" />
<glyph unicode="[" glyph-name="bracketleft" horiz-adv-x="1158" d="M167 77H211V38Q189 22 167 22Q142 22 128 37T114 75Q114 101 128 115T167 130Q186 130 195 122T209 99L197 95Q191 118 167 118Q147 118 138 106T128 76Q128 55 139 45T167 34Q176 34 184
37T197 45V64H167V77ZM295 58H238Q241 33 261 33Q276 33 281 48L295 46Q287 22 261 22Q244 22 235 32T225 61Q225 80 234 90T261 101Q275 101 285 91T295 61V58ZM281 69Q280 80 275 85T261 91Q252 91 246 85T239 69H281ZM314 31Q313 33 313 46V89H304V99H313V118L326
126V99H338V89H326V45Q326 37 327 36T333 35H338L341 24Q337 23 331 23Q323 23 320 25T314 31ZM407 99H422V89H407V24H395V89H383V99H395V107Q395 118 399 124T416 130Q418 130 421 130T427 129L426 117Q423 118 418 118Q407 118 407 106V99ZM480 99H493V24H481V35Q474
22 457 22Q444 22 438 28T432 52V99H445V57Q445 43 448 38T460 33Q480 33 480 59V99ZM513 128H526V24H513V128ZM545 128H558V24H545V128ZM637 116Q634 113 634 106V99H649V89H634V24H622V89H610V99H622V107Q622 118 626 124T642 130Q645 130 648 130T654 129L653
117Q650 118 645 118Q639 118 637 116ZM689 101Q705 101 715 91T725 63Q725 43 716 33T689 22Q673 22 664 32T654 61Q654 81 664 91T689 101ZM705 40Q712 47 712 62Q712 90 689 90Q667 90 667 61Q667 47 673 40T689 33Q699 33 705 40ZM789 24V70Q789 90 773 90Q765
90 759 85T753 65V24H740V99H751V89Q760 101 775 101Q778 101 782 101T791 99T798 90T801 70V24H789ZM824 89H814V99H824V118L836 126V99H849V89H836V45Q836 37 838 36T843 35H849L851 24Q847 23 841 23Q830 23 827 26T824 46V89ZM963 55Q963 38 963 34T968 24H954Q952
26 952 28T951 33Q939 22 924 22Q898 22 898 44Q898 54 903 58T916 65T933 68T950 72Q950 83 946 86T932 90Q922 90 919 87T913 76L900 78Q902 91 911 96T934 101Q950 101 956 96T963 73V55ZM950 61Q944 59 938 58T925 56T915 52T911 44Q911 32 927 32Q937 32 943
37T950 57V61ZM987 31Q986 33 986 46V89H976V99H986V118L998 126V99H1011V89H998V45Q998 37 1000 36T1005 35H1011L1013 24Q1009 23 1003 23Q990 23 987 31ZM1027 38H1042V24H1027V38ZM1042 99V85H1027V99H1042ZM197 -23H211L194 -93H179L165 -41L151 -93H136L119
-23H134L144 -71L157 -23H173L186 -72L197 -23ZM288 -23H302L286 -93H271L257 -41L243 -93H228L211 -23H225L236 -71L249 -23H265L277 -72L288 -23ZM380 -23H394L377 -93H362L348 -41L335 -93H319L303 -23H317L328 -71L341 -23H357L369 -72L380 -23ZM396 -79H409V-93H396V-79ZM469
-23H490V-93H477V-38L463 -93H449L436 -38V-93H423V-23H444L456 -71L469 -23ZM539 -23L567 -93H551L545 -77H518L512 -93H497L524 -23H539ZM541 -65L531 -39L522 -65H541ZM639 -23H653L636 -93H622L607 -41L594 -93H579L562 -23H576L587 -71L600 -23H616L628 -72L639
-23ZM703 -23H716V-93H702L674 -48V-93H661V-23H674L703 -70V-23ZM773 -55Q784 -60 784 -73Q784 -82 777 -88T756 -94Q730 -94 727 -70L741 -69Q742 -82 756 -82Q764 -82 766 -79T769 -73Q769 -71 769 -69T763 -65Q743 -60 736 -56T729 -42Q729 -31 737 -27T755
-22Q769 -22 775 -28T781 -43L768 -44Q765 -34 755 -34Q743 -34 743 -41Q743 -46 754 -48T773 -55ZM795 -79H809V-93H795V-79ZM861 -79Q866 -74 867 -67L881 -72Q873 -94 851 -94Q837 -94 829 -85T820 -59Q820 -42 829 -32T852 -22Q874 -22 880 -43L867 -46Q864
-34 852 -34Q834 -34 834 -58Q834 -72 839 -77T851 -82Q856 -82 861 -79ZM923 -22Q939 -22 948 -31T957 -58Q957 -76 948 -85T924 -94Q890 -94 890 -58Q890 -37 901 -30T923 -22ZM937 -76Q943 -70 943 -58Q943 -34 924 -34Q904 -34 904 -58Q904 -82 924 -82Q932
-82 937 -76ZM1014 -23H1035V-93H1022V-38L1008 -93H995L981 -38V-93H968V-23H989L1001 -71L1014 -23ZM528 448Q528 450 528 451T527 455Q527 460 528 464T534 469Q535 469 535 469T537 468Q537 463 528 448ZM926 547Q924 545 923 544T920 540Q919 544 919 551Q920
562 924 570T936 579Q942 579 942 574Q942 568 937 561T926 547ZM478 411Q473 416 473 427Q473 430 478 442T495 455Q505 452 505 440Q505 424 497 417T484 409Q482 410 481 410T478 411ZM429 426Q428 428 427 430T426 434Q426 443 434 443Q436 443 436 441Q436
437 429 426ZM312 386Q308 379 300 373Q300 375 300 376T299 379Q299 396 305 403T318 411Q322 411 322 406Q322 397 312 386ZM711 540Q706 530 701 520T688 498Q690 526 700 548T718 570Q720 570 720 566Q720 556 711 540ZM850 502Q861 519 864 531Q866 527 868
525T871 517Q871 512 870 511Q870 509 868 503T857 496Q855 496 854 499T851 502H850ZM873 549Q871 555 871 557Q871 566 878 566Q881 566 881 564Q881 560 873 549ZM500 302Q514 302 514 286Q514 274 508 266T493 258Q487 258 483 262T478 274Q478 285 484 293T500
302ZM361 287L128 224L163 515L318 558L317 560L333 569L329 586L346 592L344 610L360 615V633L378 636L379 653L397 655L400 672H417L422 689L440 687L446 703L464 700L472 715L489 710L498 725L515 718L525 731L541 723L553 736L568 725L581 737L595 725L609
736L622 723L637 731L648 718L664 725L674 710L691 715L699 700L716 703L723 687L740 689L745 672H754L1035 748L1000 457L860 418L853 411L862 395L848 384L855 368L840 358L845 342L830 334L833 316L817 310L819 292L802 288V270L785 266L783 249L766 248L763
230H745L740 213L723 215L716 199L699 203L691 187L674 193L664 178L648 185L637 171L622 179L609 167L595 177L581 165L568 177L553 167L541 179L525 171L515 185L498 178L489 193L472 187L464 203L446 199L440 215L422 213L417 230H400L397 248L379 249L378 266L360
270L361 287ZM901 544Q901 542 901 541T900 538Q900 533 903 527T914 520Q920 520 925 522T938 530Q951 539 957 547Q960 551 961 553Q961 554 959 554Q947 542 941 537T928 531Q923 531 921 537Q934 554 938 560T945 574Q945 583 938 583Q924 583 915 569T901
544ZM802 612Q804 612 804 608Q804 601 799 584T788 548T776 508T771 475Q771 459 781 459Q790 459 797 466T811 485V482Q811 470 817 470Q825 470 833 480T849 501Q849 494 859 492Q873 492 880 504T888 522Q888 530 886 533T876 547Q878 552 881 557T884 566Q884
569 881 569Q867 569 862 561T857 547Q857 542 858 540T862 533L863 532Q860 527 856 519T846 502T836 487T826 479Q824 479 824 483Q824 491 830 513T844 559Q853 586 864 619Q862 619 860 620Q854 622 849 622Q842 622 838 621Q841 621 841 616Q841 611 839 601T833
579T826 553T819 526L812 524Q815 524 815 517Q815 511 812 503T805 486T795 471T785 465Q781 465 781 471Q781 479 787 496T800 533T814 571T821 602Q821 614 812 614Q810 614 808 614T801 612H802ZM491 248Q506 248 516 258T527 286Q527 299 520 306T501 313Q485
313 476 302T466 273Q466 263 472 256T491 248ZM594 312H582L573 269L556 312H544L530 249H543L552 291L569 249H581L594 312ZM642 259H610L621 312H608L594 249H640L642 259ZM707 312H692L674 285L662 312H648L665 273L660 249H673L678 272L707 312ZM513 433Q513
428 514 419T523 410Q528 410 531 415Q544 427 546 439T554 452Q554 452 554 447T554 436T557 425T564 420Q571 420 579 428T592 443Q592 430 601 430Q608 430 618 440T629 456Q629 452 632 446T641 440Q646 440 656 449T670 465Q672 450 680 450Q686 450 691 454T701
463T709 472T714 478V480H711Q704 469 700 467T693 464Q688 464 686 477Q686 480 686 483T687 491Q702 515 713 537T725 570Q725 575 721 575Q717 575 709 569T692 549T677 518T670 474V469V468L665 463Q663 460 660 457T653 453Q648 453 646 460Q645 466 644 471Q643
476 642 479T640 483Q638 483 637 480Q628 462 626 456T615 446Q607 446 607 454Q607 463 611 470T620 483T630 490T638 493Q642 493 642 493T644 492Q644 493 645 493Q645 493 646 494Q646 496 640 496Q626 496 612 481T592 448L588 443Q586 441 583 438T576 434Q573
434 573 437T571 445Q571 448 571 454T571 465T569 475T566 480Q564 480 561 475Q560 473 557 467T550 453T543 438T537 429Q535 429 533 433T529 445Q532 451 535 457T539 468Q539 471 535 471Q527 471 521 463T513 443V433ZM457 421Q456 419 456 414Q456 409
459 403T470 397Q483 397 495 410T508 441Q508 450 504 454T494 458Q484 458 472 448T457 421ZM237 378Q269 386 285 408T302 450Q302 462 295 470T273 478Q270 478 267 478T260 477Q223 469 207 449T190 414Q190 397 205 397Q208 397 216 399Q210 399 210 414Q210
429 220 448T259 473H264Q273 473 277 467T281 450Q281 431 270 410T239 382Q245 400 251 416T261 444L257 448Q255 450 253 451T245 453Q240 453 238 452Q240 452 240 447Q240 439 236 423T225 388T215 353T210 324Q210 312 217 312H220Q219 312 219 315Q219 322
224 339T237 378ZM359 416Q360 416 362 416T366 417Q368 417 369 417T371 411Q370 408 370 402Q370 391 371 383T381 374Q391 374 401 386T415 402L420 408Q426 402 426 395V388Q426 384 424 380Q420 373 413 373Q410 373 409 376T407 379Q405 379 405 378Q405
375 408 372T416 369Q422 369 427 372T436 381T442 391T444 399Q444 403 443 408T431 424Q435 429 437 435T440 443Q440 446 437 446Q423 446 418 438T413 424Q413 419 414 417T418 410L413 403H412L408 397Q406 394 402 390T393 386Q390 386 389 391T387 403V412Q387
420 387 423T384 426Q382 426 374 425T362 424Q363 425 363 428Q363 432 360 432Q350 432 350 421Q350 417 352 417T357 417Q357 416 357 416T356 413Q339 381 327 373T309 364Q304 364 301 370Q309 380 317 389T326 408Q326 410 325 412T318 415Q310 415 303 410T291
398T284 383T281 371Q281 363 284 358T295 352Q307 352 318 362T336 379Q338 379 341 384T348 395T355 408T359 416Z" />
<glyph unicode="\" glyph-name="backslash" horiz-adv-x="324" d="M-39 610Q-28 636 -15 650T10 672Q23 680 36 681Q50 646 67 592T105 474T146 338T188 199T230 68T267 -42T298 -117T321 -146Q299 -152 275 -122T227 -38T177 86T128 231T80 376T36 501T-5 585T-39 610Z" />
<glyph unicode="]" glyph-name="bracketright" horiz-adv-x="1158" d="M167 77H211V38Q189 22 167 22Q142 22 128 37T114 75Q114 101 128 115T167 130Q186 130 195 122T209 99L197 95Q191 118 167 118Q147 118 138 106T128 76Q128 55 139 45T167 34Q176 34 184
37T197 45V64H167V77ZM295 58H238Q241 33 261 33Q276 33 281 48L295 46Q287 22 261 22Q244 22 235 32T225 61Q225 80 234 90T261 101Q275 101 285 91T295 61V58ZM281 69Q280 80 275 85T261 91Q252 91 246 85T239 69H281ZM314 31Q313 33 313 46V89H304V99H313V118L326
126V99H338V89H326V45Q326 37 327 36T333 35H338L341 24Q337 23 331 23Q323 23 320 25T314 31ZM407 99H422V89H407V24H395V89H383V99H395V107Q395 118 399 124T416 130Q418 130 421 130T427 129L426 117Q423 118 418 118Q407 118 407 106V99ZM480 99H493V24H481V35Q474
22 457 22Q444 22 438 28T432 52V99H445V57Q445 43 448 38T460 33Q480 33 480 59V99ZM513 128H526V24H513V128ZM545 128H558V24H545V128ZM637 116Q634 113 634 106V99H649V89H634V24H622V89H610V99H622V107Q622 118 626 124T642 130Q645 130 648 130T654 129L653
117Q650 118 645 118Q639 118 637 116ZM689 101Q705 101 715 91T725 63Q725 43 716 33T689 22Q673 22 664 32T654 61Q654 81 664 91T689 101ZM705 40Q712 47 712 62Q712 90 689 90Q667 90 667 61Q667 47 673 40T689 33Q699 33 705 40ZM789 24V70Q789 90 773 90Q765
90 759 85T753 65V24H740V99H751V89Q760 101 775 101Q778 101 782 101T791 99T798 90T801 70V24H789ZM824 89H814V99H824V118L836 126V99H849V89H836V45Q836 37 838 36T843 35H849L851 24Q847 23 841 23Q830 23 827 26T824 46V89ZM963 55Q963 38 963 34T968 24H954Q952
26 952 28T951 33Q939 22 924 22Q898 22 898 44Q898 54 903 58T916 65T933 68T950 72Q950 83 946 86T932 90Q922 90 919 87T913 76L900 78Q902 91 911 96T934 101Q950 101 956 96T963 73V55ZM950 61Q944 59 938 58T925 56T915 52T911 44Q911 32 927 32Q937 32 943
37T950 57V61ZM987 31Q986 33 986 46V89H976V99H986V118L998 126V99H1011V89H998V45Q998 37 1000 36T1005 35H1011L1013 24Q1009 23 1003 23Q990 23 987 31ZM1027 38H1042V24H1027V38ZM1042 99V85H1027V99H1042ZM197 -23H211L194 -93H179L165 -41L151 -93H136L119
-23H134L144 -71L157 -23H173L186 -72L197 -23ZM288 -23H302L286 -93H271L257 -41L243 -93H228L211 -23H225L236 -71L249 -23H265L277 -72L288 -23ZM380 -23H394L377 -93H362L348 -41L335 -93H319L303 -23H317L328 -71L341 -23H357L369 -72L380 -23ZM396 -79H409V-93H396V-79ZM469
-23H490V-93H477V-38L463 -93H449L436 -38V-93H423V-23H444L456 -71L469 -23ZM539 -23L567 -93H551L545 -77H518L512 -93H497L524 -23H539ZM541 -65L531 -39L522 -65H541ZM639 -23H653L636 -93H622L607 -41L594 -93H579L562 -23H576L587 -71L600 -23H616L628 -72L639
-23ZM703 -23H716V-93H702L674 -48V-93H661V-23H674L703 -70V-23ZM773 -55Q784 -60 784 -73Q784 -82 777 -88T756 -94Q730 -94 727 -70L741 -69Q742 -82 756 -82Q764 -82 766 -79T769 -73Q769 -71 769 -69T763 -65Q743 -60 736 -56T729 -42Q729 -31 737 -27T755
-22Q769 -22 775 -28T781 -43L768 -44Q765 -34 755 -34Q743 -34 743 -41Q743 -46 754 -48T773 -55ZM795 -79H809V-93H795V-79ZM861 -79Q866 -74 867 -67L881 -72Q873 -94 851 -94Q837 -94 829 -85T820 -59Q820 -42 829 -32T852 -22Q874 -22 880 -43L867 -46Q864
-34 852 -34Q834 -34 834 -58Q834 -72 839 -77T851 -82Q856 -82 861 -79ZM923 -22Q939 -22 948 -31T957 -58Q957 -76 948 -85T924 -94Q890 -94 890 -58Q890 -37 901 -30T923 -22ZM937 -76Q943 -70 943 -58Q943 -34 924 -34Q904 -34 904 -58Q904 -82 924 -82Q932
-82 937 -76ZM1014 -23H1035V-93H1022V-38L1008 -93H995L981 -38V-93H968V-23H989L1001 -71L1014 -23ZM528 448Q528 450 528 451T527 455Q527 460 528 464T534 469Q535 469 535 469T537 468Q537 463 528 448ZM926 547Q924 545 923 544T920 540Q919 544 919 551Q920
562 924 570T936 579Q942 579 942 574Q942 568 937 561T926 547ZM478 411Q473 416 473 427Q473 430 478 442T495 455Q505 452 505 440Q505 424 497 417T484 409Q482 410 481 410T478 411ZM429 426Q428 428 427 430T426 434Q426 443 434 443Q436 443 436 441Q436
437 429 426ZM312 386Q308 379 300 373Q300 375 300 376T299 379Q299 396 305 403T318 411Q322 411 322 406Q322 397 312 386ZM711 540Q706 530 701 520T688 498Q690 526 700 548T718 570Q720 570 720 566Q720 556 711 540ZM850 502Q861 519 864 531Q866 527 868
525T871 517Q871 512 870 511Q870 509 868 503T857 496Q855 496 854 499T851 502H850ZM873 549Q871 555 871 557Q871 566 878 566Q881 566 881 564Q881 560 873 549ZM500 302Q514 302 514 286Q514 274 508 266T493 258Q487 258 483 262T478 274Q478 285 484 293T500
302ZM361 287L128 224L163 515L318 558L317 560L333 569L329 586L346 592L344 610L360 615V633L378 636L379 653L397 655L400 672H417L422 689L440 687L446 703L464 700L472 715L489 710L498 725L515 718L525 731L541 723L553 736L568 725L581 737L595 725L609
736L622 723L637 731L648 718L664 725L674 710L691 715L699 700L716 703L723 687L740 689L745 672H754L1035 748L1000 457L860 418L853 411L862 395L848 384L855 368L840 358L845 342L830 334L833 316L817 310L819 292L802 288V270L785 266L783 249L766 248L763
230H745L740 213L723 215L716 199L699 203L691 187L674 193L664 178L648 185L637 171L622 179L609 167L595 177L581 165L568 177L553 167L541 179L525 171L515 185L498 178L489 193L472 187L464 203L446 199L440 215L422 213L417 230H400L397 248L379 249L378 266L360
270L361 287ZM901 544Q901 542 901 541T900 538Q900 533 903 527T914 520Q920 520 925 522T938 530Q951 539 957 547Q960 551 961 553Q961 554 959 554Q947 542 941 537T928 531Q923 531 921 537Q934 554 938 560T945 574Q945 583 938 583Q924 583 915 569T901
544ZM802 612Q804 612 804 608Q804 601 799 584T788 548T776 508T771 475Q771 459 781 459Q790 459 797 466T811 485V482Q811 470 817 470Q825 470 833 480T849 501Q849 494 859 492Q873 492 880 504T888 522Q888 530 886 533T876 547Q878 552 881 557T884 566Q884
569 881 569Q867 569 862 561T857 547Q857 542 858 540T862 533L863 532Q860 527 856 519T846 502T836 487T826 479Q824 479 824 483Q824 491 830 513T844 559Q853 586 864 619Q862 619 860 620Q854 622 849 622Q842 622 838 621Q841 621 841 616Q841 611 839 601T833
579T826 553T819 526L812 524Q815 524 815 517Q815 511 812 503T805 486T795 471T785 465Q781 465 781 471Q781 479 787 496T800 533T814 571T821 602Q821 614 812 614Q810 614 808 614T801 612H802ZM491 248Q506 248 516 258T527 286Q527 299 520 306T501 313Q485
313 476 302T466 273Q466 263 472 256T491 248ZM594 312H582L573 269L556 312H544L530 249H543L552 291L569 249H581L594 312ZM642 259H610L621 312H608L594 249H640L642 259ZM707 312H692L674 285L662 312H648L665 273L660 249H673L678 272L707 312ZM513 433Q513
428 514 419T523 410Q528 410 531 415Q544 427 546 439T554 452Q554 452 554 447T554 436T557 425T564 420Q571 420 579 428T592 443Q592 430 601 430Q608 430 618 440T629 456Q629 452 632 446T641 440Q646 440 656 449T670 465Q672 450 680 450Q686 450 691 454T701
463T709 472T714 478V480H711Q704 469 700 467T693 464Q688 464 686 477Q686 480 686 483T687 491Q702 515 713 537T725 570Q725 575 721 575Q717 575 709 569T692 549T677 518T670 474V469V468L665 463Q663 460 660 457T653 453Q648 453 646 460Q645 466 644 471Q643
476 642 479T640 483Q638 483 637 480Q628 462 626 456T615 446Q607 446 607 454Q607 463 611 470T620 483T630 490T638 493Q642 493 642 493T644 492Q644 493 645 493Q645 493 646 494Q646 496 640 496Q626 496 612 481T592 448L588 443Q586 441 583 438T576 434Q573
434 573 437T571 445Q571 448 571 454T571 465T569 475T566 480Q564 480 561 475Q560 473 557 467T550 453T543 438T537 429Q535 429 533 433T529 445Q532 451 535 457T539 468Q539 471 535 471Q527 471 521 463T513 443V433ZM457 421Q456 419 456 414Q456 409
459 403T470 397Q483 397 495 410T508 441Q508 450 504 454T494 458Q484 458 472 448T457 421ZM237 378Q269 386 285 408T302 450Q302 462 295 470T273 478Q270 478 267 478T260 477Q223 469 207 449T190 414Q190 397 205 397Q208 397 216 399Q210 399 210 414Q210
429 220 448T259 473H264Q273 473 277 467T281 450Q281 431 270 410T239 382Q245 400 251 416T261 444L257 448Q255 450 253 451T245 453Q240 453 238 452Q240 452 240 447Q240 439 236 423T225 388T215 353T210 324Q210 312 217 312H220Q219 312 219 315Q219 322
224 339T237 378ZM359 416Q360 416 362 416T366 417Q368 417 369 417T371 411Q370 408 370 402Q370 391 371 383T381 374Q391 374 401 386T415 402L420 408Q426 402 426 395V388Q426 384 424 380Q420 373 413 373Q410 373 409 376T407 379Q405 379 405 378Q405
375 408 372T416 369Q422 369 427 372T436 381T442 391T444 399Q444 403 443 408T431 424Q435 429 437 435T440 443Q440 446 437 446Q423 446 418 438T413 424Q413 419 414 417T418 410L413 403H412L408 397Q406 394 402 390T393 386Q390 386 389 391T387 403V412Q387
420 387 423T384 426Q382 426 374 425T362 424Q363 425 363 428Q363 432 360 432Q350 432 350 421Q350 417 352 417T357 417Q357 416 357 416T356 413Q339 381 327 373T309 364Q304 364 301 370Q309 380 317 389T326 408Q326 410 325 412T318 415Q310 415 303 410T291
398T284 383T281 371Q281 363 284 358T295 352Q307 352 318 362T336 379Q338 379 341 384T348 395T355 408T359 416Z" />
<glyph unicode="^" glyph-name="asciicircum" horiz-adv-x="344" d="M299 606Q303 560 310 524Q316 493 327 467T356 440Q312 426 287 437T248 472T230 523T226 567Q208 556 190 536T160 493T142 453T142 427Q111 445 104 463T105 498T132 530T171 556T207 575T227
583L299 606Z" />
<glyph unicode="_" glyph-name="underscore" horiz-adv-x="366" d="M266 -19Q271 -43 266 -61T253 -93Q243 -108 230 -119Q217 -116 192 -112T138 -102T79 -94T25 -90T-14 -92T-28 -104Q-35 -72 -16 -58T35 -40T107 -38T182 -41T241 -39T266 -19Z" />
<glyph unicode="`" glyph-name="grave" horiz-adv-x="341" d="M303 567Q279 577 250 585T190 604T132 629T81 664T45 717T30 792Q34 774 56 760T108 732T173 703T237 669T284 625T303 567Z" />
<glyph unicode="a" glyph-name="a" horiz-adv-x="420" d="M324 505Q362 505 387 498T427 481Q445 470 454 457Q372 340 315 248Q291 209 269 171T234 104T217 57T226 39Q247 39 273 58T324 107T372 172T406 238T419 292T401 320H505Q459 229 406 159Q383 129 358
100T304 49T245 13T185 -1Q150 -1 144 23T150 88Q115 49 78 24T4 -1Q-29 -1 -40 28T-46 102T-21 204T28 316T93 418T168 494T243 523T313 489Q326 473 329 446Q340 473 340 489T324 505ZM36 34Q57 34 85 59T141 123T194 207T234 293T251 362T235 396H298Q303 416
302 430T291 450Q267 462 233 436T164 364T97 260T44 153T20 68T36 34Z" />
<glyph unicode="b" glyph-name="b" horiz-adv-x="392" d="M332 905Q370 905 395 898T435 881Q453 870 463 857Q361 696 274 557Q237 498 200 438T129 324T71 229T32 162Q9 121 -1 96T-11 58T-7 40T5 35Q28 35 52 48T100 85T147 139T190 204Q189 222 191 240T197
272Q201 289 206 305Q216 340 232 375T265 441Q283 475 303 509H396Q400 479 388 427T348 320Q331 282 305 243T247 165Q253 154 271 154Q286 154 303 164T335 189T364 224T384 261T390 295T375 320H479Q446 266 410 224Q394 206 376 189T339 158T299 136T257 128Q235
128 221 136Q194 107 165 82T107 39T50 10T-2 -1Q-59 -1 -77 31T-62 139Q-50 167 -24 215T37 322T109 447T184 578T253 702T307 806T336 878T332 905Z" />
<glyph unicode="c" glyph-name="c" horiz-adv-x="360" d="M149 213Q170 214 188 240T224 304T260 388T300 473Q267 452 228 411T152 320T88 218T48 122T47 52T100 24Q127 24 160 44T227 96T289 164T337 234T358 291T344 320H448Q392 229 331 159Q305 129 275 100T213
49T148 13T82 -1Q30 -1 2 20T-35 77T-35 156T-3 248T54 341T131 423T222 483T322 510Q348 548 381 566T457 563Q445 563 430 536T396 467T353 379T299 293T231 231T149 213Z" />
<glyph unicode="d" glyph-name="d" horiz-adv-x="422" d="M563 905Q601 905 626 898T667 881Q685 870 694 857Q582 682 489 532Q449 468 410 404T336 283T276 183T239 117Q222 82 217 61T225 39Q246 39 272 58T324 107T371 172T406 238T419 292T401 320H504Q457
229 405 159Q382 129 357 100T303 49T245 13T185 -1Q150 -1 144 23T149 86Q114 48 78 24T5 -1Q-28 -1 -39 28T-45 102T-20 204T29 316T94 418T168 494T243 523T313 489Q330 468 330 428Q362 483 394 540T456 650T510 749T550 830T569 885T563 905ZM37 34Q58 34
86 59T142 123T195 207T235 293T252 362T236 396H299Q303 416 302 430T291 450Q267 462 234 436T165 364T97 260T45 153T21 68T37 34Z" />
<glyph unicode="e" glyph-name="e" horiz-adv-x="358" d="M61 167Q49 137 43 111T40 66T58 35T98 24Q125 24 158 44T225 96T288 164T335 234T356 291T342 320H446Q390 229 329 159Q303 129 274 100T212 49T147 13T81 -1Q28 -1 0 20T-36 77T-36 158T-3 251T55 345T134
427T227 485T327 510Q352 544 384 560T466 562Q454 562 441 534T408 464T361 371T293 277T198 202T69 167H61ZM84 190Q132 194 164 224T221 297T264 388T307 478Q280 463 248 432T183 361T121 276T71 189Q75 190 84 190Z" />
<glyph unicode="f" glyph-name="f" horiz-adv-x="226" d="M-403 -266Q-361 -266 -316 -227T-223 -123T-127 27T-28 204T74 390T176 565Q166 577 157 593T140 630Q163 601 194 593Q228 646 262 690T331 767T399 817T466 835Q499 835 507 812T505 753T468 676T407
601T332 544T254 524Q216 458 176 386T93 240Q85 223 81 208T77 180T84 161T105 154Q119 154 136 164T169 189T198 224T218 261T224 295T209 320H313Q280 266 244 224Q228 206 210 189T173 158T133 136T91 128Q56 128 40 150Q-17 55 -75 -29T-189 -172T-300 -259T-403
-266ZM469 809Q455 809 437 795T398 754T353 690T303 609Q345 630 383 663T446 729T479 785T469 809Z" />
<glyph unicode="g" glyph-name="g" horiz-adv-x="411" d="M327 505Q365 505 389 498T429 481Q447 470 457 457Q418 416 385 369T322 273T265 172T213 73Q260 109 301 149T369 225T405 287T397 322H501Q476 280 441 240T364 162T277 90T187 26Q153 -35 120 -84T48
-163Q9 -193 -31 -197T-101 -185T-143 -135T-141 -59Q-130 -28 -108 -2T-60 34T-9 36T33 -15Q19 -15 4 -21T-27 -37T-56 -61T-80 -88Q-104 -121 -104 -142T-91 -170T-51 -166T3 -120Q33 -82 66 -23T141 106Q113 83 84 69T24 54Q-9 54 -20 80T-28 149T-6 242T40
344T102 436T173 502T247 526T316 489Q331 471 333 436Q341 465 340 483T327 505ZM57 89Q78 89 104 110T157 164T205 235T241 307T255 366T238 396H301Q306 416 305 430T294 450Q270 462 238 440T172 378T108 288T60 193T39 119T57 89Z" />
<glyph unicode="h" glyph-name="h" horiz-adv-x="382" d="M336 905Q374 905 399 898T439 881Q457 870 466 857Q442 822 401 760T310 620T207 459T106 295Q136 337 169 376T234 445T296 494T352 511Q370 510 384 504T409 489T426 470T436 452Q428 452 411 434T370
387T321 319T270 242T224 164T191 97T176 49T187 31Q205 31 230 50T280 100T328 166T364 234T379 290T363 320H467Q418 229 367 159Q345 129 321 100T271 49T219 13T167 -1Q126 -1 111 19T98 72T118 147T159 234Q215 338 315 470Q298 470 264 441T188 366T102 263T21
150Q-16 82 -34 41T-41 -1Q-79 -1 -79 36T-57 133T9 272T99 433T195 596T279 742T332 852T336 905Z" />
<glyph unicode="i" glyph-name="i" horiz-adv-x="215" d="M95 505Q133 505 158 498T198 481Q216 470 225 457Q143 340 86 248Q62 209 40 171T5 104T-12 57T-3 39Q18 39 46 58T102 107T155 172T196 238T214 292T198 320H302Q248 229 190 159Q165 129 137 100T79
49T18 13T-43 -1Q-76 -1 -83 20T-82 78T-50 159T-2 252T49 344T91 426T111 483T95 505ZM285 574Q265 574 256 586T245 617T252 662T276 713Q310 720 335 716T366 696T355 649T285 574Z" />
<glyph unicode="j" glyph-name="j" horiz-adv-x="205" d="M98 505Q136 505 161 498T201 481Q219 470 229 457Q194 416 162 370T101 273T44 173T-11 74Q37 110 81 150T154 225T195 287T190 322H294Q269 280 232 240T150 162T57 90T-39 27Q-81 -45 -123 -99T-213
-178Q-256 -199 -293 -201T-354 -190T-385 -148T-374 -79Q-364 -57 -344 -40T-301 -18T-256 -25T-218 -73Q-227 -67 -240 -69T-267 -77T-295 -94T-317 -115Q-336 -139 -337 -154T-327 -175T-294 -173T-246 -145Q-219 -123 -191 -83T-135 5T-81 105T-31 201Q0 259
29 313T79 408T105 476T98 505ZM278 574Q258 574 249 586T238 617T245 662T269 713Q303 720 328 716T359 696T348 649T278 574Z" />
<glyph unicode="k" glyph-name="k" horiz-adv-x="382" d="M336 905Q374 905 399 898T439 881Q457 870 466 857Q449 833 424 796T369 711T304 610T233 500T162 386T94 275Q143 302 189 343T271 423T326 495T342 536Q386 531 405 518T423 485T404 442T356 393T285
344T199 297Q220 292 234 285T257 271Q267 263 273 255Q231 195 205 147Q194 127 185 108T173 73T172 49T187 39Q208 39 234 58T285 107T333 172T367 238T380 292T362 320H466Q419 229 367 159Q344 129 319 100T265 49T207 13T147 -1Q110 -1 98 15T87 57T102 115T129
178T155 237T166 282Q144 272 122 264T78 248Q47 195 22 150T-20 71T-43 18T-41 -1Q-78 -1 -79 36T-56 133T9 272T99 433T195 596T279 742T332 852T336 905Z" />
<glyph unicode="l" glyph-name="l" horiz-adv-x="192" d="M286 855Q347 855 377 848T408 817T384 745T307 615T182 411T12 117Q-7 83 -11 61T-2 39Q19 39 45 58T96 107T144 172T178 238T191 292T173 320H277Q230 229 178 159Q155 129 130 100T76 49T18 13T-42
-1Q-65 -1 -75 10T-86 39T-79 83T-58 139Q-46 167 -22 213T32 314T97 431T163 553T223 668T269 764T292 830T286 855Z" />
<glyph unicode="m" glyph-name="m" horiz-adv-x="574" d="M99 511Q137 511 162 504T203 487Q221 476 230 463Q209 432 185 396T135 322Q164 358 193 390T251 446T304 483T351 496Q368 495 381 490T402 477Q412 469 418 459Q411 455 395 436T358 388T313 323T265
248Q296 294 333 341T407 427T480 488T544 511Q562 510 576 504T601 489T618 470T628 452Q618 452 591 421T531 343T463 242T404 140T371 62T380 31Q398 31 423 50T473 100T521 166T557 234T572 290T555 320H659Q610 229 559 159Q537 129 513 100T463 49T411 13T359
-1Q318 -1 303 19T289 72T309 147T351 234Q408 338 508 470Q491 470 456 440T377 362T288 255T206 138Q195 115 187 94T174 54T169 22T174 -1Q133 -1 117 18T103 70T122 143T162 227Q217 327 314 455Q297 455 263 427T188 355T104 254T24 143Q7 112 -6 86T-27 40T-34
10T-24 -1Q-62 -1 -73 19T-79 72T-54 147T-11 235T39 326T82 409T106 474T99 511Z" />
<glyph unicode="n" glyph-name="n" horiz-adv-x="390" d="M100 511Q138 511 163 504T203 487Q221 476 230 463Q211 436 191 405T148 341Q175 376 203 407T259 462T312 498T359 511Q377 510 391 504T416 489T433 470T443 452Q433 452 406 421T346 343T278 242T219
140T186 62T195 31Q213 31 238 50T288 100T336 166T372 234T387 290T370 320H474Q425 229 374 159Q352 129 328 100T278 49T226 13T174 -1Q133 -1 118 19T104 72T124 147T166 234Q223 338 323 470Q306 470 272 441T196 366T110 263T29 150Q11 118 -3 90T-25 42T-33
11T-24 -1Q-62 -1 -73 19T-79 72T-54 147T-11 235T39 326T82 409T106 474T100 511Z" />
<glyph unicode="o" glyph-name="o" horiz-adv-x="395" d="M269 128Q247 128 233 136Q206 107 178 82T121 39T65 10T13 -1Q-25 -1 -39 25T-51 94T-28 190T19 295T84 395T157 472T231 510T297 495Q341 504 365 495T396 462T395 404T368 330T321 248T259 166Q263
154 282 154Q304 154 328 175T370 224T392 279T376 320H480Q450 266 416 224Q401 206 384 189T349 158T310 136T269 128ZM227 305Q235 333 247 358T271 403T294 439T311 462Q293 462 268 444T216 396T159 327T105 248T59 169T29 100T19 51T38 32Q59 32 81 43T125
74T167 121T207 178Q203 198 205 220T213 261Q218 283 227 305Z" />
<glyph unicode="p" glyph-name="p" horiz-adv-x="386" d="M95 510Q141 510 168 500T209 479Q204 467 197 453Q191 441 183 424T164 386Q210 444 249 479T315 511Q350 506 372 488T399 452Q371 386 339 323T272 206T199 108T122 37Q162 48 200 72T270 126T328 188T368
247T383 295T370 320H474Q418 229 348 159Q318 129 282 100T204 49T115 13T16 -1Q-6 -1 -17 10T-31 42Q-72 -18 -116 -73T-205 -171T-295 -238T-384 -263Q-367 -263 -335 -232T-263 -148T-177 -28T-88 109T-6 248T58 373T95 466T95 510ZM278 470Q264 470 229 430T146
325Q161 324 175 307Q160 312 135 290T83 231Q66 201 48 169T9 105Q-6 69 -8 45T9 20Q20 20 39 39T83 90T133 162T185 245T231 327T266 399T284 450T278 470Z" />
<glyph unicode="q" glyph-name="q" horiz-adv-x="449" d="M331 513Q369 513 394 506T434 489Q452 478 461 465Q440 435 412 389T351 287T284 170T219 50Q271 86 318 129T397 213T442 283T436 322H540Q513 277 474 233T389 149T294 73T197 7Q190 -4 184 -16T172
-40Q201 -43 227 -45T276 -47T315 -46T341 -36Q317 -66 292 -82T243 -105T193 -109T143 -101Q126 -136 114 -165T94 -216T87 -249T93 -261Q64 -261 51 -247T36 -209T42 -150T66 -76Q26 -62 -11 -57T-84 -70Q-57 -45 -13 -39T84 -34Q101 4 120 43T162 125Q130 93
95 74T25 54Q-8 54 -20 80T-28 149T-5 242T40 344T102 436T174 502T247 526T316 489Q325 479 330 460Q344 503 331 513ZM57 89Q78 89 104 110T157 164T206 235T242 307T256 366T239 396H302Q306 416 305 430T294 450Q276 459 253 449T205 414T155 357T109 288T71
216T46 152T39 107T57 89Z" />
<glyph unicode="r" glyph-name="r" horiz-adv-x="341" d="M-14 69Q-29 37 -32 18T-24 -1Q-61 -1 -72 19T-79 72T-54 147T-10 235T40 326T83 409T107 474T100 511Q138 511 163 504T203 487Q221 476 231 463Q211 434 188 400T141 329T94 256T49 184Q81 222 113 253T175
307Q185 333 200 361T234 415T278 466T331 509H426Q420 487 398 458T346 398T279 341T210 296Q210 295 210 295T209 294Q204 287 199 270T193 234T196 201T216 186Q238 186 265 202T311 240T337 284T323 320H427Q395 275 359 241Q328 211 289 187T207 162Q175 162
165 189T162 259Q139 241 115 219T67 173T22 122T-14 69Z" />
<glyph unicode="s" glyph-name="s" horiz-adv-x="330" d="M155 427Q179 452 206 471Q229 488 259 501T325 513Q316 510 308 487T292 428T274 345T251 252T219 160T175 79Q211 109 244 147T298 222T326 285T316 322H420Q392 275 352 224T267 127T172 49T76 4Q56
-1 36 -1Q-8 -1 -27 30T-46 105T-28 196T16 277T78 319T147 296Q134 296 115 276T78 226T44 160T21 94T16 43T40 22Q60 22 79 47T116 112T146 200T165 293T169 374T155 427Z" />
<glyph unicode="t" glyph-name="t" horiz-adv-x="196" d="M533 647Q508 603 479 582T417 555T351 551T284 561Q239 496 195 426T113 294T48 184T11 117Q-6 82 -11 61T-3 39Q18 39 44 58T96 107T143 172T178 238T191 292T173 320H277Q231 229 178 159Q155 129 130
100T76 49T17 13T-43 -1Q-66 -1 -74 9T-83 37T-75 82T-58 139Q-49 167 -22 218T42 329T117 452T187 570Q147 567 119 546Q132 563 153 574T200 593Q226 639 240 669T248 704Q266 716 292 728T347 750T404 766T456 773Q430 753 395 711T320 612Q356 615 390 617T453
622T503 630T533 647Z" />
<glyph unicode="u" glyph-name="u" horiz-adv-x="384" d="M286 505Q324 505 349 498T389 481Q407 470 416 457Q334 340 277 248Q253 209 231 171T196 104T179 57T188 39Q209 39 235 58T286 107T334 172T368 238T381 292T363 320H467Q420 229 368 159Q345 129 320
100T266 49T208 13T148 -1Q114 -1 107 21T110 80Q75 45 37 22T-42 -1Q-75 -1 -82 20T-81 78T-49 159T-1 252T50 344T92 426T112 483T96 505Q148 505 167 485T184 432T162 356T115 270T60 183T10 108T-18 54T-10 34Q11 34 37 54T90 104T140 169T176 237T190 292T173
320H227Q248 357 265 391T292 450T302 490T286 505Z" />
<glyph unicode="v" glyph-name="v" horiz-adv-x="382" d="M96 505Q134 505 159 498T199 481Q217 470 226 457Q144 341 87 250Q63 211 41 174T6 108T-11 62T-2 44Q6 44 25 56T69 90T123 139T179 201Q177 219 180 237T186 271Q190 289 195 305Q205 340 224 375T262
441Q284 475 308 509H398Q399 499 394 479T379 435T358 387T335 345Q297 283 239 217Q230 190 233 172T260 154Q274 154 291 164T324 189T353 224T373 261T379 295T364 320H468Q435 266 399 224Q383 206 365 189T328 158T288 136T246 128Q223 128 209 137T188 161Q155
127 122 98T57 46T1 12T-43 -1Q-76 -1 -83 20T-81 78T-49 159T-1 252T50 344T92 426T112 483T96 505Z" />
<glyph unicode="w" glyph-name="w" horiz-adv-x="569" d="M283 505Q321 505 346 498T387 481Q405 470 414 457Q332 341 275 250Q250 211 229 174T193 108T176 62T185 44Q193 44 212 56T257 90T310 139T366 201Q365 219 367 237T374 271Q378 289 383 305Q393 340
411 375T449 441Q471 475 495 509H585Q586 499 581 479T567 435T546 387T523 345Q504 315 480 283T427 218Q418 190 421 172T447 154Q469 154 495 175T541 224T565 279T551 320H655Q622 266 586 224Q571 206 553 189T516 158T476 136T434 128Q411 128 397 137T375
161Q342 127 309 98T245 46T189 12T145 -1Q112 -1 105 20T107 77Q72 43 34 21T-44 -1Q-77 -1 -84 20T-82 78T-50 159T-2 252T49 344T91 426T111 483T95 505Q147 505 166 485T183 432T161 356T114 270T59 183T9 108T-19 54T-11 34Q10 34 36 54T89 104T139 169T175
237T189 292T172 320H224Q245 357 262 391T290 450T299 490T283 505Z" />
<glyph unicode="x" glyph-name="x" horiz-adv-x="353" d="M124 505Q162 505 187 498T227 481Q245 470 254 457Q220 420 200 392Q191 380 185 368T177 347T179 333T195 327Q216 327 237 337T276 364T307 401T326 439T326 471T303 490Q372 504 401 498T431 474T410
430T353 378T277 330T200 297Q230 295 236 275T233 225T206 163T171 101T143 53T138 34Q159 34 187 54T242 104T295 169T334 237T350 292T334 320H438Q388 229 333 159Q309 129 282 100T226 49T167 13T106 -1Q71 -1 65 18T69 66T98 131T133 198T155 255T144 288Q123
280 98 257T50 205T9 142T-20 81T-31 32T-13 7Q-74 -5 -98 5T-120 40T-95 99T-37 170T37 239T114 295Q92 304 91 323T97 365T120 413T142 458T149 492T124 505Z" />
<glyph unicode="y" glyph-name="y" horiz-adv-x="373" d="M266 505Q304 505 329 498T369 481Q387 470 397 457Q364 417 334 370T277 274T225 173T175 74Q222 110 262 150T330 225T366 287T359 322H463Q438 280 403 240T326 162T240 90T150 27Q109 -48 68 -105T-23
-184Q-74 -207 -108 -205T-162 -185T-187 -137T-184 -74Q-179 -52 -167 -31T-138 6T-104 32T-67 41T-33 27T-5 -15Q-20 -15 -37 -22T-71 -42T-102 -69T-126 -99Q-148 -136 -145 -154T-125 -177T-85 -176T-45 -155Q-27 -140 -10 -115T24 -56T60 18T99 100Q72 77
43 63T-16 49Q-49 49 -57 68T-59 120T-33 193T10 277T55 361T92 434T108 485T91 505Q143 505 163 487T184 440T167 372T126 295T76 217T32 150T7 102T16 84Q37 84 64 105T117 160T166 232T203 306T217 366T200 396H251Q271 444 277 472T266 505Z" />
<glyph unicode="z" glyph-name="z" horiz-adv-x="376" d="M19 -131Q-16 -149 -53 -153T-132 -140Q-100 -147 -67 -134T-5 -96T45 -42T77 15T82 61T52 84Q38 80 24 78T-8 73L15 83Q45 99 69 124T114 179T155 244T197 311T245 375T303 428Q317 424 336 427T375 436Q358
435 345 440T319 451T293 462T260 468Q243 468 223 449T181 402T139 339T106 273T86 219T85 188Q46 184 31 206T19 263T43 341T94 419T165 480T251 505Q282 505 304 495T345 473T381 453T420 451Q428 454 433 456T441 460L435 457L441 460Q442 460 443 461Q442
460 441 460Q442 460 443 461Q405 440 377 413T326 354T283 289T240 224T191 164T129 115Q154 118 172 118T204 115Q219 112 229 109Q222 93 211 75Q202 60 189 40T160 -1Q190 29 219 64T275 135T321 203T355 261T370 303T363 320H467Q456 304 428 268T362 186T277
89T185 -7T95 -86T19 -132V-131Z" />
<glyph unicode="{" glyph-name="braceleft" horiz-adv-x="1158" d="M167 77H211V38Q189 22 167 22Q142 22 128 37T114 75Q114 101 128 115T167 130Q186 130 195 122T209 99L197 95Q191 118 167 118Q147 118 138 106T128 76Q128 55 139 45T167 34Q176 34 184 37T197
45V64H167V77ZM295 58H238Q241 33 261 33Q276 33 281 48L295 46Q287 22 261 22Q244 22 235 32T225 61Q225 80 234 90T261 101Q275 101 285 91T295 61V58ZM281 69Q280 80 275 85T261 91Q252 91 246 85T239 69H281ZM314 31Q313 33 313 46V89H304V99H313V118L326 126V99H338V89H326V45Q326
37 327 36T333 35H338L341 24Q337 23 331 23Q323 23 320 25T314 31ZM407 99H422V89H407V24H395V89H383V99H395V107Q395 118 399 124T416 130Q418 130 421 130T427 129L426 117Q423 118 418 118Q407 118 407 106V99ZM480 99H493V24H481V35Q474 22 457 22Q444 22
438 28T432 52V99H445V57Q445 43 448 38T460 33Q480 33 480 59V99ZM513 128H526V24H513V128ZM545 128H558V24H545V128ZM637 116Q634 113 634 106V99H649V89H634V24H622V89H610V99H622V107Q622 118 626 124T642 130Q645 130 648 130T654 129L653 117Q650 118 645
118Q639 118 637 116ZM689 101Q705 101 715 91T725 63Q725 43 716 33T689 22Q673 22 664 32T654 61Q654 81 664 91T689 101ZM705 40Q712 47 712 62Q712 90 689 90Q667 90 667 61Q667 47 673 40T689 33Q699 33 705 40ZM789 24V70Q789 90 773 90Q765 90 759 85T753
65V24H740V99H751V89Q760 101 775 101Q778 101 782 101T791 99T798 90T801 70V24H789ZM824 89H814V99H824V118L836 126V99H849V89H836V45Q836 37 838 36T843 35H849L851 24Q847 23 841 23Q830 23 827 26T824 46V89ZM963 55Q963 38 963 34T968 24H954Q952 26 952
28T951 33Q939 22 924 22Q898 22 898 44Q898 54 903 58T916 65T933 68T950 72Q950 83 946 86T932 90Q922 90 919 87T913 76L900 78Q902 91 911 96T934 101Q950 101 956 96T963 73V55ZM950 61Q944 59 938 58T925 56T915 52T911 44Q911 32 927 32Q937 32 943 37T950
57V61ZM987 31Q986 33 986 46V89H976V99H986V118L998 126V99H1011V89H998V45Q998 37 1000 36T1005 35H1011L1013 24Q1009 23 1003 23Q990 23 987 31ZM1027 38H1042V24H1027V38ZM1042 99V85H1027V99H1042ZM197 -23H211L194 -93H179L165 -41L151 -93H136L119 -23H134L144
-71L157 -23H173L186 -72L197 -23ZM288 -23H302L286 -93H271L257 -41L243 -93H228L211 -23H225L236 -71L249 -23H265L277 -72L288 -23ZM380 -23H394L377 -93H362L348 -41L335 -93H319L303 -23H317L328 -71L341 -23H357L369 -72L380 -23ZM396 -79H409V-93H396V-79ZM469
-23H490V-93H477V-38L463 -93H449L436 -38V-93H423V-23H444L456 -71L469 -23ZM539 -23L567 -93H551L545 -77H518L512 -93H497L524 -23H539ZM541 -65L531 -39L522 -65H541ZM639 -23H653L636 -93H622L607 -41L594 -93H579L562 -23H576L587 -71L600 -23H616L628 -72L639
-23ZM703 -23H716V-93H702L674 -48V-93H661V-23H674L703 -70V-23ZM773 -55Q784 -60 784 -73Q784 -82 777 -88T756 -94Q730 -94 727 -70L741 -69Q742 -82 756 -82Q764 -82 766 -79T769 -73Q769 -71 769 -69T763 -65Q743 -60 736 -56T729 -42Q729 -31 737 -27T755
-22Q769 -22 775 -28T781 -43L768 -44Q765 -34 755 -34Q743 -34 743 -41Q743 -46 754 -48T773 -55ZM795 -79H809V-93H795V-79ZM861 -79Q866 -74 867 -67L881 -72Q873 -94 851 -94Q837 -94 829 -85T820 -59Q820 -42 829 -32T852 -22Q874 -22 880 -43L867 -46Q864
-34 852 -34Q834 -34 834 -58Q834 -72 839 -77T851 -82Q856 -82 861 -79ZM923 -22Q939 -22 948 -31T957 -58Q957 -76 948 -85T924 -94Q890 -94 890 -58Q890 -37 901 -30T923 -22ZM937 -76Q943 -70 943 -58Q943 -34 924 -34Q904 -34 904 -58Q904 -82 924 -82Q932
-82 937 -76ZM1014 -23H1035V-93H1022V-38L1008 -93H995L981 -38V-93H968V-23H989L1001 -71L1014 -23ZM528 448Q528 450 528 451T527 455Q527 460 528 464T534 469Q535 469 535 469T537 468Q537 463 528 448ZM926 547Q924 545 923 544T920 540Q919 544 919 551Q920
562 924 570T936 579Q942 579 942 574Q942 568 937 561T926 547ZM478 411Q473 416 473 427Q473 430 478 442T495 455Q505 452 505 440Q505 424 497 417T484 409Q482 410 481 410T478 411ZM429 426Q428 428 427 430T426 434Q426 443 434 443Q436 443 436 441Q436
437 429 426ZM312 386Q308 379 300 373Q300 375 300 376T299 379Q299 396 305 403T318 411Q322 411 322 406Q322 397 312 386ZM711 540Q706 530 701 520T688 498Q690 526 700 548T718 570Q720 570 720 566Q720 556 711 540ZM850 502Q861 519 864 531Q866 527 868
525T871 517Q871 512 870 511Q870 509 868 503T857 496Q855 496 854 499T851 502H850ZM873 549Q871 555 871 557Q871 566 878 566Q881 566 881 564Q881 560 873 549ZM500 302Q514 302 514 286Q514 274 508 266T493 258Q487 258 483 262T478 274Q478 285 484 293T500
302ZM361 287L128 224L163 515L318 558L317 560L333 569L329 586L346 592L344 610L360 615V633L378 636L379 653L397 655L400 672H417L422 689L440 687L446 703L464 700L472 715L489 710L498 725L515 718L525 731L541 723L553 736L568 725L581 737L595 725L609
736L622 723L637 731L648 718L664 725L674 710L691 715L699 700L716 703L723 687L740 689L745 672H754L1035 748L1000 457L860 418L853 411L862 395L848 384L855 368L840 358L845 342L830 334L833 316L817 310L819 292L802 288V270L785 266L783 249L766 248L763
230H745L740 213L723 215L716 199L699 203L691 187L674 193L664 178L648 185L637 171L622 179L609 167L595 177L581 165L568 177L553 167L541 179L525 171L515 185L498 178L489 193L472 187L464 203L446 199L440 215L422 213L417 230H400L397 248L379 249L378 266L360
270L361 287ZM901 544Q901 542 901 541T900 538Q900 533 903 527T914 520Q920 520 925 522T938 530Q951 539 957 547Q960 551 961 553Q961 554 959 554Q947 542 941 537T928 531Q923 531 921 537Q934 554 938 560T945 574Q945 583 938 583Q924 583 915 569T901
544ZM802 612Q804 612 804 608Q804 601 799 584T788 548T776 508T771 475Q771 459 781 459Q790 459 797 466T811 485V482Q811 470 817 470Q825 470 833 480T849 501Q849 494 859 492Q873 492 880 504T888 522Q888 530 886 533T876 547Q878 552 881 557T884 566Q884
569 881 569Q867 569 862 561T857 547Q857 542 858 540T862 533L863 532Q860 527 856 519T846 502T836 487T826 479Q824 479 824 483Q824 491 830 513T844 559Q853 586 864 619Q862 619 860 620Q854 622 849 622Q842 622 838 621Q841 621 841 616Q841 611 839 601T833
579T826 553T819 526L812 524Q815 524 815 517Q815 511 812 503T805 486T795 471T785 465Q781 465 781 471Q781 479 787 496T800 533T814 571T821 602Q821 614 812 614Q810 614 808 614T801 612H802ZM491 248Q506 248 516 258T527 286Q527 299 520 306T501 313Q485
313 476 302T466 273Q466 263 472 256T491 248ZM594 312H582L573 269L556 312H544L530 249H543L552 291L569 249H581L594 312ZM642 259H610L621 312H608L594 249H640L642 259ZM707 312H692L674 285L662 312H648L665 273L660 249H673L678 272L707 312ZM513 433Q513
428 514 419T523 410Q528 410 531 415Q544 427 546 439T554 452Q554 452 554 447T554 436T557 425T564 420Q571 420 579 428T592 443Q592 430 601 430Q608 430 618 440T629 456Q629 452 632 446T641 440Q646 440 656 449T670 465Q672 450 680 450Q686 450 691 454T701
463T709 472T714 478V480H711Q704 469 700 467T693 464Q688 464 686 477Q686 480 686 483T687 491Q702 515 713 537T725 570Q725 575 721 575Q717 575 709 569T692 549T677 518T670 474V469V468L665 463Q663 460 660 457T653 453Q648 453 646 460Q645 466 644 471Q643
476 642 479T640 483Q638 483 637 480Q628 462 626 456T615 446Q607 446 607 454Q607 463 611 470T620 483T630 490T638 493Q642 493 642 493T644 492Q644 493 645 493Q645 493 646 494Q646 496 640 496Q626 496 612 481T592 448L588 443Q586 441 583 438T576 434Q573
434 573 437T571 445Q571 448 571 454T571 465T569 475T566 480Q564 480 561 475Q560 473 557 467T550 453T543 438T537 429Q535 429 533 433T529 445Q532 451 535 457T539 468Q539 471 535 471Q527 471 521 463T513 443V433ZM457 421Q456 419 456 414Q456 409
459 403T470 397Q483 397 495 410T508 441Q508 450 504 454T494 458Q484 458 472 448T457 421ZM237 378Q269 386 285 408T302 450Q302 462 295 470T273 478Q270 478 267 478T260 477Q223 469 207 449T190 414Q190 397 205 397Q208 397 216 399Q210 399 210 414Q210
429 220 448T259 473H264Q273 473 277 467T281 450Q281 431 270 410T239 382Q245 400 251 416T261 444L257 448Q255 450 253 451T245 453Q240 453 238 452Q240 452 240 447Q240 439 236 423T225 388T215 353T210 324Q210 312 217 312H220Q219 312 219 315Q219 322
224 339T237 378ZM359 416Q360 416 362 416T366 417Q368 417 369 417T371 411Q370 408 370 402Q370 391 371 383T381 374Q391 374 401 386T415 402L420 408Q426 402 426 395V388Q426 384 424 380Q420 373 413 373Q410 373 409 376T407 379Q405 379 405 378Q405
375 408 372T416 369Q422 369 427 372T436 381T442 391T444 399Q444 403 443 408T431 424Q435 429 437 435T440 443Q440 446 437 446Q423 446 418 438T413 424Q413 419 414 417T418 410L413 403H412L408 397Q406 394 402 390T393 386Q390 386 389 391T387 403V412Q387
420 387 423T384 426Q382 426 374 425T362 424Q363 425 363 428Q363 432 360 432Q350 432 350 421Q350 417 352 417T357 417Q357 416 357 416T356 413Q339 381 327 373T309 364Q304 364 301 370Q309 380 317 389T326 408Q326 410 325 412T318 415Q310 415 303 410T291
398T284 383T281 371Q281 363 284 358T295 352Q307 352 318 362T336 379Q338 379 341 384T348 395T355 408T359 416Z" />
<glyph unicode="|" glyph-name="bar" horiz-adv-x="324" d="M230 632Q256 645 275 648T307 649Q322 646 333 639Q322 603 302 551T256 435T203 304T147 169T97 41T57 -67T33 -145T32 -182Q11 -173 12 -135T27 -39T67 89T120 233T174 375T218 500T241 591T230 632Z" />
<glyph unicode="}" glyph-name="braceright" horiz-adv-x="1158" d="M167 77H211V38Q189 22 167 22Q142 22 128 37T114 75Q114 101 128 115T167 130Q186 130 195 122T209 99L197 95Q191 118 167 118Q147 118 138 106T128 76Q128 55 139 45T167 34Q176 34 184 37T197
45V64H167V77ZM295 58H238Q241 33 261 33Q276 33 281 48L295 46Q287 22 261 22Q244 22 235 32T225 61Q225 80 234 90T261 101Q275 101 285 91T295 61V58ZM281 69Q280 80 275 85T261 91Q252 91 246 85T239 69H281ZM314 31Q313 33 313 46V89H304V99H313V118L326 126V99H338V89H326V45Q326
37 327 36T333 35H338L341 24Q337 23 331 23Q323 23 320 25T314 31ZM407 99H422V89H407V24H395V89H383V99H395V107Q395 118 399 124T416 130Q418 130 421 130T427 129L426 117Q423 118 418 118Q407 118 407 106V99ZM480 99H493V24H481V35Q474 22 457 22Q444 22
438 28T432 52V99H445V57Q445 43 448 38T460 33Q480 33 480 59V99ZM513 128H526V24H513V128ZM545 128H558V24H545V128ZM637 116Q634 113 634 106V99H649V89H634V24H622V89H610V99H622V107Q622 118 626 124T642 130Q645 130 648 130T654 129L653 117Q650 118 645
118Q639 118 637 116ZM689 101Q705 101 715 91T725 63Q725 43 716 33T689 22Q673 22 664 32T654 61Q654 81 664 91T689 101ZM705 40Q712 47 712 62Q712 90 689 90Q667 90 667 61Q667 47 673 40T689 33Q699 33 705 40ZM789 24V70Q789 90 773 90Q765 90 759 85T753
65V24H740V99H751V89Q760 101 775 101Q778 101 782 101T791 99T798 90T801 70V24H789ZM824 89H814V99H824V118L836 126V99H849V89H836V45Q836 37 838 36T843 35H849L851 24Q847 23 841 23Q830 23 827 26T824 46V89ZM963 55Q963 38 963 34T968 24H954Q952 26 952
28T951 33Q939 22 924 22Q898 22 898 44Q898 54 903 58T916 65T933 68T950 72Q950 83 946 86T932 90Q922 90 919 87T913 76L900 78Q902 91 911 96T934 101Q950 101 956 96T963 73V55ZM950 61Q944 59 938 58T925 56T915 52T911 44Q911 32 927 32Q937 32 943 37T950
57V61ZM987 31Q986 33 986 46V89H976V99H986V118L998 126V99H1011V89H998V45Q998 37 1000 36T1005 35H1011L1013 24Q1009 23 1003 23Q990 23 987 31ZM1027 38H1042V24H1027V38ZM1042 99V85H1027V99H1042ZM197 -23H211L194 -93H179L165 -41L151 -93H136L119 -23H134L144
-71L157 -23H173L186 -72L197 -23ZM288 -23H302L286 -93H271L257 -41L243 -93H228L211 -23H225L236 -71L249 -23H265L277 -72L288 -23ZM380 -23H394L377 -93H362L348 -41L335 -93H319L303 -23H317L328 -71L341 -23H357L369 -72L380 -23ZM396 -79H409V-93H396V-79ZM469
-23H490V-93H477V-38L463 -93H449L436 -38V-93H423V-23H444L456 -71L469 -23ZM539 -23L567 -93H551L545 -77H518L512 -93H497L524 -23H539ZM541 -65L531 -39L522 -65H541ZM639 -23H653L636 -93H622L607 -41L594 -93H579L562 -23H576L587 -71L600 -23H616L628 -72L639
-23ZM703 -23H716V-93H702L674 -48V-93H661V-23H674L703 -70V-23ZM773 -55Q784 -60 784 -73Q784 -82 777 -88T756 -94Q730 -94 727 -70L741 -69Q742 -82 756 -82Q764 -82 766 -79T769 -73Q769 -71 769 -69T763 -65Q743 -60 736 -56T729 -42Q729 -31 737 -27T755
-22Q769 -22 775 -28T781 -43L768 -44Q765 -34 755 -34Q743 -34 743 -41Q743 -46 754 -48T773 -55ZM795 -79H809V-93H795V-79ZM861 -79Q866 -74 867 -67L881 -72Q873 -94 851 -94Q837 -94 829 -85T820 -59Q820 -42 829 -32T852 -22Q874 -22 880 -43L867 -46Q864
-34 852 -34Q834 -34 834 -58Q834 -72 839 -77T851 -82Q856 -82 861 -79ZM923 -22Q939 -22 948 -31T957 -58Q957 -76 948 -85T924 -94Q890 -94 890 -58Q890 -37 901 -30T923 -22ZM937 -76Q943 -70 943 -58Q943 -34 924 -34Q904 -34 904 -58Q904 -82 924 -82Q932
-82 937 -76ZM1014 -23H1035V-93H1022V-38L1008 -93H995L981 -38V-93H968V-23H989L1001 -71L1014 -23ZM528 448Q528 450 528 451T527 455Q527 460 528 464T534 469Q535 469 535 469T537 468Q537 463 528 448ZM926 547Q924 545 923 544T920 540Q919 544 919 551Q920
562 924 570T936 579Q942 579 942 574Q942 568 937 561T926 547ZM478 411Q473 416 473 427Q473 430 478 442T495 455Q505 452 505 440Q505 424 497 417T484 409Q482 410 481 410T478 411ZM429 426Q428 428 427 430T426 434Q426 443 434 443Q436 443 436 441Q436
437 429 426ZM312 386Q308 379 300 373Q300 375 300 376T299 379Q299 396 305 403T318 411Q322 411 322 406Q322 397 312 386ZM711 540Q706 530 701 520T688 498Q690 526 700 548T718 570Q720 570 720 566Q720 556 711 540ZM850 502Q861 519 864 531Q866 527 868
525T871 517Q871 512 870 511Q870 509 868 503T857 496Q855 496 854 499T851 502H850ZM873 549Q871 555 871 557Q871 566 878 566Q881 566 881 564Q881 560 873 549ZM500 302Q514 302 514 286Q514 274 508 266T493 258Q487 258 483 262T478 274Q478 285 484 293T500
302ZM361 287L128 224L163 515L318 558L317 560L333 569L329 586L346 592L344 610L360 615V633L378 636L379 653L397 655L400 672H417L422 689L440 687L446 703L464 700L472 715L489 710L498 725L515 718L525 731L541 723L553 736L568 725L581 737L595 725L609
736L622 723L637 731L648 718L664 725L674 710L691 715L699 700L716 703L723 687L740 689L745 672H754L1035 748L1000 457L860 418L853 411L862 395L848 384L855 368L840 358L845 342L830 334L833 316L817 310L819 292L802 288V270L785 266L783 249L766 248L763
230H745L740 213L723 215L716 199L699 203L691 187L674 193L664 178L648 185L637 171L622 179L609 167L595 177L581 165L568 177L553 167L541 179L525 171L515 185L498 178L489 193L472 187L464 203L446 199L440 215L422 213L417 230H400L397 248L379 249L378 266L360
270L361 287ZM901 544Q901 542 901 541T900 538Q900 533 903 527T914 520Q920 520 925 522T938 530Q951 539 957 547Q960 551 961 553Q961 554 959 554Q947 542 941 537T928 531Q923 531 921 537Q934 554 938 560T945 574Q945 583 938 583Q924 583 915 569T901
544ZM802 612Q804 612 804 608Q804 601 799 584T788 548T776 508T771 475Q771 459 781 459Q790 459 797 466T811 485V482Q811 470 817 470Q825 470 833 480T849 501Q849 494 859 492Q873 492 880 504T888 522Q888 530 886 533T876 547Q878 552 881 557T884 566Q884
569 881 569Q867 569 862 561T857 547Q857 542 858 540T862 533L863 532Q860 527 856 519T846 502T836 487T826 479Q824 479 824 483Q824 491 830 513T844 559Q853 586 864 619Q862 619 860 620Q854 622 849 622Q842 622 838 621Q841 621 841 616Q841 611 839 601T833
579T826 553T819 526L812 524Q815 524 815 517Q815 511 812 503T805 486T795 471T785 465Q781 465 781 471Q781 479 787 496T800 533T814 571T821 602Q821 614 812 614Q810 614 808 614T801 612H802ZM491 248Q506 248 516 258T527 286Q527 299 520 306T501 313Q485
313 476 302T466 273Q466 263 472 256T491 248ZM594 312H582L573 269L556 312H544L530 249H543L552 291L569 249H581L594 312ZM642 259H610L621 312H608L594 249H640L642 259ZM707 312H692L674 285L662 312H648L665 273L660 249H673L678 272L707 312ZM513 433Q513
428 514 419T523 410Q528 410 531 415Q544 427 546 439T554 452Q554 452 554 447T554 436T557 425T564 420Q571 420 579 428T592 443Q592 430 601 430Q608 430 618 440T629 456Q629 452 632 446T641 440Q646 440 656 449T670 465Q672 450 680 450Q686 450 691 454T701
463T709 472T714 478V480H711Q704 469 700 467T693 464Q688 464 686 477Q686 480 686 483T687 491Q702 515 713 537T725 570Q725 575 721 575Q717 575 709 569T692 549T677 518T670 474V469V468L665 463Q663 460 660 457T653 453Q648 453 646 460Q645 466 644 471Q643
476 642 479T640 483Q638 483 637 480Q628 462 626 456T615 446Q607 446 607 454Q607 463 611 470T620 483T630 490T638 493Q642 493 642 493T644 492Q644 493 645 493Q645 493 646 494Q646 496 640 496Q626 496 612 481T592 448L588 443Q586 441 583 438T576 434Q573
434 573 437T571 445Q571 448 571 454T571 465T569 475T566 480Q564 480 561 475Q560 473 557 467T550 453T543 438T537 429Q535 429 533 433T529 445Q532 451 535 457T539 468Q539 471 535 471Q527 471 521 463T513 443V433ZM457 421Q456 419 456 414Q456 409
459 403T470 397Q483 397 495 410T508 441Q508 450 504 454T494 458Q484 458 472 448T457 421ZM237 378Q269 386 285 408T302 450Q302 462 295 470T273 478Q270 478 267 478T260 477Q223 469 207 449T190 414Q190 397 205 397Q208 397 216 399Q210 399 210 414Q210
429 220 448T259 473H264Q273 473 277 467T281 450Q281 431 270 410T239 382Q245 400 251 416T261 444L257 448Q255 450 253 451T245 453Q240 453 238 452Q240 452 240 447Q240 439 236 423T225 388T215 353T210 324Q210 312 217 312H220Q219 312 219 315Q219 322
224 339T237 378ZM359 416Q360 416 362 416T366 417Q368 417 369 417T371 411Q370 408 370 402Q370 391 371 383T381 374Q391 374 401 386T415 402L420 408Q426 402 426 395V388Q426 384 424 380Q420 373 413 373Q410 373 409 376T407 379Q405 379 405 378Q405
375 408 372T416 369Q422 369 427 372T436 381T442 391T444 399Q444 403 443 408T431 424Q435 429 437 435T440 443Q440 446 437 446Q423 446 418 438T413 424Q413 419 414 417T418 410L413 403H412L408 397Q406 394 402 390T393 386Q390 386 389 391T387 403V412Q387
420 387 423T384 426Q382 426 374 425T362 424Q363 425 363 428Q363 432 360 432Q350 432 350 421Q350 417 352 417T357 417Q357 416 357 416T356 413Q339 381 327 373T309 364Q304 364 301 370Q309 380 317 389T326 408Q326 410 325 412T318 415Q310 415 303 410T291
398T284 383T281 371Q281 363 284 358T295 352Q307 352 318 362T336 379Q338 379 341 384T348 395T355 408T359 416Z" />
<glyph unicode="~" glyph-name="asciitilde" horiz-adv-x="400" d="M402 312Q380 258 360 232T321 197T283 195T245 213T207 238T167 256T124 255T78 221Q101 274 128 292T183 311T239 299T296 280T351 276T402 312Z" />
</font>
</defs>
</svg>
